<svg width="65" height="53" viewBox="0 0 65 53" fill="none" xmlns="http://www.w3.org/2000/svg">
<path d="M64.2955 4.82322L54.5996 49.8417C53.8764 53.0122 52.0204 53.7263 49.3388 52.295L36.8143 43.134C35.6447 42.2784 34.0307 42.3813 32.9791 43.3783L27.6748 48.4072C27.6065 48.4753 27.5382 48.5433 27.469 48.6107C26.2182 49.8305 24.6943 48.3547 24.8277 46.6127L25.6248 36.2011C25.6836 35.4331 26.0356 34.7172 26.6077 34.2016L52.846 10.5549C53.9788 9.42821 52.5356 9.01881 51.0924 9.94234L18.5159 30.2942C17.7822 30.7526 16.8862 30.8719 16.0581 30.6215L2.8141 26.6168C-0.382696 25.5949 -0.382696 23.4431 3.53729 22.015L60.0652 0.221396C62.8491 -0.597411 65.2235 0.837088 64.2955 4.82322Z" fill="white"/>
</svg>
