<svg width="30" height="34" viewBox="0 0 30 34" fill="none" xmlns="http://www.w3.org/2000/svg">
<path d="M23.5077 5.32667C22.2437 3.85244 21.547 1.95953 21.5472 0H15.8323V23.4222C15.7891 24.69 15.2654 25.8911 14.3717 26.7722C13.478 27.6532 12.2842 28.1452 11.0421 28.1444C8.41582 28.1444 6.23342 25.9533 6.23342 23.2333C6.23342 19.9844 9.30357 17.5478 12.4662 18.5489V12.58C6.08546 11.7111 0.5 16.7733 0.5 23.2333C0.5 29.5233 5.60459 34 11.0236 34C16.831 34 21.5472 29.1833 21.5472 23.2333V11.3522C23.8646 13.0519 26.6469 13.9639 29.5 13.9589V8.12222C29.5 8.12222 26.023 8.29222 23.5077 5.32667Z" fill="white"/>
</svg>
