<svg width="34" height="24" viewBox="0 0 34 24" fill="none" xmlns="http://www.w3.org/2000/svg">
<path d="M13.6 17.1429L22.423 12L13.6 6.85714V17.1429ZM33.252 3.72C33.473 4.52571 33.626 5.60571 33.728 6.97714C33.847 8.34857 33.898 9.53143 33.898 10.56L34 12C34 15.7543 33.728 18.5143 33.252 20.28C32.827 21.8229 31.841 22.8171 30.311 23.2457C29.512 23.4686 28.05 23.6229 25.806 23.7257C23.596 23.8457 21.573 23.8971 19.703 23.8971L17 24C9.877 24 5.44 23.7257 3.689 23.2457C2.159 22.8171 1.173 21.8229 0.748 20.28C0.527 19.4743 0.374 18.3943 0.272 17.0229C0.153 15.6514 0.102 14.4686 0.102 13.44L0 12C0 8.24571 0.272 5.48571 0.748 3.72C1.173 2.17714 2.159 1.18286 3.689 0.754286C4.488 0.531429 5.95 0.377143 8.194 0.274285C10.404 0.154285 12.427 0.102857 14.297 0.102857L17 0C24.123 0 28.56 0.274286 30.311 0.754286C31.841 1.18286 32.827 2.17714 33.252 3.72Z" fill="white"/>
</svg>
