<svg width="27" height="25" viewBox="0 0 27 25" fill="none" xmlns="http://www.w3.org/2000/svg">
<path fill-rule="evenodd" clip-rule="evenodd" d="M2.69996 11.1842C2.69996 7.20808 5.48384 3.86565 9.25553 2.90755C11.1092 1.8932 13.2478 1.31484 15.525 1.31484C16.0378 1.31484 16.5435 1.34414 17.0405 1.40119C15.3921 0.508471 13.4945 0 11.475 0C5.1375 0 0 5.00736 0 11.1842C0 14.7354 1.69809 17.9 4.34604 19.9488C3.29734 18.1369 2.69901 16.0444 2.69901 13.8158C2.69901 13.3271 2.72774 12.8449 2.78381 12.3708C2.72791 11.9776 2.69989 11.5811 2.69996 11.1842ZM15.525 25C21.8625 25 27 19.9927 27 13.8158C27 7.6389 21.8625 2.6316 15.525 2.6316C9.1875 2.6316 4.05001 7.6389 4.05001 13.8158C4.05001 19.9927 9.1875 25 15.525 25ZM14.85 6.57897H17.55V8.55266H18.9V11.1842H14.85C13.3588 11.1842 12.15 12.3624 12.15 13.8158C12.15 15.2692 13.3588 16.4474 14.85 16.4474H18.9V19.0789H17.55V21.0526H14.85V19.0789C11.8677 19.0789 9.44999 16.7225 9.44999 13.8158C9.44999 10.9091 11.8677 8.55266 14.85 8.55266V6.57897Z" fill="white"/>
</svg>
