<svg width="31" height="35" viewBox="0 0 31 35" fill="none" xmlns="http://www.w3.org/2000/svg">
											<path d="M9.21738 31.9235C9.9668 32.8864 10.9218 33.6637 12.0101 34.1967C13.0985 34.7296 14.2918 35.0043 15.5 35C16.7082 35.0043 17.9015 34.7296 18.9899 34.1967C20.0782 33.6637 21.0332 32.8864 21.7826 31.9235C17.6132 32.4968 13.3868 32.4968 9.21738 31.9235ZM27.1249 12.25V13.482C27.1249 14.9607 27.5383 16.4062 28.3167 17.6365L30.2249 20.6517C31.9661 23.4062 30.6365 27.1495 27.6071 28.0192C19.6914 30.2971 11.3086 30.2971 3.39286 28.0192C0.363493 27.1495 -0.966053 23.4062 0.775102 20.6517L2.68331 17.6365C3.46384 16.3961 3.87803 14.9543 3.8768 13.482V12.25C3.8768 5.48449 9.08132 0 15.5 0C21.9187 0 27.1249 5.48449 27.1249 12.25Z" fill="white" />
										</svg>