<svg width="29" height="29" viewBox="0 0 29 29" fill="none" xmlns="http://www.w3.org/2000/svg">
<path d="M14.5 14.5C12.5062 14.5 10.7995 13.7901 9.37969 12.3703C7.9599 10.9505 7.25 9.24375 7.25 7.25C7.25 5.25625 7.9599 3.54948 9.37969 2.12969C10.7995 0.709896 12.5062 0 14.5 0C16.4937 0 18.2005 0.709896 19.6203 2.12969C21.0401 3.54948 21.75 5.25625 21.75 7.25C21.75 9.24375 21.0401 10.9505 19.6203 12.3703C18.2005 13.7901 16.4937 14.5 14.5 14.5ZM0 25.375V23.925C0 22.8979 0.264625 21.9542 0.793875 21.0939C1.32313 20.2335 2.02517 19.5762 2.9 19.1219C4.77292 18.1854 6.67604 17.4834 8.60937 17.0157C10.5427 16.5481 12.5062 16.3137 14.5 16.3125C16.4937 16.3113 18.4573 16.5457 20.3906 17.0157C22.324 17.4858 24.2271 18.1878 26.1 19.1219C26.976 19.575 27.6787 20.2323 28.2079 21.0939C28.7372 21.9554 29.0012 22.8991 29 23.925V25.375C29 26.3719 28.6454 27.2256 27.9361 27.9361C27.2268 28.6466 26.3731 29.0012 25.375 29H3.625C2.62812 29 1.77504 28.6454 1.06575 27.9361C0.356458 27.2268 0.00120833 26.3731 0 25.375Z" fill="white"/>
</svg>
