<svg width="57" height="57" viewBox="0 0 57 57" fill="none" xmlns="http://www.w3.org/2000/svg">
<path fill-rule="evenodd" clip-rule="evenodd" d="M28.4999 3.13139e-10C32.2426 -1.75435e-05 35.9486 0.737142 39.4064 2.16939C42.8642 3.60164 46.006 5.70092 48.6525 8.34739C51.299 10.9939 53.3983 14.1357 54.8306 17.5934C56.2628 21.0512 57 24.7573 57 28.4999C57 44.2401 44.2401 57 28.4999 57C12.7599 57 0 44.2401 0 28.4999C0 12.7599 12.7599 3.13139e-10 28.4999 3.13139e-10ZM31.35 31.35H25.65C23.4219 31.35 21.2933 31.7762 19.3413 32.5514C11.5557 35.6434 12.6166 46.8835 20.4547 49.84C22.9565 50.7836 25.6679 51.3 28.4999 51.3C31.332 51.3 34.0435 50.7836 36.5454 49.8398C44.3835 46.8832 45.4441 35.6431 37.6583 32.5512C35.7064 31.7761 33.578 31.35 31.35 31.35ZM28.4999 8.54999C23.7779 8.54999 19.9499 12.378 19.9499 17.1C19.9499 21.822 23.7779 25.65 28.4999 25.65C33.2219 25.65 37.0499 21.822 37.0499 17.1C37.0499 12.378 33.2221 8.54999 28.4999 8.54999Z" fill="#F4F4F4"/>
</svg>
