<svg width="17" height="14" className="mx-2" viewBox="0 0 34 28" fill="none" xmlns="http://www.w3.org/2000/svg">
									<path d="M18.108 1.05V3.5H21.0279C21.5468 3.5 22.0539 3.6484 22.4827 3.9242L24.9916 5.5398C25.0537 5.579 25.1227 5.59907 25.1986 5.6H31.2632C31.5573 5.6 31.8393 5.71062 32.0472 5.90754C32.2552 6.10445 32.372 6.37152 32.372 6.65C32.372 6.92848 32.2552 7.19555 32.0472 7.39246C31.8393 7.58938 31.5573 7.7 31.2632 7.7H28.9302L33.9066 18.452C34.0062 18.667 34.0268 18.9074 33.9652 19.1348C33.9035 19.3621 33.7632 19.5634 33.5666 19.7064C33.4188 19.81 33.266 19.9061 33.1083 19.9948C32.734 20.208 32.3436 20.3947 31.9403 20.5534C30.603 21.083 29.1674 21.3538 27.7179 21.35C26.2688 21.356 24.8332 21.0855 23.4969 20.5548C23.0935 20.3956 22.7032 20.2085 22.3289 19.9948C22.1717 19.9094 22.0201 19.815 21.875 19.712L21.8677 19.7064C21.671 19.5634 21.5307 19.3621 21.4691 19.1348C21.4074 18.9074 21.428 18.667 21.5276 18.452L26.507 7.7H25.1971C24.6782 7.7 24.1711 7.5516 23.7423 7.2758L21.2334 5.6602C21.1723 5.62102 21.1002 5.60005 21.0264 5.6H18.108V25.9H24.7418C25.0358 25.9 25.3179 26.0106 25.5258 26.2075C25.7338 26.4044 25.8506 26.6715 25.8506 26.95C25.8506 27.2285 25.7338 27.4956 25.5258 27.6925C25.3179 27.8894 25.0358 28 24.7418 28H9.2565C8.96242 28 8.68038 27.8894 8.47244 27.6925C8.26449 27.4956 8.14767 27.2285 8.14767 26.95C8.14767 26.6715 8.26449 26.4044 8.47244 26.2075C8.68038 26.0106 8.96242 25.9 9.2565 25.9H15.8903V5.6H12.9704C12.8966 5.60005 12.8245 5.62102 12.7634 5.6602L10.2559 7.2758C9.82718 7.5516 9.32008 7.7 8.80114 7.7H7.49124L12.4706 18.452C12.567 18.6609 12.589 18.8938 12.5333 19.1155C12.4775 19.3373 12.3471 19.5358 12.1616 19.6812C12.0434 19.7722 11.9251 19.8576 11.7033 19.9934C11.3296 20.223 10.9382 20.4257 10.5324 20.5996C9.19744 21.175 7.74714 21.4711 6.28039 21.4676C4.81363 21.4711 3.36333 21.175 2.02838 20.5996C1.62255 20.4257 1.23113 20.223 0.857446 19.9934C0.700077 19.8972 0.547625 19.7939 0.400606 19.684C0.216265 19.5373 0.086588 19.3383 0.0306894 19.1165C-0.0252091 18.8947 -0.00437105 18.6617 0.0901318 18.452L5.06806 7.7H2.73655C2.44247 7.7 2.16043 7.58938 1.95249 7.39246C1.74454 7.19555 1.62772 6.92848 1.62772 6.65C1.62772 6.37152 1.74454 6.10445 1.95249 5.90754C2.16043 5.71062 2.44247 5.6 2.73655 5.6H8.80114C8.87605 5.6 8.94554 5.57993 9.0096 5.5398L11.5156 3.9242C11.9443 3.647 12.4529 3.5 12.9718 3.5H15.8903V1.05C15.8903 0.771523 16.0071 0.504451 16.2151 0.307538C16.423 0.110625 16.705 0 16.9991 0C17.2932 0 17.5752 0.110625 17.7832 0.307538C17.9911 0.504451 18.108 0.771523 18.108 1.05ZM2.5 18.4772C3.66329 19.0646 4.96207 19.37 6.28039 19.3662C7.5987 19.37 8.89749 19.0646 10.0608 18.4772L6.28039 10.3152L2.5 18.4772ZM23.9523 18.4436C24.0735 18.4996 24.209 18.5584 24.3588 18.62C25.1424 18.9322 26.2882 19.25 27.7179 19.25C29.0212 19.2533 30.3085 18.9776 31.4835 18.4436L27.7179 10.3138L23.9523 18.4436Z" fill="white" />
								</svg>