<svg width="43" height="43" viewBox="0 0 43 43" fill="none" xmlns="http://www.w3.org/2000/svg">
<path d="M42.6083 40.705L29.595 27.5643C32.0205 24.6488 33.4823 20.8979 33.4823 16.8022C33.4823 7.52267 25.9869 0 16.7411 0C7.49534 0 0 7.52267 0 16.8022C0 26.0817 7.49534 33.6044 16.7411 33.6044C20.9418 33.6044 24.7789 32.0478 27.7186 29.4818L40.7138 42.6063C41.2368 43.1312 42.0853 43.1312 42.6083 42.6063C43.1306 42.0814 43.1306 41.2305 42.6083 40.705H42.6083ZM16.7411 30.9382C8.96254 30.9382 2.65648 24.6091 2.65648 16.8022C2.65648 8.99521 8.96254 2.66617 16.7411 2.66617C24.5197 2.66617 30.8258 8.99521 30.8258 16.8022C30.8258 24.6091 24.5197 30.9382 16.7411 30.9382Z" fill="white"/>
</svg>
