<svg width="37" height="32" viewBox="0 0 37 32" fill="none" xmlns="http://www.w3.org/2000/svg">
<path d="M25.3201 2.77048C25.8276 3.11177 26.177 3.63812 26.2914 4.23374C26.4058 4.82935 26.2758 5.44544 25.9302 5.94648C25.5845 6.44751 25.0514 6.79244 24.4481 6.90539C23.8448 7.01834 23.2208 6.89006 22.7133 6.54876C20.576 5.11422 18.0139 4.42714 15.4352 4.59698C12.8564 4.76682 10.4095 5.78381 8.48404 7.48594C6.55863 9.18807 5.26555 11.4774 4.8108 13.9893C4.35605 16.5011 4.76579 19.091 5.97474 21.3462C7.1837 23.6015 9.12232 25.3925 11.4818 26.4338C13.8412 27.4751 16.4858 27.7069 18.9941 27.0922C21.5025 26.4775 23.7303 25.0517 25.3227 23.042C26.9152 21.0322 27.7806 18.5541 27.7811 16.0025C27.7811 15.3963 28.025 14.8149 28.4591 14.3862C28.8933 13.9576 29.4822 13.7168 30.0962 13.7168C30.7102 13.7168 31.299 13.9576 31.7332 14.3862C32.1673 14.8149 32.4112 15.3963 32.4112 16.0025C32.4107 19.575 31.1991 23.0446 28.9696 25.8584C26.7401 28.6723 23.6209 30.6685 20.1089 31.5289C16.597 32.3894 12.8944 32.0647 9.5911 30.6065C6.28778 29.1484 3.57378 26.6406 1.88151 23.4828C0.189234 20.3251 -0.383938 16.699 0.253308 13.1822C0.890555 9.66553 2.70156 6.46056 5.39777 4.07795C8.09399 1.69535 11.5203 0.272197 15.1308 0.0352452C18.7413 -0.201706 22.3282 0.761176 25.3201 2.77048Z" fill="white"/>
<path d="M24.3992 21.7301C24.1431 21.8919 23.8572 22.0023 23.5578 22.055C23.2585 22.1077 22.9516 22.1016 22.6546 22.0372C22.3576 21.9728 22.0764 21.8513 21.8269 21.6795C21.5775 21.5078 21.3648 21.2893 21.2009 21.0364C21.0371 20.7835 20.9253 20.5012 20.8719 20.2057C20.8185 19.9101 20.8246 19.6071 20.8899 19.3139C20.9551 19.0206 21.0782 18.743 21.2521 18.4967C21.4261 18.2505 21.6474 18.0405 21.9036 17.8787L29.9647 12.7884C30.4819 12.4724 31.1042 12.37 31.6971 12.5034C32.2901 12.6367 32.8061 12.9951 33.1337 13.501C33.4612 14.007 33.5739 14.6198 33.4475 15.2072C33.3211 15.7945 32.9657 16.3091 32.4581 16.6398L24.3992 21.7301Z" fill="white"/>
<path d="M36.8171 21.511C37.0534 22.0622 37.0613 22.6829 36.8391 23.2398C36.6169 23.7967 36.1823 24.2453 35.6287 24.4893C35.0751 24.7332 34.4467 24.7531 33.8784 24.5445C33.3102 24.3359 32.8475 23.9156 32.5897 23.3739L29.0986 15.6482C28.9677 15.3731 28.8937 15.0751 28.8809 14.7714C28.8681 14.4678 28.9167 14.1647 29.024 13.8799C29.1313 13.595 29.295 13.3342 29.5055 13.1125C29.7161 12.8909 29.9694 12.7129 30.2504 12.5891C30.5315 12.4652 30.8348 12.398 31.1425 12.3912C31.4502 12.3844 31.7562 12.4383 32.0426 12.5497C32.3289 12.6611 32.5899 12.8277 32.8103 13.0399C33.0306 13.2521 33.206 13.5055 33.3259 13.7853L36.8171 21.511Z" fill="white"/>
</svg>
