<svg width="35" height="28" viewBox="0 0 35 28" fill="none" xmlns="http://www.w3.org/2000/svg">
<path fill-rule="evenodd" clip-rule="evenodd" d="M21.0162 26.2553L21.0267 22.75C21.0267 22.2847 21.2115 21.8385 21.5405 21.5095C21.8695 21.1805 22.3157 20.9956 22.781 20.9956C23.2463 20.9956 23.6925 21.1805 24.0216 21.5095C24.3506 21.8385 24.5354 22.2847 24.5354 22.75V26.2097C24.5354 27.0515 24.5354 27.4732 24.8049 27.7323C25.0762 27.9895 25.4874 27.972 26.3152 27.937C29.5754 27.7988 31.5792 27.3595 32.9897 25.949C34.4072 24.5385 34.8464 22.5347 34.9847 19.2692C35.0109 18.6217 35.0249 18.2962 34.9042 18.081C34.7817 17.8657 34.3004 17.5963 33.3344 17.0555C32.7903 16.7521 32.337 16.309 32.0215 15.7718C31.7059 15.2347 31.5396 14.623 31.5396 14C31.5396 13.377 31.7059 12.7653 32.0215 12.2282C32.337 11.691 32.7903 11.2479 33.3344 10.9445C34.3004 10.4055 34.7834 10.1343 34.9042 9.919C35.0249 9.70375 35.0109 9.38 34.9829 8.73075C34.8464 5.46525 34.4054 3.46325 32.9897 2.051C31.4549 0.518 29.2184 0.13125 25.4262 0.0332501C25.31 0.0302118 25.1945 0.0504634 25.0863 0.09281C24.9782 0.135157 24.8796 0.19874 24.7964 0.279809C24.7132 0.360877 24.6471 0.457787 24.602 0.564821C24.5568 0.671855 24.5336 0.786843 24.5337 0.903V5.25C24.5337 5.71529 24.3488 6.16152 24.0198 6.49053C23.6908 6.81954 23.2446 7.00437 22.7793 7.00437C22.314 7.00437 21.8678 6.81954 21.5387 6.49053C21.2097 6.16152 21.0249 5.71529 21.0249 5.25L21.0127 0.87325C21.0122 0.641489 20.9198 0.419379 20.7558 0.255663C20.5917 0.0919465 20.3694 -4.63522e-07 20.1377 0H13.9917C7.37665 0 4.06915 -2.08616e-07 2.0129 2.051C0.595403 3.4615 0.156154 5.46525 0.0179037 8.73075C-0.00834634 9.37825 -0.0223463 9.70375 0.0984037 9.919C0.220904 10.1343 0.702153 10.4055 1.66815 10.9445C2.21229 11.2479 2.66554 11.691 2.98108 12.2282C3.29661 12.7653 3.46297 13.377 3.46297 14C3.46297 14.623 3.29661 15.2347 2.98108 15.7718C2.66554 16.309 2.21229 16.7521 1.66815 17.0555C0.702153 17.5963 0.219154 17.8657 0.0984037 18.081C-0.0223463 18.2962 -0.00834646 18.62 0.0196535 19.2675C0.156154 22.5347 0.597153 24.5385 2.0129 25.949C4.06915 28 7.37665 28 13.9934 28H19.2609C20.0869 28 20.4982 28 20.7554 27.7445C21.0127 27.489 21.0144 27.0795 21.0162 26.2553ZM24.5337 15.75V12.25C24.5337 11.7847 24.3488 11.3385 24.0198 11.0095C23.6908 10.6805 23.2446 10.4956 22.7793 10.4956C22.314 10.4956 21.8678 10.6805 21.5387 11.0095C21.2097 11.3385 21.0249 11.7847 21.0249 12.25V15.75C21.0249 16.2155 21.2098 16.662 21.539 16.9911C21.8682 17.3203 22.3146 17.5053 22.7802 17.5053C23.2457 17.5053 23.6921 17.3203 24.0213 16.9911C24.3505 16.662 24.5337 16.2155 24.5337 15.75Z" fill="white"/>
</svg>
