<svg width="35" height="25" viewBox="0 0 35 25" fill="none" xmlns="http://www.w3.org/2000/svg">
<path d="M23.8636 0C24.2856 0 24.6902 0.16462 24.9886 0.457646C25.2869 0.750672 25.4545 1.1481 25.4545 1.5625V8.125L33.748 2.42188C33.8672 2.33977 34.0071 2.2914 34.1524 2.28203C34.2978 2.27266 34.4429 2.30266 34.5721 2.36874C34.7012 2.43483 34.8094 2.53447 34.8849 2.6568C34.9604 2.77914 35.0002 2.91947 35 3.0625V21.9375C35.0002 22.0805 34.9604 22.2209 34.8849 22.3432C34.8094 22.4655 34.7012 22.5652 34.5721 22.6313C34.4429 22.6973 34.2978 22.7273 34.1524 22.718C34.0071 22.7086 33.8672 22.6602 33.748 22.5781L25.4545 16.875V23.4375C25.4545 23.8519 25.2869 24.2493 24.9886 24.5424C24.6902 24.8354 24.2856 25 23.8636 25H1.59091C1.16897 25 0.76432 24.8354 0.465966 24.5424C0.167613 24.2493 0 23.8519 0 23.4375V1.5625C0 1.1481 0.167613 0.750672 0.465966 0.457646C0.76432 0.16462 1.16897 0 1.59091 0H23.8636ZM10.1818 7.54531C10.0351 7.54528 9.89291 7.59503 9.77927 7.68615C9.66562 7.77726 9.58752 7.90414 9.55818 8.04531L9.54545 8.16875V16.8281C9.54544 16.9293 9.57046 17.029 9.61835 17.1187C9.66624 17.2083 9.73558 17.2851 9.8204 17.3426C9.90522 17.4001 10.003 17.4365 10.1053 17.4487C10.2076 17.4608 10.3114 17.4484 10.4077 17.4125L10.5239 17.3562L17.4523 13.0266C17.5334 12.9758 17.6017 12.9076 17.6522 12.8272C17.7026 12.7468 17.7338 12.6561 17.7435 12.5621C17.7531 12.4682 17.7409 12.3732 17.7079 12.2845C17.6748 12.1958 17.6217 12.1156 17.5525 12.05L17.4523 11.9719L10.5239 7.64063C10.4212 7.57813 10.3026 7.54405 10.1818 7.54531Z" fill="white"/>
</svg>
