<svg width="30" height="26" viewBox="0 0 30 26" fill="none" xmlns="http://www.w3.org/2000/svg">
<path fill-rule="evenodd" clip-rule="evenodd" d="M27.1943 7.64832C27.1151 7.64356 27.0307 7.64165 26.9413 7.64261H23.4124C20.5221 7.64261 18.0498 9.96832 18.0498 12.9997C18.0498 16.0312 20.5235 18.3569 23.4124 18.3569H26.9413C27.0307 18.3578 27.1155 18.3559 27.1957 18.3512C27.7897 18.3146 28.3504 18.0585 28.7734 17.6306C29.1964 17.2027 29.4527 16.6322 29.4947 16.0255C29.5003 15.9397 29.5003 15.8469 29.5003 15.7612V10.2383C29.5003 10.1526 29.5003 10.0597 29.4947 9.97404C29.4527 9.36727 29.1964 8.7968 28.7734 8.36892C28.3504 7.94104 27.7883 7.68493 27.1943 7.64832ZM23.1035 14.4283C23.847 14.4283 24.4494 13.7883 24.4494 12.9997C24.4494 12.2112 23.847 11.5712 23.1035 11.5712C22.3586 11.5712 21.7562 12.2112 21.7562 12.9997C21.7562 13.7883 22.3586 14.4283 23.1035 14.4283Z" fill="white"/>
<path fill-rule="evenodd" clip-rule="evenodd" d="M26.9397 20.5C26.988 20.498 27.0361 20.5077 27.0801 20.5283C27.124 20.5489 27.1626 20.5798 27.1927 20.6185C27.2228 20.6572 27.2435 20.7025 27.2533 20.751C27.263 20.7994 27.2613 20.8495 27.2486 20.8971C26.969 21.9143 26.5232 22.7829 25.809 23.5114C24.7622 24.5829 23.4359 25.0557 21.7979 25.2814C20.2047 25.5 18.1712 25.5 15.6024 25.5H12.6507C10.0819 25.5 8.04701 25.5 6.45515 25.2814C4.81717 25.0557 3.49085 24.5814 2.44405 23.5129C1.39865 22.4429 0.934652 21.0871 0.713832 19.4129C0.5 17.7843 0.5 15.7057 0.5 13.08V12.92C0.5 10.2943 0.5 8.21429 0.713832 6.58571C0.934652 4.91143 1.39865 3.55571 2.44405 2.48571C3.49085 1.41714 4.81717 0.942857 6.45515 0.717143C8.04841 0.5 10.0819 0.5 12.6507 0.5H15.6024C18.1712 0.5 20.2061 0.5 21.7979 0.718572C23.4359 0.944286 24.7622 1.41857 25.809 2.48714C26.5232 3.21857 26.969 4.08571 27.2486 5.10286C27.2613 5.15053 27.263 5.20061 27.2533 5.24903C27.2435 5.29745 27.2228 5.34285 27.1927 5.38154C27.1626 5.42024 27.124 5.45113 27.0801 5.47171C27.0361 5.49229 26.988 5.50198 26.9397 5.5H23.4122C19.4472 5.5 15.9532 8.7 15.9532 13C15.9532 17.3 19.4472 20.5 23.4122 20.5H26.9397ZM7.48797 18.3571C7.20997 18.3571 6.94336 18.2443 6.74679 18.0433C6.55021 17.8424 6.43978 17.5699 6.43978 17.2857V8.71429C6.43978 8.43013 6.55021 8.1576 6.74679 7.95667C6.94336 7.75574 7.20997 7.64286 7.48797 7.64286C7.76597 7.64286 8.03258 7.75574 8.22916 7.95667C8.42573 8.1576 8.53617 8.43013 8.53617 8.71429V17.2857C8.53617 17.5699 8.42573 17.8424 8.22916 18.0433C8.03258 18.2443 7.76597 18.3571 7.48797 18.3571Z" fill="white"/>
</svg>
