<svg width="432" height="308" viewBox="0 0 432 308" fill="none" xmlns="http://www.w3.org/2000/svg">
<g opacity="0.5" clip-path="url(#clip0_195_12770)">
<path d="M418.092 77.7194L68.9922 102.804L81.9549 283.203L431.055 258.118L418.092 77.7194Z" fill="#ECECEC"/>
<path d="M144.489 97.3797L145.151 106.593C145.151 106.593 135.181 108.311 135.959 119.145L137.755 144.136L178.965 141.175L177.161 116.075C177.161 116.075 176.926 104.2 166.001 104.985L165.236 95.8889L144.489 97.3797Z" fill="#B1B1B1"/>
<path d="M186.297 104.736L384.533 90.4919L395.63 105.561L409.931 104.533L420.054 245.414L197.555 261.402C197.555 261.402 194.886 241.091 204.526 236.103C214.167 231.115 202.399 214.785 202.399 214.785C202.399 214.785 210.237 207.901 209.052 191.405C207.867 174.909 198.136 170.36 198.136 170.36C198.136 170.36 208.957 156.938 201.619 150.906C194.281 144.873 188.218 137.436 187.814 126.49C187.411 115.547 186.297 104.736 186.297 104.736Z" fill="#80BCC9"/>
<path d="M308.631 234.865L352.631 231.704L349.284 185.132L415.372 180.384L409.916 104.452L316.967 111.131L317.745 121.967L300.607 123.198L308.631 234.865Z" fill="#405D7C"/>
<path d="M300.236 86.1883L295.426 96.895L384.535 90.492L389.317 79.7873L300.236 86.1883Z" fill="#5299CE"/>
<path d="M320.422 252.573L315.836 266.397L404.944 259.994L409.503 246.172L320.422 252.573Z" fill="#5299CE"/>
<path d="M127.658 146.915L85 149.98L85.1462 152.015L127.804 148.95L127.658 146.915Z" fill="#34435B"/>
<path d="M127.963 151.142L85.3047 154.207L85.4509 156.242L128.109 153.177L127.963 151.142Z" fill="#34435B"/>
<path d="M164.416 222.767C158.796 223.17 154.112 219.104 151.042 216.559C147.973 214.013 140.381 213.175 140.381 213.175L140.139 209.798C140.139 209.798 131.118 204.787 130.578 197.28C130.039 189.772 139.801 184.166 139.801 184.166L139.612 181.538C139.612 181.538 144.339 180.947 148.592 177.245C152.845 173.545 160.629 170.092 160.629 170.092C160.629 170.092 168.826 172.396 173.565 175.45C178.303 178.507 183.066 178.415 183.066 178.415L183.254 181.044C183.254 181.044 193.718 185.198 194.258 192.704C194.797 200.209 186.587 206.46 186.587 206.46L186.83 209.838C186.83 209.838 179.438 211.752 176.762 214.71C174.089 217.669 170.033 222.363 164.414 222.767L164.416 222.767Z" fill="#272731"/>
<path d="M165.014 231.08C157.511 231.619 151.358 226.505 147.289 223.12L146.897 222.794C143.273 219.789 133.902 218.72 133.809 218.71L132.782 218.596L132.442 213.86C129.969 212.349 120.721 206.12 120.071 197.071C119.421 188.022 129.188 181.13 131.906 179.41L131.633 175.603L132.8 175.455C132.856 175.449 138.608 174.663 143.717 170.218C149.274 165.38 159.128 160.984 159.543 160.798L159.951 160.617L160.381 160.738C160.821 160.861 171.2 163.805 177.394 167.798C183.085 171.469 188.892 171.423 188.949 171.421L190.122 171.402L190.395 175.205C193.333 176.518 203.982 181.893 204.636 190.993C205.289 200.092 197.026 207.528 194.792 209.377L195.132 214.114L194.133 214.373C194.042 214.397 184.92 216.794 181.763 220.287L181.422 220.663C177.876 224.595 172.519 230.536 165.014 231.075L165.012 231.076L165.014 231.08ZM135.107 216.376C137.8 216.76 145.029 218.022 148.476 220.882L148.87 221.21C152.636 224.341 158.325 229.07 164.836 228.602C171.347 228.134 176.304 222.638 179.584 219.001L179.925 218.622C182.928 215.299 189.902 213.016 192.512 212.251L192.224 208.238L192.758 207.83C192.858 207.754 202.8 200.056 202.162 191.174C201.524 182.293 188.885 177.26 188.757 177.21L188.034 176.922L187.814 173.864C185.652 173.703 180.862 172.991 176.053 169.891C170.86 166.543 162.166 163.859 160.143 163.26C158.227 164.142 150.006 168.041 145.345 172.098C141.029 175.853 136.389 177.245 134.273 177.711L134.492 180.767L133.818 181.155C133.698 181.225 121.916 188.117 122.547 196.893C123.178 205.67 134.124 211.972 134.234 212.034L134.821 212.36L135.109 216.373L135.107 216.376Z" fill="#272731"/>
<path d="M191.891 159.703C191.891 159.703 194.701 168.032 186.144 167.397C177.584 166.761 171.658 153.731 168.435 156.902C168.435 156.902 167.434 155.209 169.348 154.262C171.262 153.315 173.354 154.149 176.621 159.474C176.621 159.474 175.213 153.178 177.915 151.953C180.616 150.73 181.942 151.811 182.11 154.152C182.11 154.152 179.664 152.785 178.617 154.551C177.57 156.317 177.771 162.48 180.599 163.894C180.599 163.894 179.678 157.047 184.789 156.68C189.9 156.312 187.332 161.424 187.332 161.424C187.332 161.424 185.682 158.895 183.598 160.516C181.514 162.138 181.782 165.867 184.953 166.082C188.124 166.297 192.125 166.081 191.895 159.701L191.891 159.703Z" fill="#272731"/>
<path d="M128.466 164.261C128.466 164.261 126.877 172.906 135.255 171.053C143.636 169.201 147.638 155.457 151.279 158.135C151.279 158.135 152.027 156.316 150 155.652C147.971 154.988 146.019 156.113 143.547 161.851C143.547 161.851 144.04 155.418 141.191 154.592C138.343 153.768 137.186 155.027 137.354 157.368C137.354 157.368 139.579 155.665 140.868 157.263C142.157 158.862 142.839 164.991 140.242 166.794C140.242 166.794 140.175 159.885 135.064 160.253C129.953 160.62 133.227 165.312 133.227 165.312C133.227 165.312 134.498 162.573 136.793 163.879C139.087 165.186 139.355 168.916 136.248 169.582C133.14 170.248 129.15 170.607 128.464 164.259L128.466 164.261Z" fill="#272731"/>
<path d="M133.371 232.493C133.371 232.493 130.561 224.164 139.118 224.799C147.678 225.435 153.604 238.467 156.824 235.295C156.824 235.295 157.825 236.987 155.914 237.934C154 238.882 151.908 238.047 148.641 232.722C148.641 232.722 150.049 239.018 147.347 240.243C144.645 241.466 143.32 240.385 143.152 238.044C143.152 238.044 145.598 239.412 146.645 237.645C147.692 235.879 147.491 229.716 144.663 228.302C144.663 228.302 145.584 235.149 140.473 235.516C135.362 235.884 137.932 230.772 137.932 230.772C137.932 230.772 139.582 233.301 141.666 231.68C143.75 230.058 143.482 226.329 140.311 226.114C137.14 225.901 133.139 226.115 133.369 232.495L133.371 232.493Z" fill="#272731"/>
<path d="M196.794 227.936C196.794 227.936 198.383 219.29 190.005 221.143C181.624 222.995 177.622 236.741 173.979 234.062C173.979 234.062 173.23 235.88 175.26 236.544C177.289 237.208 179.241 236.083 181.713 230.345C181.713 230.345 181.22 236.778 184.069 237.604C186.917 238.429 188.074 237.169 187.906 234.828C187.906 234.828 185.681 236.531 184.392 234.933C183.103 233.334 182.421 227.206 185.018 225.402C185.018 225.402 185.085 232.311 190.196 231.943C195.307 231.576 192.035 226.884 192.035 226.884C192.035 226.884 190.764 229.623 188.469 228.317C186.175 227.01 185.907 223.28 189.014 222.614C192.122 221.95 196.112 221.589 196.798 227.937L196.794 227.936Z" fill="#272731"/>
<path d="M167.657 115.912C163.237 114.191 158.491 118.382 158.491 118.382L157.65 117.688L157.521 115.886C157.521 115.886 158.971 114.573 158.809 112.32C158.647 110.068 155.688 111.866 155.688 111.866C155.688 111.866 152.502 110.509 152.664 112.762C152.826 115.015 154.451 116.106 154.451 116.106L154.58 117.908L153.847 118.716C153.847 118.716 148.549 115.246 144.421 117.582C140.293 119.917 142.724 126.462 145.268 129.375C147.813 132.287 148.126 135.588 148.126 135.588L166.569 134.263C166.569 134.263 166.406 130.951 168.508 127.705C170.61 124.459 172.08 117.631 167.661 115.912L167.659 115.912L167.657 115.912Z" fill="#272731"/>
<path d="M386.956 156.896C382.199 156.698 382.045 152.85 381.124 149.905L385.088 144.731C385.321 144.428 385.448 144.058 385.45 143.676L385.48 135.828C385.484 134.871 384.715 134.087 383.757 134.076L383.637 134.074C382.559 134.06 381.75 133.079 381.943 132.015L382.205 130.575C382.385 129.588 381.697 128.653 380.704 128.53L379.313 128.358C378.439 128.25 377.783 127.505 377.785 126.623L377.792 122.121C377.793 121.014 376.78 120.186 375.698 120.41L371.22 121.334C370.109 121.564 369.078 120.685 369.127 119.547L369.193 118.062C369.24 116.969 368.282 116.099 367.199 116.259L366.094 116.421C364.914 116.594 363.911 115.551 364.129 114.374L364.721 111.192C364.963 109.882 363.709 108.791 362.45 109.219L358.168 110.671C357.146 111.019 356.057 110.357 355.89 109.29L355.664 107.845C355.486 106.721 354.303 106.064 353.26 106.51L351.78 107.141C350.764 107.575 349.607 106.964 349.388 105.879L348.551 101.701C348.266 100.275 346.465 99.804 345.522 100.909L342.491 104.454C341.73 105.344 340.33 105.244 339.7 104.258L339.235 103.524C338.64 102.593 337.343 102.441 336.553 103.211L335.261 104.465C334.484 105.223 333.213 105.091 332.605 104.19L328.918 98.7244C328.181 97.6346 326.551 97.7201 325.936 98.8839L322.708 104.996C322.184 105.989 320.874 106.233 320.028 105.499L319.817 105.316C318.985 104.593 317.703 104.816 317.16 105.777L316.367 107.183C315.815 108.163 314.494 108.37 313.669 107.605L312.307 106.345C311.442 105.544 310.048 105.818 309.548 106.884L308.503 109.117C308.075 110.031 306.962 110.393 306.081 109.9C304.924 109.254 303.499 110.088 303.491 111.414L303.486 112.397C303.48 113.452 302.551 114.259 301.508 114.117L300.616 113.995C299.519 113.844 298.566 114.743 298.645 115.849L299.697 130.495C295.278 132.084 291.121 134.607 293.158 141.37C296.53 152.581 286.722 144.148 289.401 158.497C292.079 172.847 283.287 179.108 301.006 180.876C300.721 183.471 300.264 186.038 300.723 189.469C301.556 195.714 303.672 207.274 309.609 214.826C315.544 222.378 320.261 227.247 326.783 226.875C326.783 226.875 330.392 235.988 330.851 242.386L370.205 239.558C370.205 239.558 378.206 235.448 377.859 226.686C377.859 226.686 369.95 218.017 367.461 206.096C370.412 206.088 373.582 205.287 376.136 202.71C382.866 195.92 374.615 195.484 379.84 191.377C385.069 187.269 390.331 180.07 387.864 176.129C385.397 172.189 394.899 157.221 386.953 156.892L386.953 156.896L386.956 156.896Z" fill="#C5D3DC"/>
<path d="M175.165 243.21L171.244 188.641L169.371 188.776L168.854 181.583L166.933 181.721L166 168.743L162.773 168.975L159.255 150.939L158.353 169.293L155.125 169.524L156.058 182.503L154.137 182.641L154.653 189.834L152.78 189.968L156.701 244.536L175.167 243.21L175.165 243.21Z" fill="#AD9F5F"/>
<path d="M219.003 102.857L250.229 154.134L273.814 98.4478L219 102.857L219.003 102.857Z" fill="#BFDED5"/>
<path d="M126.118 129.132C124.851 131.171 122.948 132.282 120.408 132.464C117.869 132.647 115.816 131.82 114.251 129.984C112.705 128.147 111.816 125.613 111.584 122.383C111.352 119.153 111.87 116.518 113.137 114.478C114.424 112.438 116.337 111.326 118.876 111.144C121.416 110.961 123.458 111.789 125.004 113.626C126.569 115.461 127.468 117.995 127.7 121.225C127.932 124.455 127.405 127.091 126.118 129.132ZM120.172 129.175C121.695 129.066 122.812 128.346 123.521 127.016C124.231 125.686 124.501 123.836 124.33 121.467C124.16 119.098 123.629 117.306 122.736 116.091C121.844 114.876 120.636 114.323 119.112 114.433C117.608 114.541 116.492 115.261 115.763 116.592C115.053 117.922 114.784 119.772 114.954 122.141C115.124 124.51 115.655 126.302 116.548 127.517C117.46 128.73 118.668 129.283 120.172 129.175Z" fill="#34435B"/>
<path d="M107.661 130.458C106.394 132.497 104.491 133.608 101.951 133.79C99.4117 133.973 97.3594 133.146 95.7941 131.31C94.2484 129.473 93.3595 126.939 93.1273 123.709C92.8952 120.479 93.4127 117.844 94.6799 115.805C95.9666 113.764 97.8797 112.652 100.419 112.47C102.959 112.287 105.001 113.115 106.547 114.952C108.112 116.788 109.011 119.321 109.243 122.551C109.475 125.781 108.948 128.417 107.661 130.458ZM101.715 130.501C103.238 130.392 104.355 129.672 105.064 128.342C105.774 127.012 106.043 125.162 105.873 122.793C105.703 120.424 105.172 118.632 104.279 117.417C103.387 116.202 102.179 115.649 100.655 115.759C99.1513 115.867 98.0348 116.587 97.3058 117.918C96.5963 119.248 96.3267 121.098 96.4969 123.467C96.6672 125.836 97.1984 127.628 98.0908 128.843C99.0027 130.057 100.211 130.609 101.715 130.501Z" fill="#34435B"/>
<path d="M86.0867 113.883L89.0168 113.673L90.4939 134.23L87.1243 134.472L85.9067 117.527L81.8597 118.999L80.8325 116.18L86.0867 113.883Z" fill="#34435B"/>
<path d="M412.503 234.079C411.236 236.119 409.332 237.229 406.793 237.412C404.253 237.594 402.201 236.768 400.636 234.932C399.09 233.095 398.201 230.561 397.969 227.331C397.737 224.1 398.255 221.465 399.522 219.426C400.808 217.385 402.721 216.274 405.261 216.091C407.8 215.909 409.843 216.736 411.389 218.573C412.954 220.409 413.853 222.942 414.085 226.173C414.317 229.403 413.789 232.039 412.503 234.079ZM406.557 234.123C408.08 234.013 409.197 233.294 409.906 231.963C410.616 230.633 410.885 228.784 410.715 226.415C410.545 224.046 410.014 222.254 409.121 221.039C408.229 219.824 407.021 219.271 405.497 219.381C403.993 219.489 402.877 220.208 402.148 221.54C401.438 222.87 401.169 224.72 401.339 227.089C401.509 229.458 402.04 231.249 402.933 232.465C403.844 233.678 405.052 234.231 406.557 234.123Z" fill="#34435B"/>
<path d="M394.046 235.405C392.779 237.445 390.875 238.556 388.336 238.738C385.796 238.921 383.744 238.094 382.179 236.258C380.633 234.421 379.744 231.887 379.512 228.657C379.28 225.426 379.798 222.792 381.065 220.752C382.351 218.712 384.264 217.6 386.804 217.418C389.343 217.235 391.386 218.062 392.932 219.9C394.497 221.735 395.396 224.268 395.628 227.499C395.86 230.729 395.332 233.365 394.046 235.405ZM388.1 235.449C389.623 235.34 390.74 234.62 391.449 233.29C392.159 231.959 392.428 230.11 392.258 227.741C392.088 225.372 391.557 223.58 390.664 222.365C389.772 221.15 388.564 220.597 387.04 220.707C385.536 220.815 384.42 221.535 383.691 222.866C382.981 224.196 382.711 226.046 382.882 228.415C383.052 230.784 383.583 232.576 384.476 233.791C385.387 235.004 386.595 235.557 388.1 235.449Z" fill="#34435B"/>
<path d="M372.471 218.831L375.402 218.621L376.879 239.178L373.509 239.42L372.291 222.475L368.244 223.946L367.217 221.127L372.471 218.831Z" fill="#34435B"/>
<path d="M100.193 217.439L106.383 220.72L108.916 218.9L99.9749 214.05L100.195 217.437L100.195 217.442L100.193 217.439Z" fill="url(#paint0_linear_195_12770)"/>
<path d="M101.252 233.829L111.399 225.96L114.326 227.548L101.48 237.218L101.26 233.826L101.253 233.832L101.252 233.829Z" fill="url(#paint1_linear_195_12770)"/>
<path d="M100.33 219.605L93.1133 225.97L101.079 231.146L113.925 221.476L110.998 219.889L106.71 223.221L100.33 219.605ZM100.859 227.76L97.4613 225.629L100.547 222.952L104.424 225L100.859 227.763L100.859 227.76Z" fill="url(#paint2_linear_195_12770)"/>
<path d="M99.9199 208.478L99.7417 205.743C99.699 205.077 99.7694 204.571 99.9578 204.222C100.143 203.865 100.47 203.674 100.941 203.635C101.164 203.619 101.368 203.659 101.553 203.746C101.734 203.831 101.889 203.964 102.024 204.136C102.159 204.307 102.267 204.511 102.347 204.753C102.427 204.995 102.471 205.252 102.492 205.538L102.614 207.424L103.813 207.333L103.869 208.178L99.9183 208.491L99.9173 208.478L99.9199 208.478ZM101.663 205.592C101.656 205.494 101.643 205.384 101.618 205.257C101.593 205.125 101.552 205.001 101.5 204.886C101.447 204.766 101.378 204.667 101.289 204.589C101.2 204.51 101.095 204.473 100.968 204.482C100.886 204.488 100.817 204.517 100.766 204.569C100.712 204.615 100.672 204.674 100.647 204.751C100.616 204.825 100.598 204.904 100.589 204.998C100.574 205.084 100.573 205.172 100.577 205.262C100.575 205.345 100.576 205.427 100.583 205.499L100.597 205.687L100.719 207.573L101.799 207.485L101.676 205.599L101.665 205.589L101.663 205.592ZM101.572 203.28C101.222 203.305 100.917 203.262 100.651 203.15C100.385 203.029 100.164 202.852 99.9827 202.612C99.7957 202.364 99.6544 202.064 99.5529 201.703C99.4514 201.341 99.3856 200.932 99.3499 200.472C99.3169 200.013 99.3262 199.563 99.3688 199.177C99.4089 198.792 99.5073 198.46 99.6485 198.179C99.7899 197.9 99.9874 197.677 100.239 197.514C100.485 197.349 100.795 197.255 101.173 197.222C101.525 197.197 101.833 197.242 102.092 197.365C102.351 197.489 102.562 197.678 102.747 197.93C102.919 198.181 103.056 198.499 103.156 198.872C103.256 199.244 103.318 199.674 103.347 200.152C103.379 200.63 103.366 201.028 103.314 201.399C103.263 201.774 103.161 202.094 103.024 202.362C102.879 202.628 102.691 202.838 102.447 202.997C102.203 203.152 101.908 203.24 101.564 203.27L101.575 203.28L101.572 203.28ZM101.522 202.434C101.687 202.422 101.83 202.378 101.944 202.295C102.056 202.22 102.155 202.122 102.233 202.006C102.313 201.884 102.368 201.751 102.409 201.601C102.453 201.445 102.481 201.293 102.509 201.134C102.528 200.972 102.535 200.814 102.534 200.657C102.533 200.497 102.53 200.35 102.521 200.214C102.511 200.078 102.495 199.926 102.478 199.765C102.461 199.601 102.429 199.443 102.386 199.278C102.343 199.116 102.292 198.957 102.229 198.804C102.166 198.649 102.092 198.517 101.998 198.408C101.906 198.29 101.796 198.203 101.671 198.142C101.544 198.074 101.397 198.053 101.231 198.065C101.065 198.077 100.936 198.122 100.82 198.211C100.701 198.292 100.601 198.394 100.527 198.524C100.448 198.651 100.383 198.795 100.332 198.956C100.281 199.117 100.248 199.28 100.222 199.452C100.2 199.619 100.186 199.788 100.177 199.956C100.176 200.121 100.179 200.268 100.184 200.41C100.189 200.552 100.212 200.689 100.231 200.848C100.258 201.001 100.287 201.162 100.334 201.311C100.379 201.462 100.437 201.616 100.505 201.758C100.572 201.9 100.648 202.021 100.75 202.128C100.843 202.232 100.958 202.309 101.08 202.37C101.204 202.431 101.343 202.449 101.504 202.435L101.529 202.433L101.522 202.434ZM99.2246 197.713L99.1626 196.706L101.873 194.789L99.1282 193.183L101.621 191.101L98.7043 189.64L98.6407 188.645L102.752 190.751L102.783 191.255L100.63 193.073L102.992 194.447L103.023 194.951L99.2275 197.718L99.2272 197.713L99.2246 197.713ZM98.615 188.288L98.3413 184.081L99.1262 184.025L99.3439 187.381L99.862 187.344L99.6579 184.214L100.437 184.153L100.641 187.28L101.726 187.195L101.508 183.835L102.293 183.779L102.566 187.981L98.6154 188.294L98.615 188.288ZM102.04 179.681L100.904 180.798L101.018 182.562L102.212 182.471L102.267 183.316L98.3166 183.628L98.1383 180.894C98.0957 180.228 98.1661 179.722 98.3545 179.373C98.5398 179.016 98.8671 178.825 99.3381 178.786C99.4987 178.774 99.6508 178.789 99.7894 178.833C99.9279 178.878 100.057 178.941 100.176 179.03C100.292 179.12 100.391 179.232 100.478 179.362C100.566 179.49 100.644 179.642 100.705 179.803L101.96 178.574L102.032 179.679L102.037 179.679L102.04 179.681ZM100.062 180.738C100.055 180.64 100.041 180.53 100.017 180.402C99.9915 180.27 99.9514 180.146 99.8989 180.031C99.8406 179.909 99.7685 179.811 99.6874 179.734C99.5985 179.655 99.4943 179.619 99.3674 179.628C99.2845 179.634 99.2162 179.662 99.1653 179.715C99.1113 179.76 99.0713 179.82 99.0456 179.896C99.0145 179.971 98.9967 180.05 98.9879 180.143C98.9732 180.23 98.9717 180.317 98.9756 180.408C98.9737 180.49 98.9745 180.573 98.9822 180.645L98.9957 180.832L99.1182 182.719L100.203 182.633L100.08 180.746L100.064 180.737L100.062 180.738ZM97.8824 176.897L97.8204 175.889L100.531 173.972L97.786 172.367L100.279 170.285L97.3622 168.824L97.2985 167.829L101.41 169.935L101.441 170.439L99.2881 172.256L101.649 173.631L101.68 174.135L97.8853 176.902L97.885 176.897L97.8824 176.897ZM97.2164 166.65L101.18 166.342L101.234 167.195L97.2699 167.503L97.2164 166.65ZM97.1826 166.107L97.1291 165.254L99.75 161.546L96.9021 161.769L96.8465 160.923L100.797 160.611L100.853 161.456L98.1725 165.174L101.077 164.944L101.133 165.79L97.1822 166.102L97.1826 166.107Z" fill="black"/>
<path d="M290.817 220.608L294.668 220.332L296.356 243.825L292.505 244.102L291.774 233.933L281.728 234.655L282.459 244.824L278.608 245.101L276.92 221.607L280.771 221.33L281.463 230.963L291.509 230.241L290.817 220.608Z" fill="#34435B"/>
<path d="M267.179 246.36C264.924 246.522 262.967 246.146 261.308 245.23C259.672 244.313 258.476 242.982 257.723 241.237L260.898 239.052C262.025 241.625 264.063 242.806 267.009 242.594C268.46 242.49 269.523 242.132 270.197 241.522C270.892 240.887 271.207 240.111 271.141 239.193C271.072 238.231 270.629 237.532 269.812 237.096C268.994 236.638 267.569 236.178 265.539 235.716C264.399 235.461 263.472 235.213 262.759 234.972C262.046 234.73 261.28 234.381 260.462 233.922C259.665 233.44 259.048 232.82 258.612 232.065C258.176 231.309 257.921 230.405 257.845 229.353C257.695 227.273 258.314 225.575 259.701 224.261C261.086 222.924 262.816 222.182 264.892 222.032C266.768 221.898 268.441 222.238 269.914 223.055C271.386 223.871 272.56 225.057 273.435 226.614L270.321 228.727C269.182 226.605 267.462 225.626 265.162 225.791C264.046 225.872 263.173 226.204 262.541 226.789C261.909 227.352 261.624 228.081 261.689 228.976C261.751 229.849 262.136 230.518 262.843 230.985C263.57 231.427 264.847 231.864 266.673 232.295C267.587 232.522 268.251 232.699 268.664 232.827C269.098 232.93 269.694 233.113 270.453 233.373C271.235 233.632 271.827 233.904 272.229 234.19C272.631 234.476 273.061 234.839 273.519 235.278C273.999 235.716 274.35 236.23 274.572 236.822C274.794 237.413 274.932 238.089 274.987 238.85C275.14 240.975 274.491 242.72 273.041 244.084C271.611 245.423 269.657 246.182 267.179 246.36Z" fill="#34435B"/>
<path d="M253.262 246.922L251.281 242.307L241.302 243.024L240.001 247.875L235.815 248.175L242.633 224.07L247.254 223.738L257.414 246.623L253.262 246.922ZM242.314 239.308L249.748 238.774L245.269 228.435L242.314 239.308Z" fill="#34435B"/>
<path d="M224.907 249.398C221.38 249.651 218.372 248.698 215.883 246.538C213.393 244.355 212.023 241.541 211.776 238.095C211.528 234.65 212.482 231.68 214.636 229.186C216.789 226.67 219.629 225.285 223.157 225.031C225.277 224.879 227.267 225.242 229.125 226.121C231.006 226.998 232.51 228.261 233.639 229.912L230.43 232.099C229.721 230.981 228.74 230.129 227.486 229.545C226.253 228.936 224.9 228.685 223.427 228.79C220.926 228.97 218.952 229.91 217.503 231.611C216.077 233.311 215.452 235.38 215.627 237.819C215.802 240.257 216.717 242.216 218.372 243.694C220.048 245.17 222.137 245.818 224.637 245.639C226.111 245.533 227.426 245.101 228.583 244.343C229.739 243.563 230.576 242.569 231.096 241.363L234.582 243.035C233.723 244.828 232.427 246.305 230.693 247.464C228.979 248.599 227.051 249.244 224.907 249.398Z" fill="#34435B"/>
<path d="M270.659 163.186L262.213 179.208L266.907 185.763L279.4 162.621L270.674 163.189L270.659 163.186Z" fill="url(#paint3_linear_195_12770)"/>
<path d="M228.43 165.912L248.717 192.181L244.629 199.758L219.699 166.495L228.442 165.93L228.43 165.912Z" fill="url(#paint4_linear_195_12770)"/>
<path d="M265.085 163.538L248.674 144.853L235.345 165.466L260.272 198.728L264.36 191.152L255.77 180.046L265.083 163.538L265.085 163.538ZM244.07 164.898L249.558 156.108L256.462 164.098L251.192 174.13L244.07 164.898Z" fill="url(#paint5_linear_195_12770)"/>
<path d="M103.58 266.917L115.677 266.047L115.962 270.006L96.9266 271.373L96.6422 267.415L99.4886 267.211L99.0581 261.22L96.7454 261.386L96.4866 257.784L98.7993 257.618L98.4969 253.41C98.3192 250.938 98.9425 248.993 100.367 247.577C101.789 246.136 103.532 245.342 105.596 245.194C107.351 245.067 108.901 245.398 110.245 246.186C111.589 246.973 112.638 248.14 113.393 249.687L110.05 251.935C109.217 249.963 107.863 249.045 105.989 249.18C104.946 249.255 104.091 249.639 103.426 250.332C102.784 251.023 102.508 251.999 102.599 253.259L102.891 257.324L110.469 256.779L110.728 260.381L103.15 260.926L103.58 266.917Z" fill="#34435B"/>
<path d="M194.965 115.531L200.97 115.137C202.432 115.043 203.543 115.195 204.313 115.61C205.1 116.013 205.519 116.729 205.6 117.759C205.639 118.247 205.549 118.69 205.357 119.098C205.167 119.491 204.878 119.833 204.501 120.127C204.125 120.422 203.677 120.659 203.147 120.836C202.617 121.011 202.047 121.111 201.422 121.156L197.276 121.427L197.474 124.046L195.613 124.169L194.934 115.539L194.963 115.533L194.965 115.531ZM201.303 119.335C201.517 119.317 201.761 119.291 202.041 119.233C202.333 119.178 202.605 119.091 202.857 118.974C203.123 118.858 203.341 118.705 203.51 118.512C203.681 118.32 203.762 118.093 203.744 117.814C203.731 117.634 203.667 117.482 203.554 117.372C203.455 117.253 203.323 117.167 203.153 117.114C202.986 117.048 202.815 117.008 202.609 116.987C202.42 116.956 202.226 116.951 202.029 116.959C201.848 116.957 201.667 116.955 201.508 116.973L201.096 116.999L196.95 117.269L197.14 119.625L201.286 119.355L201.305 119.332L201.303 119.335ZM206.384 119.134C206.325 118.369 206.425 117.706 206.673 117.123C206.934 116.541 207.327 116.06 207.854 115.663C208.397 115.257 209.056 114.946 209.85 114.723C210.644 114.499 211.544 114.354 212.555 114.278C213.565 114.201 214.552 114.227 215.398 114.318C216.243 114.407 216.976 114.62 217.59 114.93C218.203 115.238 218.69 115.667 219.049 116.217C219.414 116.753 219.619 117.432 219.69 118.256C219.75 119.021 219.647 119.697 219.376 120.263C219.103 120.828 218.688 121.29 218.132 121.695C217.583 122.072 216.883 122.373 216.064 122.59C215.244 122.807 214.303 122.942 213.254 123.009C212.202 123.076 211.329 123.048 210.516 122.94C209.69 122.829 208.986 122.607 208.4 122.306C207.816 121.991 207.353 121.58 207.003 121.046C206.667 120.516 206.468 119.866 206.406 119.113L206.386 119.136L206.384 119.134ZM208.24 119.024C208.266 119.387 208.362 119.696 208.542 119.943C208.709 120.188 208.924 120.402 209.178 120.572C209.445 120.744 209.738 120.867 210.066 120.959C210.408 121.052 210.743 121.117 211.094 121.174C211.448 121.216 211.794 121.229 212.143 121.229C212.493 121.229 212.816 121.223 213.115 121.197C213.414 121.172 213.744 121.14 214.103 121.101C214.462 121.063 214.813 120.995 215.17 120.9C215.527 120.807 215.875 120.695 216.214 120.557C216.553 120.419 216.845 120.255 217.087 120.052C217.344 119.852 217.539 119.61 217.673 119.341C217.823 119.061 217.868 118.743 217.842 118.382C217.816 118.019 217.713 117.736 217.521 117.486C217.344 117.225 217.116 117.007 216.831 116.846C216.551 116.67 216.234 116.529 215.883 116.419C215.532 116.309 215.17 116.238 214.793 116.177C214.426 116.131 214.055 116.099 213.683 116.079C213.321 116.076 212.998 116.082 212.687 116.092C212.377 116.102 212.071 116.153 211.727 116.195C211.392 116.252 211.039 116.32 210.71 116.419C210.379 116.519 210.043 116.645 209.729 116.791C209.416 116.936 209.152 117.107 208.92 117.326C208.69 117.532 208.521 117.779 208.387 118.05C208.255 118.319 208.211 118.623 208.241 118.973L208.245 119.028L208.24 119.024ZM218.613 114.007L220.827 113.871L225.034 119.786L228.563 113.787L233.134 119.228L236.344 112.853L238.53 112.71L233.9 121.692L232.794 121.761L228.804 117.059L225.779 122.219L224.673 122.288L218.6 114.003L218.613 114.007ZM239.324 112.664L248.567 112.061L248.696 113.774L241.315 114.254L241.4 115.382L248.273 114.933L248.405 116.633L241.533 117.083L241.72 119.452L249.101 118.972L249.231 120.685L239.988 121.291L239.309 112.661L239.322 112.664L239.324 112.664ZM258.227 120.134L255.772 117.656L251.896 117.907L252.098 120.513L250.237 120.636L249.558 112.007L255.563 111.613C257.025 111.519 258.136 111.671 258.906 112.085C259.693 112.489 260.112 113.205 260.193 114.236C260.222 114.586 260.187 114.92 260.087 115.225C259.987 115.529 259.852 115.813 259.653 116.067C259.455 116.322 259.207 116.538 258.925 116.731C258.642 116.924 258.309 117.092 257.955 117.229L260.655 119.972L258.228 120.127L258.225 120.14L258.227 120.134ZM255.909 115.814C256.123 115.796 256.367 115.77 256.647 115.712C256.939 115.657 257.211 115.57 257.463 115.453C257.732 115.324 257.948 115.172 258.116 114.991C258.287 114.799 258.368 114.572 258.35 114.293C258.337 114.113 258.273 113.961 258.16 113.851C258.061 113.732 257.929 113.646 257.759 113.593C257.592 113.527 257.421 113.487 257.215 113.466C257.026 113.435 256.832 113.43 256.635 113.438C256.454 113.436 256.273 113.434 256.114 113.452L255.702 113.478L251.556 113.748L251.743 116.117L255.889 115.847L255.911 115.811L255.909 115.814ZM264.348 111.051L266.562 110.915L270.77 116.831L274.298 110.832L278.869 116.272L282.08 109.897L284.266 109.755L279.635 118.737L278.529 118.806L274.539 114.104L271.514 119.263L270.409 119.332L264.335 111.048L264.348 111.051ZM286.864 109.587L287.539 118.243L285.665 118.363L284.99 109.707L286.864 109.587ZM288.056 109.512L289.93 109.392L298.072 115.112L297.583 108.893L299.445 108.77L300.124 117.4L298.262 117.523L290.096 111.674L290.598 118.019L288.737 118.142L288.058 109.512L288.056 109.512Z" fill="black"/>
</g>
<g opacity="0.6" clip-path="url(#clip1_195_12770)">
<path d="M368.658 29.2159L30.5527 119.685L77.3026 294.401L415.408 203.933L368.658 29.2159Z" fill="#ECECEC"/>
<path d="M103.671 100.12L106.058 109.043C106.058 109.043 96.591 112.61 99.3987 123.103L105.875 147.308L145.787 136.628L139.282 112.318C139.282 112.318 136.812 100.701 126.231 103.532L123.765 94.7435L103.671 100.12Z" fill="#B1B1B1"/>
<path d="M146.118 99.4602L338.111 48.0878L351.85 60.7938L365.701 57.0877L402.21 193.531L186.718 251.192C186.718 251.192 180.266 231.748 188.794 225.032C197.321 218.316 182.684 204.498 182.684 204.498C182.684 204.498 189.084 196.259 184.809 180.282C180.534 164.306 170.12 161.674 170.12 161.674C170.12 161.674 178.215 146.452 169.872 141.912C161.528 137.371 154.171 131.211 151.71 120.538C149.25 109.867 146.118 99.4602 146.118 99.4602Z" fill="#80BCC9"/>
<path d="M290.795 204.185L333.41 192.783L321.341 147.678L385.347 130.551L365.67 57.0112L275.648 81.0989L278.456 91.5933L261.857 96.0347L290.795 204.185Z" fill="#405D7C"/>
<path d="M254.512 59.7584L251.808 71.18L338.11 48.0877L340.788 36.6732L254.512 59.7584Z" fill="#5299CE"/>
<path d="M305.714 219.351L303.817 233.792L390.119 210.7L391.989 196.266L305.714 219.351Z" fill="#5299CE"/>
<path d="M96.4845 151.941L55.1699 162.996L55.6972 164.966L97.0118 153.912L96.4845 151.941Z" fill="#34435B"/>
<path d="M97.5802 156.034L56.2656 167.089L56.7929 169.06L98.1075 158.005L97.5802 156.034Z" fill="#34435B"/>
<path d="M146.888 219.499C141.445 220.955 136.078 217.846 132.584 215.925C129.089 214.003 121.476 214.612 121.476 214.612L120.601 211.341C120.601 211.341 110.797 208.122 108.851 200.851C106.905 193.58 115.436 186.233 115.436 186.233L114.754 183.688C114.754 183.688 119.285 182.216 122.763 177.778C126.242 173.343 133.235 168.484 133.235 168.484C133.235 168.484 141.72 169.201 146.95 171.307C152.179 173.415 156.839 172.427 156.839 172.427L157.52 174.972C157.52 174.972 168.58 177.079 170.525 184.348C172.47 191.617 165.586 199.304 165.586 199.304L166.461 202.575C166.461 202.575 159.563 205.849 157.494 209.259C155.426 212.669 152.328 218.043 146.886 219.5L146.888 219.499Z" fill="#272731"/>
<path d="M149.042 227.55C141.775 229.495 134.768 225.633 130.133 223.077L129.687 222.83C125.561 220.562 116.157 221.28 116.063 221.288L115.034 221.369L113.807 216.782C111.093 215.764 100.837 211.392 98.4916 202.628C96.1465 193.863 104.438 185.253 106.784 183.051L105.797 179.364L106.916 178.999C106.97 178.983 112.47 177.126 116.649 171.797C121.194 165.998 130.042 159.823 130.415 159.562L130.782 159.307L131.226 159.345C131.681 159.382 142.429 160.316 149.265 163.07C155.547 165.601 161.241 164.461 161.297 164.448L162.445 164.209L163.43 167.892C166.564 168.628 178.034 171.898 180.393 180.711C182.751 189.524 176.038 198.385 174.193 200.622L175.42 205.209L174.487 205.653C174.403 205.693 165.896 209.767 163.455 213.793L163.191 214.227C160.45 218.757 156.31 225.601 149.041 227.546L149.039 227.547L149.042 227.55ZM116.898 218.75C119.616 218.62 126.953 218.496 130.878 220.655L131.326 220.903C135.614 223.267 142.094 226.838 148.4 225.151C154.706 223.464 158.537 217.131 161.072 212.941L161.335 212.505C163.658 208.675 170.076 205.118 172.495 203.874L171.455 199.987L171.904 199.486C171.987 199.392 180.299 189.958 177.998 181.356C175.696 172.754 162.335 170.195 162.2 170.17L161.435 170.024L160.643 167.062C158.489 167.311 153.65 167.515 148.343 165.378C142.612 163.069 133.568 162.073 131.469 161.867C129.753 163.094 122.415 168.473 118.603 173.336C115.072 177.838 110.778 180.08 108.788 180.937L109.58 183.897L108.99 184.405C108.886 184.496 98.6151 193.486 100.89 201.986C103.164 210.486 115.102 214.611 115.222 214.651L115.86 214.861L116.9 218.748L116.898 218.75Z" fill="#272731"/>
<path d="M161.977 152.386C161.977 152.386 166.307 160.036 157.783 161.026C149.257 162.016 140.98 150.337 138.413 154.058C138.413 154.058 137.111 152.585 138.812 151.294C140.512 150.003 142.724 150.427 146.937 155.041C146.937 155.041 144.367 149.124 146.789 147.411C149.212 145.7 150.717 146.512 151.324 148.78C151.324 148.78 148.664 147.898 147.969 149.83C147.274 151.762 148.633 157.777 151.677 158.632C151.677 158.632 149.481 152.081 154.431 150.756C159.381 149.432 157.824 154.936 157.824 154.936C157.824 154.936 155.726 152.763 153.986 154.749C152.245 156.734 153.211 160.346 156.366 159.959C159.521 159.572 163.409 158.606 161.98 152.383L161.977 152.386Z" fill="#272731"/>
<path d="M100.55 168.822C100.55 168.822 100.619 177.612 108.498 174.213C116.379 170.813 117.718 156.561 121.798 158.504C121.798 158.504 122.19 156.577 120.074 156.307C117.956 156.038 116.251 157.511 114.906 163.612C114.906 163.612 114.177 157.202 111.223 156.927C108.27 156.655 107.371 158.11 107.978 160.378C107.978 160.378 109.842 158.285 111.409 159.612C112.976 160.939 114.802 166.829 112.592 169.09C112.592 169.09 111.223 162.318 106.273 163.642C101.323 164.967 105.423 168.957 105.423 168.957C105.423 168.957 106.155 166.027 108.655 166.878C111.155 167.729 112.121 171.341 109.195 172.581C106.269 173.821 102.418 174.926 100.547 168.821L100.55 168.822Z" fill="#272731"/>
<path d="M118.233 234.906C118.233 234.906 113.903 227.256 122.426 226.266C130.952 225.276 139.23 236.957 141.794 233.234C141.794 233.234 143.096 234.708 141.398 235.999C139.697 237.29 137.485 236.865 133.272 232.251C133.272 232.251 135.842 238.169 133.42 239.881C130.997 241.592 129.492 240.78 128.885 238.513C128.885 238.513 131.545 239.394 132.241 237.462C132.936 235.53 131.576 229.516 128.532 228.66C128.532 228.66 130.728 235.211 125.778 236.536C120.828 237.86 122.387 232.355 122.387 232.355C122.387 232.355 124.485 234.528 126.226 232.543C127.967 230.558 127 226.945 123.845 227.332C120.691 227.721 116.803 228.686 118.231 234.909L118.233 234.906Z" fill="#272731"/>
<path d="M179.659 218.47C179.659 218.47 179.59 209.68 171.712 213.079C163.831 216.479 162.492 230.733 158.41 228.788C158.41 228.788 158.017 230.716 160.136 230.985C162.254 231.254 163.958 229.781 165.304 223.68C165.304 223.68 166.033 230.09 168.986 230.365C171.939 230.637 172.838 229.182 172.231 226.914C172.231 226.914 170.367 229.007 168.8 227.68C167.233 226.353 165.407 220.463 167.617 218.202C167.617 218.202 168.986 224.974 173.936 223.65C178.886 222.325 174.788 218.334 174.788 218.334C174.788 218.334 174.056 221.264 171.556 220.414C169.057 219.563 168.09 215.951 171.016 214.711C173.943 213.472 177.794 212.366 179.664 218.471L179.659 218.47Z" fill="#272731"/>
<path d="M129.919 113.951C125.254 113.094 121.384 118.105 121.384 118.105L120.427 117.581L119.96 115.836C119.96 115.836 121.136 114.274 120.552 112.092C119.969 109.91 117.402 112.234 117.402 112.234C117.402 112.234 114.017 111.503 114.601 113.684C115.185 115.866 116.986 116.632 116.986 116.632L117.453 118.377L116.886 119.308C116.886 119.308 111.028 116.9 107.415 119.972C103.801 123.044 107.423 129.014 110.471 131.394C113.519 133.774 114.449 136.957 114.449 136.957L132.311 132.177C132.311 132.177 131.527 128.956 132.979 125.371C134.431 121.787 134.587 114.805 129.923 113.95L129.921 113.95L129.919 113.951Z" fill="#272731"/>
<path d="M353.011 112.843C348.303 113.546 347.426 109.796 345.966 107.078L348.883 101.249C349.055 100.907 349.11 100.52 349.04 100.145L347.589 92.4323C347.413 91.4909 346.509 90.8662 345.566 91.0358L345.448 91.0566C344.387 91.2469 343.407 90.4357 343.396 89.3546L343.383 87.8909C343.373 86.8878 342.521 86.099 341.522 86.1659L340.124 86.2591C339.245 86.318 338.461 85.7093 338.297 84.8432L337.454 80.4206C337.246 79.3334 336.096 78.7116 335.075 79.1349L330.852 80.8875C329.804 81.3225 328.626 80.6537 328.459 79.5271L328.244 78.0564C328.084 76.9735 326.979 76.3005 325.946 76.6618L324.891 77.029C323.765 77.4219 322.583 76.5864 322.575 75.3889L322.557 72.1523C322.548 70.8201 321.11 69.9856 319.955 70.6432L316.023 72.8772C315.085 73.4114 313.89 72.9668 313.525 71.9499L313.031 70.5735C312.644 69.5034 311.359 69.0812 310.418 69.7159L309.084 70.615C308.168 71.2325 306.917 70.851 306.497 69.8269L304.887 65.8817C304.338 64.5352 302.481 64.4118 301.763 65.6749L299.454 69.728C298.875 70.7451 297.482 70.9112 296.677 70.062L296.081 69.4288C295.322 68.6263 294.02 68.7221 293.389 69.6268L292.357 71.1025C291.737 71.9933 290.463 72.1034 289.697 71.3331L285.045 66.6606C284.116 65.7293 282.531 66.1208 282.146 67.3796L280.129 73.9911C279.802 75.0649 278.561 75.5514 277.592 74.9899L277.351 74.85C276.397 74.2975 275.18 74.7581 274.828 75.8037L274.314 77.3344C273.957 78.4011 272.698 78.8531 271.744 78.2573L270.169 77.2766C269.169 76.6539 267.851 77.185 267.562 78.327L266.956 80.7161C266.708 81.6948 265.684 82.2605 264.725 81.9422C263.467 81.5256 262.225 82.6135 262.467 83.918L262.648 84.8842C262.84 85.9212 262.081 86.8886 261.029 86.9457L260.13 86.9947C259.025 87.0531 258.258 88.1161 258.544 89.1867L262.34 103.371C258.299 105.765 254.693 109.027 257.969 115.285C263.394 125.659 252.172 119.226 257.509 132.813C262.845 146.4 255.392 154.207 273.126 152.602C273.335 155.204 273.37 157.811 274.468 161.094C276.465 167.069 280.723 178.024 287.977 184.32C295.229 190.618 300.78 194.51 307.115 192.915C307.115 192.915 312.377 201.184 314.035 207.38L352.149 197.182C352.149 197.182 359.232 191.636 357.239 183.097C357.239 183.097 347.838 176.075 343.145 164.837C346.041 164.273 349.003 162.888 351.025 159.876C356.354 151.939 348.169 153.067 352.526 148.047C356.887 143.027 360.696 134.965 357.531 131.56C354.365 128.156 360.874 111.665 353.008 112.84L353.009 112.844L353.011 112.843Z" fill="#C5D3DC"/>
<path d="M161.298 237.549L147.157 184.699L145.343 185.184L143.479 178.218L141.618 178.716L138.255 166.146L135.129 166.983L128.273 149.933L130.848 168.128L127.722 168.965L131.085 181.534L129.225 182.032L131.089 188.998L129.275 189.484L143.416 242.334L161.3 237.548L161.298 237.549Z" fill="#AD9F5F"/>
<path d="M177.881 91.4466L218.218 135.916L230.878 76.7806L177.879 91.4472L177.881 91.4466Z" fill="#BFDED5"/>
<path d="M91.6167 134.767C90.7569 137.008 89.0972 138.458 86.6378 139.116C84.1783 139.774 82.0069 139.35 80.1236 137.842C78.2591 136.329 76.9083 134.009 76.0712 130.88C75.234 127.751 75.2454 125.066 76.1053 122.824C76.984 120.578 78.6531 119.125 81.1126 118.467C83.572 117.809 85.734 118.236 87.5984 119.749C89.4818 121.257 90.842 123.575 91.6792 126.704C92.5163 129.832 92.4955 132.52 91.6167 134.767ZM85.7854 135.931C87.2611 135.536 88.2218 134.619 88.6677 133.178C89.1136 131.738 89.0296 129.871 88.4157 127.577C87.8018 125.283 86.9421 123.623 85.8366 122.598C84.7312 121.573 83.4406 121.258 81.965 121.653C80.5082 122.043 79.5474 122.96 79.0826 124.405C78.6368 125.845 78.7208 127.712 79.3347 130.007C79.9486 132.301 80.8083 133.961 81.9137 134.986C83.0381 136.006 84.3287 136.321 85.7854 135.931Z" fill="#34435B"/>
<path d="M73.7417 139.55C72.8819 141.791 71.2222 143.241 68.7628 143.899C66.3033 144.557 64.1319 144.133 62.2486 142.625C60.3841 141.112 59.0333 138.792 58.1962 135.663C57.359 132.534 57.3704 129.849 58.2303 127.607C59.109 125.361 60.7781 123.908 63.2376 123.25C65.697 122.592 67.859 123.019 69.7234 124.532C71.6068 126.04 72.967 128.358 73.8042 131.487C74.6413 134.615 74.6205 137.303 73.7417 139.55ZM67.9104 140.714C69.3861 140.319 70.3468 139.401 70.7927 137.961C71.2386 136.521 71.1546 134.654 70.5407 132.36C69.9268 130.066 69.0671 128.406 67.9616 127.381C66.8562 126.356 65.5656 126.041 64.09 126.436C62.6332 126.826 61.6724 127.743 61.2076 129.188C60.7618 130.628 60.8458 132.495 61.4597 134.79C62.0736 137.084 62.9333 138.744 64.0387 139.769C65.1631 140.789 66.4537 141.104 67.9104 140.714Z" fill="#34435B"/>
<path d="M49.4306 127.341L52.2684 126.582L57.5957 146.491L54.3322 147.365L49.941 130.953L46.2441 133.162L44.7037 130.587L49.4306 127.341Z" fill="#34435B"/>
<path d="M392.656 183.825C391.796 186.067 390.136 187.516 387.677 188.174C385.217 188.833 383.046 188.408 381.163 186.9C379.298 185.387 377.947 183.067 377.11 179.938C376.273 176.809 376.284 174.124 377.144 171.883C378.023 169.636 379.692 168.183 382.152 167.525C384.611 166.867 386.773 167.295 388.637 168.807C390.521 170.315 391.881 172.633 392.718 175.762C393.555 178.89 393.535 181.578 392.656 183.825ZM386.824 184.989C388.3 184.594 389.261 183.677 389.707 182.237C390.153 180.797 390.069 178.929 389.455 176.635C388.841 174.341 387.981 172.681 386.876 171.656C385.77 170.631 384.48 170.316 383.004 170.711C381.547 171.101 380.587 172.018 380.122 173.463C379.676 174.903 379.76 176.771 380.374 179.065C380.988 181.359 381.847 183.019 382.953 184.044C384.077 185.064 385.368 185.379 386.824 184.989Z" fill="#34435B"/>
<path d="M374.781 188.608C373.921 190.849 372.261 192.299 369.802 192.957C367.342 193.616 365.171 193.191 363.288 191.683C361.423 190.17 360.072 187.85 359.235 184.721C358.398 181.592 358.409 178.907 359.269 176.666C360.148 174.419 361.817 172.966 364.277 172.308C366.736 171.65 368.898 172.078 370.762 173.59C372.646 175.098 374.006 177.416 374.843 180.545C375.68 183.673 375.66 186.361 374.781 188.608ZM368.949 189.772C370.425 189.377 371.386 188.46 371.832 187.02C372.278 185.579 372.194 183.712 371.58 181.418C370.966 179.124 370.106 177.464 369.001 176.439C367.895 175.414 366.605 175.099 365.129 175.494C363.672 175.884 362.712 176.801 362.247 178.246C361.801 179.686 361.885 181.553 362.499 183.848C363.113 186.142 363.972 187.802 365.078 188.827C366.202 189.847 367.493 190.162 368.949 189.772Z" fill="#34435B"/>
<path d="M350.47 176.399L353.307 175.64L358.635 195.549L355.371 196.423L350.98 180.012L347.283 182.22L345.743 179.645L350.47 176.399Z" fill="#34435B"/>
<path d="M82.8113 226.378L89.5094 228.432L91.6539 226.168L81.9585 223.091L82.8132 226.375L82.8145 226.38L82.8113 226.378Z" fill="url(#paint6_linear_195_12770)"/>
<path d="M86.9417 242.275L95.4222 232.633L98.5966 233.64L87.8045 245.559L86.9485 242.27L86.9424 242.277L86.9417 242.275Z" fill="url(#paint7_linear_195_12770)"/>
<path d="M83.355 228.479L77.4683 236.091L86.2673 239.672L97.0593 227.753L93.8849 226.746L90.3023 230.827L83.355 228.479ZM85.4126 236.388L81.6741 234.936L84.1997 231.726L88.3931 233.005L85.4132 236.391L85.4126 236.388Z" fill="url(#paint8_linear_195_12770)"/>
<path d="M80.8544 217.629L80.1637 214.977C79.9963 214.331 79.97 213.821 80.0891 213.443C80.2038 213.057 80.4891 212.808 80.9444 212.681C81.1601 212.623 81.3673 212.623 81.5663 212.674C81.7597 212.724 81.9375 212.825 82.102 212.968C82.2665 213.111 82.4114 213.291 82.5355 213.513C82.6596 213.736 82.7519 213.981 82.8258 214.257L83.3019 216.086L84.4621 215.771L84.6761 216.59L80.8553 217.642L80.8519 217.63L80.8544 217.629ZM82.0217 214.467C81.9964 214.372 81.9628 214.266 81.9145 214.146C81.8648 214.021 81.8021 213.907 81.7288 213.804C81.6542 213.696 81.5674 213.612 81.4651 213.552C81.3629 213.491 81.2537 213.475 81.1308 213.508C81.0505 213.529 80.9888 213.57 80.9487 213.631C80.9042 213.686 80.8762 213.752 80.8654 213.832C80.8489 213.911 80.8463 213.992 80.8552 214.085C80.8571 214.173 80.8722 214.26 80.893 214.347C80.9068 214.429 80.9231 214.51 80.9443 214.579L80.9929 214.761L81.4689 216.59L82.5124 216.3L82.0363 214.471L82.0236 214.463L82.0217 214.467ZM81.4967 212.213C81.158 212.303 80.8504 212.319 80.5681 212.259C80.2838 212.191 80.0331 212.058 79.8099 211.856C79.5796 211.649 79.3843 211.381 79.2163 211.045C79.0484 210.708 78.9067 210.32 78.7851 209.875C78.6659 209.43 78.5902 208.986 78.5594 208.6C78.5261 208.214 78.5601 207.869 78.6458 207.566C78.7321 207.266 78.8838 207.009 79.0999 206.802C79.3103 206.594 79.5977 206.442 79.9627 206.339C80.3038 206.248 80.6147 206.234 80.8921 206.307C81.1695 206.379 81.4128 206.524 81.6419 206.738C81.8578 206.952 82.0528 207.238 82.2209 207.585C82.389 207.932 82.5309 208.342 82.6497 208.806C82.771 209.27 82.8334 209.664 82.8527 210.037C82.8733 210.415 82.8334 210.749 82.7495 211.038C82.6574 211.326 82.5123 211.568 82.303 211.77C82.0925 211.968 81.8188 212.111 81.4865 212.205L81.4992 212.212L81.4967 212.213ZM81.2877 211.392C81.4482 211.349 81.5801 211.279 81.6761 211.176C81.7717 211.081 81.8513 210.966 81.9054 210.837C81.9608 210.702 81.9902 210.561 82.0024 210.406C82.0158 210.245 82.0148 210.091 82.0119 209.929C82.0007 209.766 81.9776 209.61 81.9471 209.456C81.9158 209.299 81.8854 209.155 81.8501 209.023C81.8148 208.891 81.7705 208.746 81.7236 208.59C81.676 208.432 81.6146 208.283 81.5412 208.13C81.4685 207.979 81.389 207.832 81.2982 207.694C81.2067 207.553 81.1087 207.438 80.996 207.348C80.8838 207.25 80.7588 207.185 80.6254 207.148C80.4875 207.105 80.3391 207.113 80.1785 207.156C80.018 207.199 79.8993 207.268 79.8021 207.377C79.7003 207.479 79.6221 207.598 79.5738 207.739C79.5198 207.879 79.483 208.033 79.4634 208.201C79.4438 208.368 79.4424 208.534 79.4487 208.708C79.4587 208.876 79.4769 209.045 79.5001 209.212C79.5302 209.374 79.5606 209.518 79.5922 209.656C79.6238 209.795 79.6723 209.926 79.7211 210.078C79.7761 210.223 79.8356 210.375 79.91 210.513C79.9825 210.653 80.0683 210.793 80.1614 210.92C80.2545 211.047 80.3524 211.151 80.472 211.237C80.5834 211.321 80.7107 211.375 80.8416 211.412C80.975 211.449 81.1152 211.44 81.2701 211.396L81.2952 211.39L81.2877 211.392ZM78.1416 207.189L77.8907 206.211L80.1911 203.817L77.1927 202.759L79.2483 200.244L76.1083 199.359L75.8582 198.394L80.2929 199.687L80.4184 200.176L78.6471 202.367L81.2251 203.271L81.3506 203.76L78.1455 207.193L78.1442 207.188L78.1416 207.189ZM75.7656 198.048L74.7034 193.968L75.4636 193.765L76.3104 197.02L76.8121 196.886L76.0214 193.85L76.7751 193.643L77.5652 196.676L78.6144 196.387L77.7668 193.13L78.5269 192.926L79.5878 197.001L75.767 198.053L75.7656 198.048ZM77.5059 188.95L76.6013 190.261L77.0455 191.971L78.2006 191.656L78.4146 192.476L74.5938 193.528L73.903 190.876C73.7356 190.23 73.7093 189.72 73.8285 189.342C73.9432 188.956 74.2285 188.707 74.6837 188.58C74.8393 188.538 74.9914 188.524 75.1359 188.541C75.2803 188.559 75.4193 188.596 75.5525 188.662C75.6832 188.728 75.8016 188.819 75.9121 188.931C76.022 189.04 76.1278 189.174 76.2181 189.321L77.219 187.877L77.4977 188.949L77.5027 188.948L77.5059 188.95ZM75.7623 190.36C75.737 190.265 75.7033 190.16 75.655 190.039C75.6053 189.914 75.5426 189.8 75.4693 189.697C75.389 189.588 75.2997 189.505 75.2057 189.445C75.1034 189.384 74.9943 189.368 74.8713 189.401C74.7911 189.423 74.7293 189.463 74.6893 189.525C74.6447 189.579 74.6167 189.645 74.6059 189.726C74.5895 189.805 74.5869 189.885 74.5958 189.979C74.5977 190.066 74.6128 190.153 74.6336 190.241C74.6474 190.322 74.6636 190.403 74.6848 190.472L74.7334 190.654L75.2095 192.483L76.2586 192.195L75.7825 190.365L75.7648 190.359L75.7623 190.36ZM72.8979 186.999L72.647 186.021L74.9474 183.627L71.949 182.569L74.0046 180.054L70.8646 179.169L70.6145 178.204L75.0492 179.497L75.1747 179.986L73.4033 182.177L75.9814 183.081L76.1069 183.57L72.9018 187.004L72.9004 186.999L72.8979 186.999ZM70.3114 177.061L74.1461 176.011L74.3596 176.839L70.5249 177.889L70.3114 177.061ZM70.176 176.535L69.9625 175.707L71.8371 171.572L69.0823 172.327L68.8683 171.507L72.6891 170.456L72.9031 171.276L70.9721 175.432L73.7814 174.659L73.9955 175.478L70.1746 176.53L70.176 176.535Z" fill="black"/>
<path d="M270.612 193.543L274.341 192.545L280.43 215.299L276.7 216.296L274.065 206.447L264.335 209.051L266.97 218.9L263.241 219.898L257.152 197.144L260.882 196.146L263.378 205.475L273.108 202.872L270.612 193.543Z" fill="#34435B"/>
<path d="M252.257 223.29C250.073 223.874 248.08 223.874 246.278 223.287C244.498 222.696 243.073 221.614 242.004 220.042L244.71 217.298C246.303 219.612 248.526 220.387 251.38 219.623C252.785 219.247 253.761 218.696 254.308 217.969C254.871 217.215 255.034 216.393 254.796 215.505C254.547 214.573 253.98 213.97 253.095 213.696C252.205 213.4 250.72 213.217 248.639 213.146C247.471 213.111 246.514 213.042 245.768 212.939C245.023 212.837 244.205 212.638 243.315 212.342C242.44 212.018 241.718 211.527 241.148 210.867C240.577 210.206 240.156 209.367 239.883 208.349C239.344 206.333 239.631 204.55 240.745 202.998C241.853 201.424 243.413 200.368 245.423 199.83C247.24 199.344 248.948 199.363 250.547 199.887C252.147 200.411 253.524 201.355 254.676 202.718L252.017 205.38C250.498 203.511 248.624 202.875 246.397 203.471C245.316 203.76 244.521 204.251 244.012 204.945C243.496 205.617 243.355 206.386 243.587 207.253C243.813 208.098 244.317 208.683 245.099 209.008C245.897 209.306 247.233 209.494 249.108 209.573C250.048 209.623 250.733 209.672 251.163 209.719C251.608 209.74 252.228 209.806 253.023 209.918C253.839 210.025 254.472 210.181 254.921 210.386C255.369 210.591 255.86 210.866 256.393 211.211C256.947 211.55 257.389 211.99 257.718 212.528C258.048 213.067 258.311 213.705 258.508 214.442C259.059 216.5 258.751 218.336 257.584 219.949C256.432 221.534 254.657 222.648 252.257 223.29Z" fill="#34435B"/>
<path d="M238.695 226.466L235.879 222.308L226.214 224.894L225.851 229.903L221.797 230.987L223.947 206.029L228.422 204.832L242.716 225.39L238.695 226.466ZM226.507 221.054L233.707 219.127L227.359 209.819L226.507 221.054Z" fill="#34435B"/>
<path d="M211.316 234.245C207.899 235.159 204.765 234.79 201.914 233.138C199.056 231.464 197.181 228.959 196.288 225.622C195.395 222.284 195.771 219.188 197.417 216.333C199.057 213.456 201.585 211.56 205.001 210.646C207.055 210.096 209.077 210.078 211.068 210.59C213.08 211.096 214.796 212.054 216.216 213.462L213.477 216.215C212.57 215.25 211.446 214.599 210.104 214.261C208.779 213.896 207.402 213.905 205.975 214.286C203.554 214.934 201.792 216.23 200.69 218.174C199.61 220.112 199.386 222.261 200.018 224.624C200.65 226.986 201.918 228.736 203.821 229.876C205.746 231.009 207.92 231.252 210.341 230.604C211.768 230.222 212.979 229.55 213.972 228.588C214.96 227.603 215.595 226.47 215.877 225.187L219.616 226.172C219.112 228.095 218.117 229.789 216.632 231.255C215.163 232.693 213.391 233.689 211.316 234.245Z" fill="#34435B"/>
<path d="M239.989 140.952L234.716 158.279L240.562 163.832L248.466 138.749L240.005 140.952L239.989 140.952Z" fill="url(#paint9_linear_195_12770)"/>
<path d="M199.03 151.593L223.907 173.565L221.321 181.777L190.566 153.812L199.045 151.609L199.03 151.593Z" fill="url(#paint10_linear_195_12770)"/>
<path d="M234.581 142.349L214.94 127.094L205.737 149.851L236.49 177.816L239.076 169.604L228.546 160.318L234.579 142.349L234.581 142.349ZM214.199 147.648L217.931 137.98L226.218 144.525L222.934 155.371L214.199 147.648Z" fill="url(#paint11_linear_195_12770)"/>
<path d="M95.4683 274.33L107.184 271.195L108.21 275.028L89.7746 279.961L88.7488 276.127L91.5055 275.39L89.953 269.588L87.7131 270.187L86.7798 266.699L89.0196 266.099L87.9292 262.024C87.2884 259.629 87.5338 257.602 88.6652 255.943C89.7904 254.26 91.3524 253.151 93.351 252.616C95.051 252.161 96.6352 252.194 98.1037 252.714C99.5722 253.234 100.823 254.182 101.856 255.559L98.9965 258.396C97.8066 256.618 96.3043 255.971 94.4894 256.457C93.4786 256.727 92.7118 257.265 92.1889 258.071C91.6891 258.871 91.6024 259.882 91.9289 261.102L92.9824 265.039L100.322 263.075L101.256 266.563L93.9158 268.527L95.4683 274.33Z" fill="#34435B"/>
<path d="M156.665 108.427L162.488 106.908C163.906 106.539 165.026 106.479 165.861 106.741C166.709 106.989 167.256 107.613 167.529 108.609C167.66 109.081 167.655 109.533 167.544 109.97C167.431 110.392 167.211 110.782 166.897 111.142C166.583 111.503 166.188 111.82 165.701 112.094C165.213 112.366 164.673 112.571 164.067 112.733L160.046 113.781L160.735 116.316L158.931 116.788L156.636 108.441L156.664 108.429L156.665 108.427ZM163.607 110.967C163.813 110.909 164.048 110.838 164.312 110.728C164.589 110.619 164.839 110.483 165.065 110.32C165.304 110.156 165.489 109.965 165.619 109.743C165.751 109.522 165.787 109.284 165.717 109.013C165.67 108.839 165.579 108.702 165.448 108.615C165.328 108.517 165.182 108.458 165.005 108.438C164.829 108.404 164.653 108.397 164.447 108.415C164.255 108.42 164.064 108.452 163.872 108.497C163.693 108.529 163.515 108.562 163.363 108.609L162.962 108.712L158.942 109.759L159.573 112.037L163.594 110.99L163.609 110.964L163.607 110.967ZM168.559 109.812C168.356 109.071 168.329 108.401 168.463 107.782C168.61 107.162 168.905 106.615 169.347 106.126C169.804 105.625 170.393 105.195 171.13 104.826C171.868 104.457 172.725 104.145 173.703 103.879C174.681 103.613 175.655 103.452 176.502 103.382C177.35 103.31 178.11 103.381 178.77 103.57C179.431 103.757 179.99 104.086 180.447 104.558C180.906 105.017 181.235 105.645 181.461 106.44C181.663 107.18 181.69 107.864 181.53 108.47C181.369 109.077 181.049 109.609 180.579 110.111C180.111 110.585 179.48 111.013 178.716 111.38C177.952 111.748 177.054 112.058 176.036 112.322C175.016 112.586 174.154 112.723 173.334 112.77C172.502 112.817 171.769 112.732 171.137 112.546C170.504 112.348 169.972 112.031 169.528 111.573C169.097 111.115 168.78 110.515 168.576 109.787L168.562 109.813L168.559 109.812ZM170.361 109.353C170.455 109.705 170.607 109.991 170.83 110.199C171.041 110.408 171.292 110.578 171.574 110.696C171.869 110.816 172.179 110.881 172.519 110.909C172.872 110.937 173.213 110.937 173.569 110.927C173.925 110.901 174.267 110.849 174.61 110.783C174.953 110.718 175.269 110.65 175.558 110.569C175.847 110.487 176.165 110.393 176.51 110.288C176.856 110.182 177.187 110.05 177.52 109.889C177.853 109.73 178.174 109.555 178.481 109.356C178.788 109.156 179.043 108.94 179.242 108.695C179.457 108.45 179.603 108.176 179.684 107.886C179.779 107.582 179.763 107.262 179.669 106.913C179.575 106.561 179.421 106.302 179.185 106.093C178.962 105.87 178.697 105.699 178.387 105.595C178.079 105.475 177.741 105.396 177.375 105.354C177.01 105.312 176.641 105.311 176.259 105.322C175.89 105.346 175.52 105.385 175.151 105.435C174.795 105.5 174.478 105.567 174.175 105.635C173.872 105.704 173.582 105.812 173.251 105.917C172.934 106.037 172.6 106.17 172.295 106.33C171.989 106.491 171.682 106.677 171.402 106.88C171.121 107.082 170.895 107.299 170.708 107.558C170.522 107.804 170.402 108.078 170.321 108.369C170.242 108.658 170.257 108.965 170.352 109.304L170.366 109.356L170.361 109.353ZM179.601 102.47L181.75 101.919L186.998 106.935L189.331 100.378L194.846 104.859L196.797 97.9932L198.917 97.4411L196.063 107.135L194.99 107.411L190.185 103.546L188.188 109.184L187.115 109.46L179.588 102.469L179.601 102.47ZM199.688 97.2457L208.651 94.9106L209.101 96.5688L201.943 98.4319L202.239 99.5238L208.904 97.7864L209.355 99.4313L202.69 101.169L203.321 103.46L210.479 101.597L210.929 103.255L201.967 105.592L199.673 97.2455L199.686 97.2463L199.688 97.2457ZM219.66 101.017L216.782 99.0461L213.023 100.024L213.713 102.545L211.908 103.017L209.614 94.6703L215.437 93.1513C216.855 92.7829 217.975 92.7227 218.81 92.9849C219.658 93.2325 220.205 93.8568 220.479 94.8547C220.573 95.1929 220.602 95.527 220.561 95.8449C220.52 96.1628 220.441 96.4671 220.294 96.7545C220.147 97.042 219.945 97.3008 219.704 97.5438C219.462 97.7869 219.167 98.014 218.845 98.2155L222.015 100.4L219.66 101.01L219.66 101.024L219.66 101.017ZM216.569 97.2113C216.776 97.1539 217.011 97.0823 217.274 96.9725C217.552 96.8636 217.802 96.7269 218.027 96.5642C218.267 96.387 218.45 96.1963 218.581 95.9872C218.713 95.7668 218.75 95.5285 218.679 95.2577C218.633 95.083 218.542 94.9462 218.41 94.8596C218.29 94.761 218.144 94.7021 217.967 94.682C217.791 94.6486 217.615 94.6412 217.409 94.6593C217.217 94.6649 217.026 94.6965 216.834 94.7414C216.656 94.7738 216.478 94.8062 216.325 94.8536L215.925 94.9563L211.904 96.0038L212.535 98.2952L216.555 97.2477L216.571 97.2087L216.569 97.2113ZM223.959 90.9431L226.107 90.3922L231.355 95.4081L233.688 88.8513L239.203 93.332L241.154 86.4661L243.274 85.914L240.421 95.6079L239.348 95.8841L234.542 92.0189L232.545 97.6564L231.472 97.9326L223.945 90.9423L223.959 90.9431ZM245.795 85.2592L248.089 93.6321L246.271 94.1033L243.977 85.7304L245.795 85.2592ZM246.951 84.9608L248.769 84.4896L257.844 88.5708L256.191 82.5559L257.995 82.0839L260.29 90.4308L258.485 90.9028L249.362 86.6994L251.052 92.8351L249.247 93.3071L246.953 84.9602L246.951 84.9608Z" fill="black"/>
</g>
<g clip-path="url(#clip2_195_12770)">
<path d="M321.52 0.0917099L0.792969 140.214L73.2014 305.95L393.928 165.828L321.52 0.0917099Z" fill="#ECECEC"/>
<path d="M70.1534 109.911L73.8513 118.375C73.8513 118.375 65.0255 123.321 69.3743 133.275L79.4054 156.236L117.266 139.695L107.191 116.634C107.191 116.634 103.008 105.518 92.9704 109.903L89.2144 101.584L70.1534 109.911Z" fill="#B1B1B1"/>
<path d="M112.022 102.897L294.146 23.3288L309.635 33.832L322.773 28.0919L379.32 157.522L174.905 246.829C174.905 246.829 165.612 228.573 173.036 220.654C180.46 212.736 163.918 201.267 163.918 201.267C163.918 201.267 169.01 192.162 162.389 177.007C155.768 161.852 145.077 160.81 145.077 160.81C145.077 160.81 150.8 144.547 141.87 141.309C132.94 138.07 124.742 133.082 120.71 122.898C116.678 112.716 112.022 102.897 112.022 102.897Z" fill="#80BCC9"/>
<path d="M270.76 184.755L311.184 167.094L292.491 124.307L353.208 97.7811L322.73 28.0208L237.335 65.3289L241.685 75.2839L225.939 82.163L270.76 184.755Z" fill="#405D7C"/>
<path d="M213.242 47.3972L212.28 59.0951L294.146 23.3287L295.083 11.6416L213.242 47.3972Z" fill="#5299CE"/>
<path d="M287.785 197.513L288.074 212.075L369.94 176.309L369.626 161.758L287.785 197.513Z" fill="#5299CE"/>
<path d="M70.814 162.224L31.623 179.346L32.4397 181.215L71.6307 164.093L70.814 162.224Z" fill="#34435B"/>
<path d="M72.5113 166.107L33.3203 183.229L34.137 185.098L73.328 167.976L72.5113 166.107Z" fill="#34435B"/>
<path d="M130.773 221.465C125.61 223.72 119.838 221.45 116.095 220.075C112.352 218.699 104.916 220.442 104.916 220.442L103.56 217.339C103.56 217.339 93.3844 215.625 90.371 208.728C87.3576 201.83 94.6903 193.289 94.6903 193.289L93.6353 190.874C93.6353 190.874 97.8942 188.74 100.668 183.831C103.443 178.924 109.629 173.072 109.629 173.072C109.629 173.072 118.125 172.509 123.611 173.807C129.098 175.108 133.557 173.433 133.557 173.433L134.612 175.847C134.612 175.847 145.862 176.273 148.875 183.168C151.887 190.063 146.234 198.696 146.234 198.696L147.589 201.798C147.589 201.798 141.26 206.069 139.724 209.751C138.191 213.432 135.934 219.21 130.771 221.466L130.773 221.465Z" fill="#272731"/>
<path d="M134.11 229.102C127.216 232.114 119.71 229.346 114.744 227.513L114.266 227.336C109.847 225.712 100.656 227.831 100.565 227.853L99.5594 228.088L97.6582 223.736C94.8226 223.137 84.027 220.351 80.3948 212.037C76.7626 203.723 83.6702 193.967 85.6592 191.439L84.131 187.941L85.1825 187.413C85.2336 187.388 90.3935 184.728 93.726 178.833C97.3511 172.419 105.173 164.987 105.503 164.673L105.827 164.366L106.272 164.337C106.728 164.306 117.495 163.618 124.666 165.316C131.256 166.878 136.715 164.897 136.768 164.876L137.867 164.467L139.394 167.961C142.602 168.218 154.433 169.733 158.086 178.093C161.738 186.453 156.429 196.219 154.94 198.708L156.841 203.06L155.986 203.638C155.908 203.69 148.108 208.993 146.297 213.34L146.102 213.808C144.07 218.698 141.003 226.086 134.108 229.098L134.106 229.099L134.11 229.102ZM101.01 225.219C103.677 224.682 110.913 223.461 115.117 225.007L115.597 225.184C120.192 226.879 127.133 229.439 133.115 226.826C139.097 224.213 141.936 217.377 143.814 212.855L144.009 212.384C145.731 208.249 151.544 203.77 153.749 202.178L152.139 198.491L152.507 197.928C152.575 197.823 159.379 187.249 155.815 179.089C152.25 170.93 138.655 170.402 138.518 170.397L137.741 170.368L136.513 167.558C134.422 168.127 129.668 169.054 124.1 167.737C118.088 166.313 108.997 166.684 106.89 166.794C105.378 168.265 98.9288 174.683 95.8886 180.062C93.0726 185.042 89.1631 187.902 87.3234 189.048L88.5502 191.856L88.0435 192.447C87.9545 192.552 79.1468 202.98 82.6695 211.043C86.1923 219.107 98.614 221.396 98.7379 221.417L99.4006 221.529L101.011 225.216L101.01 225.219Z" fill="#272731"/>
<path d="M135.634 152.848C135.634 152.848 141.062 159.763 132.783 162.019C124.502 164.276 114.568 153.969 112.588 158.033C112.588 158.033 111.079 156.771 112.567 155.24C114.055 153.709 116.306 153.797 121.163 157.727C121.163 157.727 117.735 152.262 119.873 150.205C122.012 148.151 123.622 148.728 124.561 150.879C124.561 150.879 121.799 150.406 121.402 152.42C121.004 154.434 123.25 160.178 126.387 160.567C126.387 160.567 123.234 154.419 127.93 152.368C132.626 150.316 131.911 155.992 131.911 155.992C131.911 155.992 129.511 154.158 128.088 156.382C126.664 158.606 128.161 162.032 131.222 161.177C134.283 160.321 137.982 158.783 135.638 152.845L135.634 152.848Z" fill="#272731"/>
<path d="M77.3639 178.305C77.3639 178.305 78.7496 186.986 86.0301 182.444C93.3125 177.901 92.5 163.61 96.8252 164.919C96.8252 164.919 96.9242 162.955 94.7915 163.006C92.6569 163.057 91.1927 164.768 90.7767 171.002C90.7767 171.002 89.0952 164.774 86.1338 164.945C83.1733 165.119 82.5028 166.692 83.4425 168.843C83.4425 168.843 84.972 166.495 86.7202 167.571C88.4684 168.648 91.1565 174.198 89.3103 176.765C89.3103 176.765 86.9417 170.275 82.2462 172.326C77.5507 174.377 82.2026 177.708 82.2026 177.708C82.2026 177.708 82.4872 174.702 85.0862 175.168C87.6851 175.635 89.1821 179.061 86.4747 180.726C83.7673 182.391 80.1253 184.06 77.3612 178.304L77.3639 178.305Z" fill="#272731"/>
<path d="M104.752 240.992C104.752 240.992 99.3246 234.078 107.604 231.822C115.885 229.565 125.82 239.873 127.797 235.808C127.797 235.808 129.305 237.07 127.819 238.6C126.331 240.132 124.081 240.043 119.224 236.113C119.224 236.113 122.652 241.579 120.514 243.635C118.375 245.689 116.765 245.112 115.825 242.961C115.825 242.961 118.587 243.435 118.985 241.42C119.383 239.406 117.137 233.663 113.999 233.273C113.999 233.273 117.152 239.421 112.457 241.473C107.761 243.524 108.478 237.847 108.478 237.847C108.478 237.847 110.877 239.682 112.301 237.458C113.724 235.234 112.227 231.807 109.166 232.663C106.106 233.52 102.406 235.056 104.751 240.995L104.752 240.992Z" fill="#272731"/>
<path d="M163.021 215.535C163.021 215.535 161.635 206.855 154.355 211.396C147.072 215.939 147.885 230.233 143.557 228.922C143.557 228.922 143.458 230.886 145.593 230.835C147.728 230.783 149.192 229.072 149.608 222.838C149.608 222.838 151.289 229.067 154.251 228.895C157.211 228.722 157.882 227.148 156.942 224.998C156.942 224.998 155.413 227.346 153.664 226.269C151.916 225.192 149.228 219.642 151.074 217.075C151.074 217.075 153.443 223.566 158.138 221.514C162.834 219.463 158.184 216.131 158.184 216.131C158.184 216.131 157.899 219.138 155.3 218.671C152.701 218.205 151.204 214.778 153.912 213.114C156.62 211.451 160.261 209.78 163.025 215.535L163.021 215.535Z" fill="#272731"/>
<path d="M98.1764 119.652C93.4358 119.504 90.3604 125.038 90.3604 125.038L89.336 124.664L88.6127 123.008C88.6127 123.008 89.5416 121.288 88.6374 119.218C87.7331 117.148 85.5435 119.83 85.5435 119.83C85.5435 119.83 82.0877 119.614 82.9919 121.684C83.8962 123.754 85.7919 124.241 85.7919 124.241L86.5152 125.896L86.0936 126.902C86.0936 126.902 79.9414 125.399 76.8292 128.978C73.717 132.557 78.1924 137.916 81.5627 139.813C84.933 141.709 86.3292 144.716 86.3292 144.716L103.273 137.314C103.273 137.314 102.015 134.246 102.914 130.485C103.812 126.723 102.92 119.796 98.1802 119.65L98.1783 119.651L98.1764 119.652Z" fill="#272731"/>
<path d="M318.584 85.1195C314.035 86.5197 312.605 82.9442 310.755 80.4754L312.766 74.2749C312.884 73.9112 312.88 73.5203 312.755 73.1597L310.164 65.7518C309.849 64.8475 308.862 64.3653 307.955 64.6742L307.841 64.7125C306.821 65.0597 305.731 64.4045 305.558 63.3372L305.325 61.8922C305.164 60.9018 304.204 60.2497 303.227 60.4655L301.859 60.7672C300.998 60.9572 300.132 60.4728 299.839 59.6412L298.344 55.3948C297.975 54.3511 296.744 53.9088 295.799 54.4803L291.886 56.846C290.915 57.4331 289.65 56.9484 289.316 55.8595L288.883 54.4378C288.563 53.391 287.369 52.8913 286.402 53.4033L285.414 53.9245C284.359 54.4818 283.066 53.8328 282.879 52.6499L282.375 49.4527C282.167 48.137 280.62 47.5274 279.576 48.3507L276.024 51.1486C275.176 51.8175 273.929 51.5569 273.415 50.6063L272.72 49.3195C272.178 48.3194 270.843 48.0947 270.009 48.8632L268.824 49.9521C268.011 50.7 266.717 50.5103 266.148 49.5606L263.966 45.9012C263.221 44.6523 261.366 44.8087 260.845 46.1651L259.171 50.5184C258.75 51.6108 257.397 51.9839 256.474 51.2649L255.791 50.7281C254.919 50.0486 253.647 50.3383 253.158 51.3274L252.359 52.9412C251.88 53.9148 250.637 54.2145 249.763 53.5679L244.464 49.6454C243.406 48.8638 241.897 49.4885 241.706 50.7907L240.703 57.6298C240.54 58.7405 239.386 59.4074 238.344 58.9976L238.084 58.8954C237.058 58.4921 235.924 59.1299 235.733 60.2165L235.454 61.8069C235.261 62.9151 234.084 63.5507 233.051 63.1046L231.348 62.3709C230.265 61.9053 229.042 62.6279 228.927 63.8004L228.686 66.2533C228.587 67.2582 227.66 67.9709 226.664 67.7998C225.358 67.5766 224.293 68.8384 224.728 70.0917L225.051 71.02C225.397 72.0164 224.791 73.0868 223.76 73.3008L222.878 73.484C221.794 73.7074 221.195 74.8733 221.639 75.8889L227.518 89.3444C223.882 92.3168 220.805 96.0822 224.981 101.778C231.901 111.222 219.841 106.544 227.154 119.178C234.466 131.812 228.267 140.648 245.56 136.402C246.157 138.943 246.583 141.516 248.161 144.597C251.03 150.206 256.882 160.398 264.998 165.537C273.112 170.676 279.184 173.692 285.208 171.166C285.208 171.166 291.65 178.552 294.218 184.43L330.373 168.635C330.373 168.635 336.545 162.09 333.294 153.946C333.294 153.946 322.946 148.413 316.622 138.005C319.402 137.013 322.122 135.2 323.67 131.919C327.749 123.273 319.826 125.614 323.381 119.999C326.94 114.382 329.498 105.84 325.858 102.948C322.218 100.056 326.182 82.7758 318.581 85.1165L318.582 85.1204L318.584 85.1195Z" fill="#C5D3DC"/>
<path d="M147.726 237.15L125.824 187.017L124.103 187.769L121.216 181.16L119.45 181.932L114.241 170.008L111.276 171.304L101.943 155.474L107.215 173.078L104.25 174.373L109.459 186.297L107.694 187.068L110.581 193.676L108.86 194.428L130.763 244.561L147.728 237.149L147.726 237.15Z" fill="#AD9F5F"/>
<path d="M142.225 90.2131L188.771 128.134L192.425 67.7695L142.223 90.2139L142.225 90.2131Z" fill="#BFDED5"/>
<path d="M63.4286 145.973C62.9144 148.319 61.4908 150.001 59.1578 151.02C56.8248 152.04 54.6142 151.945 52.5262 150.737C50.4561 149.52 48.7727 147.428 47.4761 144.461C46.1795 141.493 45.7883 138.836 46.3024 136.491C46.8345 134.138 48.2671 132.452 50.6001 131.433C52.9332 130.413 55.1347 130.512 57.2048 131.728C59.2929 132.936 60.9852 135.024 62.2818 137.992C63.5785 140.96 63.9607 143.62 63.4286 145.973ZM57.8376 147.998C59.2374 147.387 60.0498 146.336 60.2749 144.845C60.4999 143.355 60.1369 141.521 59.1861 139.345C58.2352 137.168 57.1365 135.656 55.8899 134.808C54.6433 133.961 53.3201 133.843 51.9203 134.454C50.5385 135.058 49.726 136.109 49.4831 137.608C49.2581 139.098 49.621 140.932 50.5718 143.108C51.5227 145.285 52.6214 146.797 53.868 147.644C55.1325 148.484 56.4557 148.602 57.8376 147.998Z" fill="#34435B"/>
<path d="M46.4716 153.381C45.9574 155.727 44.5338 157.409 42.2008 158.428C39.8677 159.447 37.6572 159.353 35.5692 158.145C33.499 156.928 31.8157 154.836 30.5191 151.869C29.2225 148.901 28.8312 146.244 29.3454 143.899C29.8775 141.546 31.3101 139.86 33.6431 138.84C35.9761 137.821 38.1777 137.92 40.2478 139.136C42.3359 140.344 44.0282 142.432 45.3248 145.4C46.6214 148.368 47.0037 151.028 46.4716 153.381ZM40.8806 155.406C42.2804 154.795 43.0928 153.744 43.3178 152.253C43.5428 150.763 43.1799 148.929 42.2291 146.753C41.2782 144.576 40.1795 143.064 38.9329 142.216C37.6863 141.369 36.3631 141.251 34.9633 141.862C33.5814 142.466 32.769 143.517 32.5261 145.016C32.301 146.506 32.664 148.34 33.6148 150.516C34.5657 152.692 35.6644 154.205 36.911 155.052C38.1755 155.892 39.4987 156.01 40.8806 155.406Z" fill="#34435B"/>
<path d="M20.6036 144.955L23.2955 143.779L31.5467 162.665L28.451 164.018L21.6496 148.45L18.3255 151.187L16.4166 148.873L20.6036 144.955Z" fill="#34435B"/>
<path d="M368.419 149.357C367.905 151.703 366.481 153.385 364.148 154.404C361.815 155.423 359.604 155.329 357.516 154.12C355.446 152.904 353.763 150.812 352.466 147.844C351.17 144.877 350.778 142.22 351.293 139.875C351.825 137.522 353.257 135.836 355.59 134.816C357.923 133.797 360.125 133.895 362.195 135.112C364.283 136.32 365.975 138.408 367.272 141.376C368.569 144.344 368.951 147.004 368.419 149.357ZM362.828 151.382C364.228 150.771 365.04 149.72 365.265 148.229C365.49 146.738 365.127 144.905 364.176 142.728C363.225 140.552 362.127 139.04 360.88 138.192C359.634 137.345 358.31 137.227 356.911 137.838C355.529 138.442 354.716 139.493 354.473 140.991C354.248 142.482 354.611 144.315 355.562 146.492C356.513 148.668 357.612 150.18 358.858 151.028C360.123 151.868 361.446 151.986 362.828 151.382Z" fill="#34435B"/>
<path d="M351.462 156.765C350.948 159.11 349.524 160.793 347.191 161.812C344.858 162.831 342.647 162.737 340.559 161.528C338.489 160.312 336.806 158.22 335.509 155.252C334.213 152.285 333.821 149.628 334.336 147.283C334.868 144.93 336.3 143.244 338.633 142.224C340.966 141.205 343.168 141.303 345.238 142.52C347.326 143.728 349.018 145.816 350.315 148.784C351.612 151.752 351.994 154.412 351.462 156.765ZM345.871 158.79C347.271 158.179 348.083 157.128 348.308 155.637C348.533 154.146 348.17 152.313 347.219 150.136C346.268 147.96 345.17 146.448 343.923 145.6C342.677 144.753 341.353 144.634 339.954 145.246C338.572 145.85 337.759 146.901 337.516 148.399C337.291 149.89 337.654 151.723 338.605 153.9C339.556 156.076 340.655 157.588 341.901 158.436C343.166 159.276 344.489 159.394 345.871 158.79Z" fill="#34435B"/>
<path d="M325.594 148.339L328.286 147.163L336.537 166.049L333.441 167.401L326.64 151.834L323.316 154.571L321.407 152.256L325.594 148.339Z" fill="#34435B"/>
<path d="M47.8281 195.542L47.5199 194.883L48.0558 191.349L46.2604 192.188L45.9541 191.533L48.446 190.368L48.7522 191.023L48.1819 194.578L50.0137 193.722L50.32 194.377L47.8281 195.542Z" fill="#A57B31"/>
<path d="M48.0219 195.963L50.5204 194.795L50.8285 195.454L48.3301 196.622L48.0219 195.963Z" fill="#A57B31"/>
<path d="M51.7266 203.881L51.3629 203.103L52.5293 200.961L50.2178 200.335L51.1851 198.111L48.8093 197.64L48.4494 196.87L51.8141 197.572L51.996 197.962L51.1617 199.893L53.1484 200.427L53.3302 200.816L51.7266 203.881Z" fill="#A57B31"/>
<path d="M55.3383 205.103L54.9519 206.247L55.5893 207.61L56.3418 207.259L56.6481 207.914L54.1562 209.079L53.1685 206.965C52.9286 206.452 52.814 206.035 52.8248 205.714C52.8343 205.39 52.9865 205.159 53.2813 205.022C53.3825 204.974 53.4863 204.952 53.5925 204.956C53.6975 204.957 53.803 204.979 53.9091 205.022C54.0131 205.067 54.1152 205.131 54.2156 205.214C54.316 205.296 54.4127 205.394 54.5057 205.507L54.9382 204.247L55.3383 205.103ZM54.3798 206.399C54.3453 206.326 54.299 206.241 54.2408 206.145C54.1813 206.046 54.1155 205.957 54.0435 205.878C53.9681 205.797 53.8897 205.735 53.8085 205.693C53.7272 205.651 53.647 205.649 53.5678 205.686C53.515 205.711 53.4793 205.749 53.4607 205.801C53.4408 205.85 53.4337 205.907 53.4394 205.971C53.4429 206.035 53.4551 206.105 53.476 206.178C53.4957 206.249 53.5203 206.319 53.55 206.388C53.5763 206.456 53.6028 206.518 53.6296 206.575C53.6564 206.633 53.6787 206.68 53.6966 206.719L54.3781 208.177L55.0613 207.857L54.3798 206.399Z" fill="#870122"/>
<path d="M55.8418 212.686L54.3219 209.434L54.817 209.203L56.0306 211.799L56.3573 211.646L55.2279 209.23L55.7197 209L56.8491 211.417L57.5323 211.097L56.3187 208.501L56.8138 208.269L58.3337 211.521L55.8418 212.686Z" fill="#870122"/>
<path d="M59.248 219.97L58.8843 219.192L60.0507 217.05L57.7392 216.424L58.7066 214.2L56.3308 213.729L55.9709 212.959L59.3356 213.662L59.5175 214.051L58.6832 215.983L60.6699 216.516L60.8517 216.905L59.248 219.97Z" fill="#870122"/>
<path d="M62.5624 223.806C62.3424 223.908 62.1278 223.945 61.9187 223.917C61.7083 223.885 61.5055 223.796 61.3102 223.647C61.1114 223.497 60.9204 223.292 60.737 223.032C60.5537 222.772 60.3791 222.464 60.2132 222.109C60.0409 221.741 59.9079 221.399 59.814 221.083C59.7202 220.768 59.6761 220.484 59.6816 220.232C59.6858 219.977 59.7438 219.757 59.8556 219.572C59.9639 219.385 60.1368 219.236 60.3745 219.125C60.5967 219.021 60.8132 218.988 61.0239 219.026C61.2312 219.062 61.4339 219.16 61.6321 219.32C61.8269 219.479 62.0163 219.695 62.2003 219.968C62.3843 220.241 62.5625 220.562 62.7348 220.931C62.9007 221.286 63.0269 221.616 63.1134 221.921C63.1977 222.228 63.2369 222.504 63.2311 222.75C63.2217 222.993 63.1638 223.205 63.0574 223.385C62.9475 223.562 62.7825 223.703 62.5624 223.806ZM62.2562 223.15C62.3596 223.102 62.4377 223.034 62.4904 222.946C62.541 222.859 62.5729 222.761 62.5862 222.652C62.5981 222.54 62.5944 222.42 62.5751 222.293C62.5545 222.163 62.5261 222.033 62.4897 221.903C62.4499 221.772 62.4052 221.645 62.3557 221.522C62.3048 221.396 62.2552 221.281 62.2067 221.177C62.1569 221.071 62.0994 220.956 62.0341 220.834C61.9688 220.711 61.8973 220.59 61.8197 220.47C61.74 220.351 61.6555 220.239 61.5663 220.134C61.4772 220.03 61.3845 219.943 61.2883 219.875C61.1908 219.804 61.0919 219.759 60.9916 219.739C60.8878 219.718 60.7842 219.732 60.6807 219.78C60.5795 219.827 60.5049 219.897 60.4569 219.989C60.4054 220.08 60.3739 220.185 60.3622 220.303C60.3484 220.423 60.352 220.551 60.3729 220.687C60.3917 220.825 60.42 220.963 60.458 221.102C60.496 221.24 60.5406 221.376 60.5918 221.508C60.6417 221.638 60.6915 221.756 60.7413 221.862C60.7898 221.966 60.8471 222.077 60.9133 222.196C60.9783 222.312 61.0505 222.426 61.1299 222.539C61.2081 222.649 61.2927 222.752 61.3837 222.85C61.4712 222.945 61.564 223.023 61.662 223.084C61.7566 223.143 61.8545 223.18 61.9558 223.196C62.0548 223.213 62.155 223.198 62.2562 223.15Z" fill="#870122"/>
<path d="M63.1348 228.284L62.147 226.171C61.9071 225.658 61.7925 225.241 61.8033 224.92C61.8128 224.596 61.965 224.365 62.2598 224.227C62.4007 224.161 62.5463 224.143 62.6968 224.173C62.8439 224.2 62.9884 224.266 63.1305 224.369C63.2726 224.472 63.4086 224.608 63.5384 224.777C63.6661 224.947 63.781 225.141 63.8831 225.36L64.5645 226.817L65.3204 226.464L65.6266 227.119L63.1348 228.284ZM63.355 225.606C63.3205 225.533 63.2742 225.448 63.216 225.352C63.1565 225.253 63.0907 225.164 63.0187 225.085C62.9455 225.003 62.8682 224.941 62.787 224.899C62.7058 224.857 62.6255 224.855 62.5463 224.892C62.4935 224.916 62.4578 224.955 62.4392 225.007C62.4193 225.056 62.4122 225.112 62.4179 225.176C62.4215 225.241 62.4337 225.31 62.4546 225.384C62.4742 225.454 62.4989 225.524 62.5286 225.593C62.5548 225.661 62.5813 225.724 62.6081 225.781C62.6349 225.838 62.6572 225.886 62.6751 225.924L63.3566 227.382L64.0365 227.064L63.355 225.606Z" fill="#870122"/>
<path d="M66.0869 237.15L72.3243 238.447L73.673 236L64.6257 234.024L66.0869 237.15Z" fill="url(#paint12_linear_195_12770)"/>
<path d="M73.1595 252.276L78.3541 241.932L81.3142 242.581L74.6211 255.403L73.1595 252.276Z" fill="url(#paint13_linear_195_12770)"/>
<path d="M67.0241 239.149L63.6184 247.229L72.0023 249.799L78.6958 236.978L75.7357 236.329L73.5379 240.706L67.0241 239.149ZM70.5411 246.673L66.9943 245.651L68.4666 242.235L72.3669 243.037L70.5411 246.673Z" fill="url(#paint14_linear_195_12770)"/>
<path d="M249.211 177.257L252.749 175.711L262.179 197.296L258.641 198.841L254.559 189.499L245.329 193.531L249.411 202.874L245.873 204.419L236.443 182.835L239.981 181.289L243.848 190.139L253.077 186.107L249.211 177.257Z" fill="#34435B"/>
<path d="M235.52 209.42C233.449 210.325 231.478 210.623 229.609 210.313C227.76 209.995 226.189 209.139 224.897 207.745L227.161 204.626C229.082 206.676 231.397 207.109 234.104 205.926C235.437 205.344 236.32 204.652 236.751 203.851C237.195 203.021 237.232 202.185 236.864 201.342C236.478 200.458 235.827 199.947 234.912 199.808C233.987 199.649 232.491 199.69 230.423 199.933C229.263 200.073 228.307 200.148 227.554 200.158C226.801 200.169 225.963 200.095 225.038 199.935C224.126 199.747 223.338 199.369 222.675 198.802C222.012 198.234 221.469 197.468 221.047 196.502C220.212 194.59 220.229 192.783 221.097 191.082C221.957 189.36 223.341 188.082 225.248 187.249C226.971 186.496 228.662 186.259 230.323 186.537C231.983 186.816 233.485 187.542 234.829 188.718L232.599 191.748C230.817 190.128 228.869 189.779 226.757 190.702C225.731 191.15 225.019 191.755 224.619 192.518C224.21 193.259 224.185 194.041 224.545 194.863C224.895 195.665 225.481 196.168 226.303 196.372C227.136 196.546 228.486 196.532 230.351 196.329C231.288 196.238 231.973 196.184 232.405 196.166C232.848 196.119 233.471 196.092 234.274 196.084C235.097 196.067 235.746 196.127 236.22 196.262C236.694 196.397 237.221 196.596 237.799 196.857C238.398 197.11 238.901 197.478 239.307 197.961C239.714 198.444 240.07 199.036 240.375 199.734C241.228 201.687 241.199 203.548 240.286 205.318C239.386 207.058 237.797 208.425 235.52 209.42Z" fill="#34435B"/>
<path d="M222.588 214.593L219.181 210.904L210.013 214.909L210.404 219.915L206.559 221.596L204.943 196.597L209.189 194.742L226.402 212.926L222.588 214.593ZM209.727 211.068L216.557 208.084L208.885 199.832L209.727 211.068Z" fill="#34435B"/>
<path d="M196.685 226.387C193.444 227.803 190.29 227.908 187.223 226.702C184.147 225.475 181.918 223.279 180.535 220.113C179.152 216.948 179.06 213.83 180.259 210.76C181.449 207.67 183.664 205.417 186.905 204.001C188.853 203.15 190.85 202.828 192.895 203.036C194.96 203.236 196.8 203.925 198.415 205.105L196.119 208.237C195.078 207.419 193.869 206.944 192.492 206.811C191.127 206.649 189.767 206.863 188.413 207.454C186.116 208.458 184.569 210.003 183.771 212.09C182.993 214.168 183.094 216.327 184.073 218.568C185.052 220.808 186.567 222.349 188.62 223.191C190.694 224.023 192.879 223.937 195.176 222.934C196.53 222.342 197.626 221.496 198.464 220.396C199.293 219.274 199.751 218.058 199.838 216.748L203.682 217.161C203.471 219.138 202.741 220.962 201.493 222.634C200.257 224.276 198.654 225.527 196.685 226.387Z" fill="#34435B"/>
<path d="M211.049 129.851L208.433 147.772L215.044 152.386L219.1 126.402L211.064 129.848L211.049 129.851Z" fill="url(#paint15_linear_195_12770)"/>
<path d="M172.149 146.511L200.038 164.506L198.712 173.012L164.113 149.973L172.166 146.524L172.149 146.511Z" fill="url(#paint16_linear_195_12770)"/>
<path d="M205.912 132.043L184.207 119.904L178.519 143.783L213.115 166.823L214.441 158.317L202.638 150.713L205.91 132.043L205.912 132.043ZM186.555 140.337L188.795 130.219L197.97 135.448L196.348 146.663L186.555 140.337Z" fill="url(#paint17_linear_195_12770)"/>
<path d="M98.1118 276.847C98.9384 278.603 99.0727 280.294 98.5146 281.92C97.9665 283.516 96.8793 284.835 95.253 285.878L96.5513 288.637L94.631 289.541L93.3472 286.813C91.6638 287.479 90.0465 287.672 88.4954 287.393C86.9443 287.113 85.5772 286.381 84.394 285.196L86.4874 282.052C88.0326 283.547 89.7697 283.966 91.6987 283.31L88.6643 276.863C87.6127 276.929 86.7479 276.957 86.07 276.948C85.3823 276.918 84.6066 276.804 83.7429 276.604C82.899 276.396 82.1541 276.014 81.5082 275.46C80.8724 274.876 80.3308 274.108 79.8834 273.158C79.0665 271.422 78.9566 269.757 79.5539 268.163C80.1511 266.57 81.2283 265.306 82.7852 264.371L81.5015 261.643L83.4218 260.739L84.7202 263.498C87.5346 262.628 90.0325 263.181 92.214 265.159L90.1652 268.243C89.0209 267.141 87.7603 266.737 86.3833 267.032L89.2718 273.169C90.0188 273.121 90.5839 273.095 90.9671 273.091C91.37 273.078 91.9054 273.091 92.5734 273.13C93.261 273.16 93.8206 273.25 94.2522 273.4C94.6838 273.55 95.1545 273.758 95.6641 274.023C96.1935 274.279 96.6584 274.653 97.0588 275.146C97.4496 275.619 97.8006 276.185 98.1118 276.847ZM83.281 271.559C83.5825 272.199 84.0078 272.643 84.5568 272.889C85.1256 273.127 85.9306 273.252 86.9721 273.267L84.4337 267.874C83.7633 268.341 83.3184 268.903 83.0991 269.562C82.8994 270.211 82.9601 270.877 83.281 271.559ZM93.6045 282.376C94.3145 281.84 94.7597 281.226 94.9399 280.536C95.1201 279.845 95.0497 279.159 94.7288 278.477C94.4078 277.795 93.9531 277.34 93.3647 277.112C92.7665 276.863 91.9615 276.737 90.9494 276.734L93.6045 282.376Z" fill="#34435B"/>
<path d="M196.406 73.9775L197.867 73.3332L205.561 74.6083L203.838 70.6999L205.289 70.0596L207.682 75.484L206.23 76.1243L198.492 74.7741L200.251 78.7616L198.799 79.4019L196.406 73.9775Z" fill="#A57B31"/>
<path d="M195.467 74.3823L197.866 79.8211L196.405 80.4654L194.006 75.0266L195.467 74.3823Z" fill="#A57B31"/>
<path d="M177.93 82.1245L179.654 81.3641L184.265 83.956L185.778 78.9806L190.58 81.1451L191.758 76.0254L193.464 75.2731L191.719 82.5224L190.857 82.9026L186.684 81.0354L185.394 85.3118L184.532 85.692L177.93 82.1245Z" fill="#A57B31"/>
<path d="M175.034 89.8896L172.557 89.0167L169.536 90.3494L170.258 91.9875L168.807 92.6278L166.414 87.2034L171.096 85.1383C172.233 84.6367 173.153 84.4029 173.854 84.4368C174.562 84.4681 175.057 84.8046 175.34 85.4465C175.437 85.6668 175.479 85.8917 175.464 86.1212C175.456 86.348 175.401 86.5754 175.299 86.8034C175.195 87.0266 175.049 87.2453 174.862 87.4595C174.675 87.6737 174.455 87.8794 174.202 88.0767L176.931 89.0532L175.034 89.8896ZM172.259 87.7751C172.422 87.7031 172.611 87.6057 172.824 87.483C173.043 87.3577 173.242 87.2186 173.42 87.0656C173.602 86.9051 173.742 86.7378 173.838 86.5636C173.935 86.3894 173.945 86.2161 173.869 86.0437C173.818 85.9287 173.737 85.8503 173.624 85.8083C173.518 85.7637 173.395 85.7465 173.255 85.7568C173.113 85.7622 172.961 85.7863 172.799 85.8291C172.643 85.8692 172.489 85.9202 172.335 85.9821C172.186 86.0365 172.048 86.0918 171.921 86.1478C171.794 86.2038 171.688 86.2505 171.603 86.2879L168.373 87.7126L169.029 89.1998L172.259 87.7751Z" fill="#870122"/>
<path d="M158.42 90.731L165.624 87.5534L166.1 88.6311L160.347 91.1683L160.661 91.8796L166.014 89.5184L166.486 90.5889L161.133 92.9501L161.789 94.4373L167.542 91.9001L168.017 92.9778L160.812 96.1554L158.42 90.731Z" fill="#870122"/>
<path d="M142.281 97.8516L144.005 97.0912L148.617 99.6831L150.129 94.7077L154.932 96.8721L156.11 91.7525L157.815 91.0001L156.07 98.2494L155.208 98.6296L151.036 96.7625L149.746 101.039L148.884 101.419L142.281 97.8516Z" fill="#870122"/>
<path d="M133.687 104.89C133.476 104.411 133.408 103.946 133.484 103.495C133.566 103.042 133.775 102.606 134.111 102.189C134.451 101.764 134.911 101.358 135.492 100.97C136.072 100.583 136.756 100.216 137.542 99.8687C138.359 99.5086 139.115 99.2323 139.811 99.0399C140.506 98.8476 141.129 98.7615 141.68 98.7818C142.237 98.7993 142.715 98.932 143.113 99.1797C143.515 99.4199 143.83 99.7987 144.059 100.316C144.272 100.8 144.331 101.269 144.235 101.723C144.143 102.17 143.915 102.605 143.553 103.028C143.194 103.444 142.711 103.846 142.102 104.234C141.493 104.623 140.78 104.998 139.963 105.358C139.177 105.705 138.447 105.967 137.773 106.143C137.098 106.315 136.492 106.391 135.955 106.37C135.422 106.342 134.963 106.21 134.577 105.974C134.195 105.731 133.899 105.369 133.687 104.89ZM135.139 104.25C135.238 104.475 135.382 104.646 135.571 104.763C135.758 104.875 135.971 104.947 136.209 104.98C136.453 105.009 136.715 105.005 136.995 104.968C137.281 104.928 137.566 104.87 137.851 104.796C138.14 104.714 138.421 104.622 138.694 104.519C138.972 104.413 139.226 104.31 139.456 104.208C139.692 104.104 139.946 103.984 140.218 103.847C140.49 103.709 140.76 103.559 141.027 103.395C141.292 103.227 141.542 103.048 141.777 102.859C142.011 102.669 142.206 102.472 142.361 102.266C142.522 102.058 142.627 101.846 142.676 101.63C142.729 101.406 142.706 101.181 142.607 100.956C142.51 100.736 142.362 100.572 142.163 100.466C141.968 100.351 141.741 100.28 141.483 100.251C141.222 100.217 140.942 100.22 140.642 100.261C140.34 100.297 140.036 100.354 139.73 100.431C139.425 100.509 139.126 100.601 138.833 100.707C138.546 100.81 138.285 100.914 138.049 101.018C137.819 101.12 137.573 101.24 137.309 101.379C137.051 101.516 136.797 101.668 136.546 101.836C136.301 102.001 136.069 102.181 135.851 102.374C135.637 102.56 135.46 102.758 135.322 102.968C135.187 103.17 135.099 103.381 135.058 103.599C135.015 103.813 135.042 104.03 135.139 104.25Z" fill="#870122"/>
<path d="M123.859 105.977L128.541 103.912C129.679 103.41 130.598 103.177 131.299 103.211C132.007 103.242 132.502 103.578 132.785 104.22C132.92 104.527 132.951 104.842 132.877 105.166C132.808 105.483 132.655 105.794 132.421 106.097C132.186 106.401 131.88 106.69 131.503 106.966C131.124 107.236 130.692 107.478 130.208 107.691L126.978 109.116L127.704 110.761L126.252 111.401L123.859 105.977ZM129.701 106.542C129.865 106.47 130.053 106.372 130.266 106.25C130.485 106.124 130.684 105.985 130.862 105.832C131.047 105.676 131.187 105.512 131.284 105.337C131.38 105.163 131.39 104.99 131.314 104.817C131.264 104.702 131.182 104.624 131.07 104.582C130.963 104.537 130.84 104.52 130.7 104.53C130.558 104.536 130.406 104.56 130.244 104.603C130.089 104.643 129.934 104.694 129.781 104.756C129.631 104.81 129.493 104.865 129.366 104.921C129.239 104.978 129.133 105.024 129.048 105.062L125.818 106.486L126.471 107.966L129.701 106.542Z" fill="#870122"/>
</g>
<defs>
<linearGradient id="paint0_linear_195_12770" x1="100.211" y1="217.576" x2="108.804" y2="217.018" gradientUnits="userSpaceOnUse">
<stop stop-color="#C6933B"/>
<stop offset="1"/>
</linearGradient>
<linearGradient id="paint1_linear_195_12770" x1="100.402" y1="235.578" x2="113.805" y2="226.753" gradientUnits="userSpaceOnUse">
<stop stop-color="#C6933B"/>
<stop offset="1"/>
</linearGradient>
<linearGradient id="paint2_linear_195_12770" x1="110.038" y1="227.786" x2="96.9823" y2="220.235" gradientUnits="userSpaceOnUse">
<stop stop-color="#CB0033"/>
<stop offset="1"/>
</linearGradient>
<linearGradient id="paint3_linear_195_12770" x1="270.309" y1="163.235" x2="271.748" y2="185.476" gradientUnits="userSpaceOnUse">
<stop stop-color="#C6933B"/>
<stop offset="1"/>
</linearGradient>
<linearGradient id="paint4_linear_195_12770" x1="223.915" y1="163.709" x2="246.801" y2="198.323" gradientUnits="userSpaceOnUse">
<stop stop-color="#C6933B"/>
<stop offset="1"/>
</linearGradient>
<linearGradient id="paint5_linear_195_12770" x1="244.003" y1="188.67" x2="263.59" y2="154.964" gradientUnits="userSpaceOnUse">
<stop stop-color="#CB0033"/>
<stop offset="1"/>
</linearGradient>
<linearGradient id="paint6_linear_195_12770" x1="82.855" y1="226.509" x2="91.1886" y2="224.341" gradientUnits="userSpaceOnUse">
<stop stop-color="#C6933B"/>
<stop offset="1"/>
</linearGradient>
<linearGradient id="paint7_linear_195_12770" x1="86.4362" y1="244.153" x2="97.9345" y2="232.958" gradientUnits="userSpaceOnUse">
<stop stop-color="#C6933B"/>
<stop offset="1"/>
</linearGradient>
<linearGradient id="paint8_linear_195_12770" x1="94.4318" y1="234.683" x2="80.1864" y2="229.73" gradientUnits="userSpaceOnUse">
<stop stop-color="#CB0033"/>
<stop offset="1"/>
</linearGradient>
<linearGradient id="paint9_linear_195_12770" x1="239.655" y1="141.066" x2="245.262" y2="162.637" gradientUnits="userSpaceOnUse">
<stop stop-color="#C6933B"/>
<stop offset="1"/>
</linearGradient>
<linearGradient id="paint10_linear_195_12770" x1="194.181" y1="150.281" x2="223.184" y2="179.958" gradientUnits="userSpaceOnUse">
<stop stop-color="#C6933B"/>
<stop offset="1"/>
</linearGradient>
<linearGradient id="paint11_linear_195_12770" x1="218.617" y1="171.006" x2="231.496" y2="134.211" gradientUnits="userSpaceOnUse">
<stop stop-color="#CB0033"/>
<stop offset="1"/>
</linearGradient>
<linearGradient id="paint12_linear_195_12770" x1="66.1644" y1="237.316" x2="72.8311" y2="234.199" gradientUnits="userSpaceOnUse">
<stop stop-color="#C6933B"/>
<stop offset="1"/>
</linearGradient>
<linearGradient id="paint13_linear_195_12770" x1="73.2593" y1="254.28" x2="82.2639" y2="243.364" gradientUnits="userSpaceOnUse">
<stop stop-color="#C6933B"/>
<stop offset="1"/>
</linearGradient>
<linearGradient id="paint14_linear_195_12770" x1="63.824" y1="247.133" x2="79.4231" y2="239.842" gradientUnits="userSpaceOnUse">
<stop stop-color="#CB0033"/>
<stop offset="1"/>
</linearGradient>
<linearGradient id="paint15_linear_195_12770" x1="210.736" y1="130.014" x2="219.512" y2="150.501" gradientUnits="userSpaceOnUse">
<stop stop-color="#C6933B"/>
<stop offset="1"/>
</linearGradient>
<linearGradient id="paint16_linear_195_12770" x1="167.157" y1="145.94" x2="200.281" y2="170.935" gradientUnits="userSpaceOnUse">
<stop stop-color="#C6933B"/>
<stop offset="1"/>
</linearGradient>
<linearGradient id="paint17_linear_195_12770" x1="194.423" y1="162.769" x2="201.642" y2="124.459" gradientUnits="userSpaceOnUse">
<stop stop-color="#CB0033"/>
<stop offset="1"/>
</linearGradient>
<clipPath id="clip0_195_12770">
<rect width="350" height="183" fill="white" transform="translate(68.9922 102.804) rotate(-4.11)"/>
</clipPath>
<clipPath id="clip1_195_12770">
<rect width="350" height="183" fill="white" transform="translate(30.5527 119.685) rotate(-14.98)"/>
</clipPath>
<clipPath id="clip2_195_12770">
<rect width="350" height="183" fill="white" transform="translate(0.792969 140.214) rotate(-23.6)"/>
</clipPath>
</defs>
</svg>
