<svg width="466" height="338" viewBox="0 0 466 338" fill="none" xmlns="http://www.w3.org/2000/svg">
<g opacity="0.5">
<path d="M451.68 89.9263L68.2773 117.459L82.45 314.816L465.853 287.282L451.68 89.9263Z" fill="#ECECEC"/>
<path d="M132.511 146.139C131.119 148.37 129.028 149.586 126.239 149.786C123.45 149.987 121.197 149.083 119.478 147.075C117.781 145.065 116.806 142.294 116.552 138.76C116.299 135.225 116.868 132.343 118.26 130.111C119.674 127.879 121.775 126.662 124.564 126.462C127.353 126.261 129.596 127.166 131.293 129.176C133.012 131.183 133.998 133.954 134.251 137.489C134.505 141.023 133.925 143.906 132.511 146.139ZM125.981 146.188C127.654 146.068 128.881 145.28 129.66 143.825C130.44 142.369 130.737 140.346 130.551 137.754C130.365 135.163 129.782 133.202 128.802 131.873C127.823 130.544 126.496 129.94 124.823 130.06C123.171 130.179 121.944 130.966 121.143 132.423C120.364 133.879 120.067 135.902 120.253 138.494C120.439 141.085 121.022 143.046 122.002 144.375C123.003 145.702 124.329 146.307 125.981 146.188Z" fill="#DA663A"/>
<path d="M106.884 136.677C109.029 136.523 110.888 137.035 112.461 138.214C114.032 139.371 114.898 141.074 115.06 143.323C115.221 145.572 114.586 147.394 113.155 148.789C111.725 150.183 109.904 150.96 107.695 151.118C105.914 151.246 104.308 150.952 102.876 150.237C101.443 149.5 100.381 148.371 99.6896 146.849L102.744 144.789C103.491 146.781 105.055 147.691 107.436 147.52C108.702 147.429 109.687 147.035 110.392 146.339C111.116 145.62 111.439 144.703 111.359 143.589C111.279 142.475 110.84 141.624 110.043 141.036C109.246 140.447 108.226 140.197 106.981 140.287L100.417 140.758L100.418 128.616L112.968 127.714L113.217 131.184L104.078 131.84L104.052 136.88L106.884 136.677Z" fill="#DA663A"/>
<path d="M83.3188 152.449L83.1111 149.557L90.3886 140.994C92.161 138.95 92.9973 137.233 92.8973 135.84C92.8188 134.748 92.4256 133.926 91.7174 133.374C91.0292 132.799 90.181 132.548 89.1727 132.62C87.2848 132.756 85.9572 133.788 85.19 135.716L81.937 134.109C82.5373 132.558 83.4534 131.352 84.6852 130.488C85.917 129.625 87.316 129.137 88.8821 129.024C90.8558 128.882 92.5952 129.382 94.1004 130.522C95.6055 131.663 96.435 133.304 96.5888 135.446C96.7534 137.738 95.6522 140.271 93.2854 143.046L88.5655 148.488L97.8977 147.817L98.1538 151.384L83.3188 152.449Z" fill="#DA663A"/>
<path d="M151.193 111.505L151.917 121.585C151.917 121.585 140.966 123.466 141.817 135.321L143.781 162.661L189.04 159.411L187.068 131.95C187.068 131.95 186.814 118.957 174.815 119.819L173.978 109.869L151.193 111.505Z" fill="#B1B1B1"/>
<path d="M197.107 119.543L414.821 103.909L427.001 120.392L442.708 119.264L453.776 273.388L209.415 290.937C209.415 290.937 206.49 268.717 217.079 263.258C227.669 257.8 214.751 239.937 214.751 239.937C214.751 239.937 223.361 232.402 222.065 214.357C220.769 196.311 210.084 191.337 210.084 191.337C210.084 191.337 221.972 176.651 213.916 170.052C205.859 163.453 199.203 155.319 198.765 143.345C198.326 131.371 197.106 119.547 197.106 119.547L197.107 119.543Z" fill="#DCA28C"/>
<path d="M331.409 261.876L379.734 258.405L376.075 207.457L448.656 202.245L442.69 119.175L340.607 126.506L341.458 138.36L322.636 139.712L331.409 261.876Z" fill="#715A54"/>
<path d="M322.244 99.2214L316.958 110.937L414.822 103.909L420.077 92.1958L322.244 99.2214Z" fill="#CE7A5F"/>
<path d="M344.353 281.245L339.313 296.37L437.177 289.342L442.187 274.22L344.353 281.245Z" fill="#CE7A5F"/>
<path d="M132.691 165.703L85.8418 169.067L86.0017 171.294L132.851 167.929L132.691 165.703Z" fill="#DCA28C"/>
<path d="M133.023 170.328L86.1738 173.692L86.3337 175.919L133.183 172.555L133.023 170.328Z" fill="#DCA28C"/>
<path d="M176.63 131.773C171.778 129.892 166.562 134.479 166.562 134.479L165.638 133.719L165.497 131.747C165.497 131.747 167.091 130.311 166.914 127.845C166.736 125.38 163.485 127.349 163.485 127.349C163.485 127.349 159.986 125.864 160.163 128.33C160.34 130.795 162.123 131.989 162.123 131.989L162.264 133.961L161.458 134.845C161.458 134.845 155.641 131.05 151.108 133.606C146.574 136.162 149.24 143.323 152.034 146.509C154.828 149.695 155.171 153.305 155.171 153.305L175.425 151.851C175.425 151.851 175.248 148.229 177.559 144.676C179.869 141.123 181.484 133.655 176.632 131.773L176.63 131.773Z" fill="#272731"/>
<path d="M417.459 176.555C412.236 176.34 412.066 172.13 411.055 168.909L415.412 163.247C415.667 162.916 415.806 162.51 415.809 162.093L415.844 153.506C415.849 152.457 415.004 151.602 413.954 151.59L413.822 151.588C412.637 151.575 411.75 150.501 411.962 149.337L412.249 147.762C412.447 146.682 411.693 145.66 410.602 145.525L409.075 145.337C408.116 145.219 407.396 144.404 407.397 143.439L407.405 138.513C407.408 137.303 406.295 136.397 405.106 136.641L400.188 137.653C398.968 137.904 397.836 136.943 397.891 135.699L397.963 134.075C398.016 132.878 396.963 131.928 395.775 132.103L394.561 132.281C393.263 132.47 392.164 131.329 392.403 130.042L393.054 126.56C393.321 125.126 391.944 123.934 390.56 124.402L385.859 125.993C384.735 126.374 383.54 125.651 383.356 124.482L383.108 122.901C382.914 121.671 381.614 120.953 380.468 121.44L378.843 122.133C377.726 122.608 376.456 121.939 376.218 120.753L375.3 116.183C374.986 114.623 373.01 114.108 371.972 115.317L368.643 119.196C367.807 120.169 366.269 120.062 365.578 118.982L365.066 118.18C364.414 117.161 362.99 116.995 362.121 117.838L360.704 119.211C359.85 120.04 358.453 119.896 357.786 118.911L353.738 112.933C352.93 111.74 351.138 111.836 350.463 113.109L346.916 119.796C346.34 120.881 344.903 121.15 343.974 120.347L343.741 120.146C342.828 119.356 341.419 119.6 340.823 120.65L339.952 122.189C339.345 123.262 337.894 123.487 336.988 122.652L335.493 121.273C334.543 120.397 333.013 120.696 332.463 121.865L331.315 124.308C330.844 125.309 329.622 125.704 328.654 125.165C327.383 124.459 325.818 125.371 325.81 126.822L325.803 127.896C325.797 129.05 324.776 129.934 323.631 129.777L322.651 129.644C321.447 129.48 320.398 130.463 320.484 131.673L321.635 147.694C316.783 149.434 312.217 152.196 314.449 159.593C318.151 171.857 307.382 162.635 310.318 178.333C313.255 194.03 303.596 200.884 323.055 202.813C322.741 205.653 322.239 208.46 322.741 212.215C323.655 219.048 325.974 231.694 332.491 239.954C339.007 248.215 344.186 253.54 351.349 253.133C351.349 253.133 355.309 263.102 355.812 270.101L399.03 266.997C399.03 266.997 407.82 262.497 407.441 252.912C407.441 252.912 398.76 243.43 396.031 230.388C399.271 230.38 402.752 229.502 405.558 226.682C412.951 219.253 403.89 218.776 409.631 214.281C415.374 209.786 421.155 201.91 418.448 197.598C415.74 193.287 426.182 176.911 417.455 176.551L417.459 176.555Z" fill="#BDA8A8"/>
<path d="M233.023 117.479L267.3 173.569L293.222 112.641L233.023 117.479Z" fill="#DFE3D8"/>
<path d="M176.383 260.122C130.673 263.404 132.87 213.926 134.447 206.085C136.026 198.244 144.16 199.14 144.628 194.175C145.095 189.209 152.949 190.783 155.253 186.177C157.557 181.574 160.742 184.633 161.608 182.927C162.473 181.221 170.509 178.341 170.509 178.341L170.241 178.361C170.241 178.361 178.607 180.062 179.707 181.627C180.807 183.192 183.523 179.709 186.461 183.936C189.399 188.164 196.949 185.485 198.12 190.333C199.292 195.181 207.215 193.132 209.898 200.666C212.58 208.2 221.823 256.859 176.113 260.141" fill="#272731"/>
<path d="M169.248 164.527L168.431 168.6L168.917 179.222L162.532 186.879L161.82 176.964L159.236 166.076L157.318 177.979L160.917 228.104L169.057 227.52L168.563 220.634C168.335 217.467 173.065 217.681 173.065 217.681C173.065 217.681 177.716 216.793 177.944 219.96L178.438 226.846L186.578 226.262L182.978 176.137L179.379 164.63L178.377 175.775L179.089 185.69L171.676 179.024L170.639 168.441L169.248 164.527Z" fill="#AD9F5F"/>
<path d="M437.8 261.541C436.408 263.772 434.317 264.988 431.528 265.189C428.74 265.389 426.486 264.485 424.767 262.477C423.071 260.467 422.095 257.696 421.841 254.162C421.588 250.628 422.157 247.745 423.549 245.514C424.963 243.281 427.064 242.064 429.853 241.864C432.642 241.663 434.885 242.568 436.582 244.578C438.301 246.586 439.287 249.357 439.54 252.891C439.794 256.425 439.214 259.308 437.8 261.541ZM431.27 261.59C432.943 261.47 434.17 260.682 434.95 259.227C435.729 257.772 436.026 255.748 435.84 253.156C435.654 250.565 435.071 248.604 434.091 247.275C433.112 245.946 431.785 245.342 430.112 245.462C428.46 245.581 427.233 246.368 426.432 247.825C425.653 249.281 425.356 251.304 425.542 253.896C425.728 256.488 426.311 258.448 427.291 259.777C428.292 261.104 429.618 261.709 431.27 261.59Z" fill="#DA663A"/>
<path d="M412.173 252.079C414.318 251.925 416.177 252.437 417.75 253.616C419.321 254.773 420.187 256.477 420.349 258.725C420.51 260.974 419.875 262.796 418.444 264.191C417.014 265.585 415.193 266.362 412.984 266.52C411.203 266.648 409.597 266.355 408.165 265.639C406.732 264.903 405.67 263.773 404.979 262.251L408.033 260.191C408.78 262.183 410.344 263.093 412.725 262.922C413.991 262.831 414.976 262.438 415.681 261.741C416.406 261.022 416.728 260.105 416.648 258.991C416.568 257.877 416.129 257.026 415.332 256.438C414.535 255.849 413.515 255.599 412.27 255.689L405.706 256.16L405.707 244.018L418.257 243.116L418.506 246.586L409.367 247.243L409.341 252.282L412.173 252.079Z" fill="#DA663A"/>
<path d="M388.608 267.851L388.4 264.959L395.678 256.396C397.45 254.352 398.286 252.635 398.186 251.242C398.108 250.15 397.715 249.328 397.006 248.776C396.318 248.201 395.47 247.95 394.462 248.022C392.574 248.158 391.246 249.19 390.479 251.118L387.226 249.511C387.826 247.96 388.742 246.754 389.974 245.89C391.206 245.027 392.605 244.539 394.171 244.426C396.145 244.284 397.884 244.784 399.389 245.924C400.895 247.065 401.724 248.706 401.878 250.848C402.042 253.14 400.941 255.673 398.574 258.448L393.855 263.89L403.187 263.219L403.443 266.786L388.608 267.851Z" fill="#DA663A"/>
<path d="M311.852 246.282L316.082 245.979L317.928 271.681L313.698 271.985L312.899 260.859L301.866 261.652L302.665 272.777L298.436 273.081L296.59 247.378L300.819 247.075L301.576 257.613L312.609 256.82L311.852 246.282Z" fill="#DA663A"/>
<path d="M285.885 274.462C283.409 274.639 281.26 274.228 279.438 273.227C277.641 272.224 276.329 270.768 275.502 268.859L278.99 266.468C280.227 269.283 282.464 270.574 285.7 270.341C287.294 270.227 288.461 269.835 289.202 269.167C289.965 268.473 290.311 267.624 290.239 266.62C290.163 265.567 289.677 264.803 288.78 264.326C287.881 263.824 286.317 263.322 284.088 262.817C282.836 262.538 281.818 262.267 281.035 262.003C280.252 261.74 279.411 261.357 278.513 260.856C277.637 260.328 276.96 259.651 276.482 258.824C276.003 257.997 275.723 257.009 275.64 255.858C275.477 253.582 276.157 251.724 277.68 250.286C279.201 248.824 281.102 248.011 283.382 247.847C285.442 247.699 287.28 248.071 288.897 248.964C290.514 249.857 291.802 251.154 292.762 252.857L289.342 255.169C288.091 252.848 286.203 251.778 283.678 251.959C282.452 252.047 281.492 252.412 280.799 253.052C280.104 253.668 279.791 254.465 279.862 255.444C279.93 256.399 280.352 257.131 281.128 257.642C281.927 258.125 283.329 258.603 285.335 259.074C286.338 259.322 287.067 259.516 287.52 259.655C287.997 259.769 288.652 259.968 289.486 260.252C290.344 260.535 290.994 260.833 291.435 261.146C291.877 261.458 292.349 261.855 292.851 262.336C293.379 262.815 293.764 263.377 294.008 264.024C294.251 264.671 294.403 265.411 294.463 266.243C294.63 268.568 293.917 270.477 292.323 271.969C290.753 273.435 288.607 274.266 285.885 274.462Z" fill="#DA663A"/>
<path d="M270.598 275.08L268.425 270.032L257.465 270.819L256.035 276.125L251.438 276.456L258.933 250.083L264.008 249.718L275.159 274.752L270.598 275.08ZM258.578 266.753L266.742 266.167L261.827 254.857L258.578 266.753Z" fill="#DA663A"/>
<path d="M239.459 277.795C235.585 278.074 232.282 277.031 229.549 274.669C226.814 272.282 225.312 269.203 225.041 265.434C224.77 261.664 225.819 258.415 228.186 255.686C230.551 252.933 233.671 251.417 237.544 251.139C239.874 250.971 242.059 251.368 244.099 252.329C246.164 253.288 247.816 254.67 249.055 256.475L245.53 258.869C244.752 257.646 243.675 256.714 242.298 256.075C240.944 255.409 239.458 255.135 237.84 255.251C235.094 255.448 232.925 256.477 231.334 258.339C229.767 260.198 229.079 262.462 229.271 265.13C229.462 267.798 230.466 269.94 232.283 271.557C234.124 273.172 236.417 273.88 239.163 273.683C240.782 273.567 242.226 273.094 243.498 272.265C244.767 271.411 245.687 270.324 246.258 269.003L250.086 270.832C249.142 272.794 247.718 274.41 245.813 275.678C243.931 276.921 241.813 277.626 239.459 277.795Z" fill="#DA663A"/>
<path d="M105.74 297.619L119.534 296.629L119.786 300.14L98.9975 301.633L98.7454 298.122L102.145 297.877L101.601 290.309L98.8662 290.505L98.6364 287.306L101.372 287.11L100.996 281.882C100.804 279.204 101.464 277.091 102.976 275.544C104.515 273.996 106.391 273.142 108.606 272.983C110.455 272.851 112.079 273.218 113.476 274.085C114.872 274.925 115.97 276.167 116.768 277.809L113.883 279.741C112.851 277.41 111.189 276.327 108.897 276.492C107.568 276.587 106.491 277.083 105.665 277.979C104.837 278.849 104.481 280.09 104.597 281.702L104.967 286.852L113.642 286.229L113.871 289.428L105.196 290.051L105.74 297.619Z" fill="#DA663A"/>
<path d="M102.502 242.864L109.3 246.451L112.082 244.46L102.265 239.157L102.505 242.861L102.505 242.867L102.502 242.864Z" fill="url(#paint0_linear_195_12622)"/>
<path d="M103.659 260.795L114.805 252.183L118.02 253.92L103.908 264.502L103.667 260.792L103.659 260.798L103.659 260.795Z" fill="url(#paint1_linear_195_12622)"/>
<path d="M102.652 245.234L94.7246 252.199L103.471 257.86L117.582 247.277L114.368 245.541L109.658 249.188L102.652 245.234ZM103.231 254.155L99.4998 251.825L102.89 248.896L107.147 251.134L103.231 254.158L103.231 254.155Z" fill="url(#paint2_linear_195_12622)"/>
<path d="M102.206 233.06L102.011 230.068C101.965 229.34 102.042 228.786 102.249 228.404C102.453 228.014 102.812 227.805 103.33 227.762C103.574 227.744 103.797 227.787 104.002 227.883C104.2 227.976 104.37 228.122 104.518 228.309C104.666 228.496 104.785 228.719 104.873 228.984C104.96 229.249 105.009 229.531 105.032 229.843L105.166 231.907L106.482 231.807L106.543 232.732L102.204 233.074L102.203 233.06L102.206 233.06ZM104.121 229.903C104.113 229.796 104.099 229.675 104.072 229.536C104.044 229.391 104 229.256 103.942 229.13C103.884 228.999 103.808 228.891 103.71 228.805C103.613 228.719 103.498 228.679 103.359 228.689C103.268 228.696 103.193 228.726 103.137 228.784C103.078 228.833 103.034 228.899 103.005 228.983C102.971 229.064 102.952 229.15 102.942 229.253C102.926 229.347 102.924 229.443 102.928 229.542C102.926 229.633 102.927 229.723 102.936 229.801L102.95 230.007L103.084 232.07L104.27 231.974L104.136 229.91L104.124 229.9L104.121 229.903ZM104.022 227.373C103.638 227.401 103.303 227.354 103.011 227.231C102.719 227.099 102.476 226.905 102.277 226.642C102.072 226.372 101.917 226.044 101.805 225.648C101.694 225.252 101.622 224.805 101.583 224.302C101.547 223.799 101.557 223.307 101.604 222.886C101.648 222.464 101.756 222.101 101.912 221.793C102.067 221.488 102.284 221.244 102.56 221.066C102.83 220.885 103.171 220.782 103.586 220.746C103.973 220.718 104.311 220.767 104.595 220.902C104.88 221.037 105.112 221.244 105.315 221.52C105.503 221.795 105.654 222.143 105.763 222.55C105.872 222.958 105.941 223.427 105.972 223.95C106.007 224.473 105.993 224.909 105.936 225.315C105.88 225.725 105.768 226.075 105.617 226.369C105.458 226.66 105.251 226.889 104.984 227.064C104.715 227.233 104.391 227.33 104.013 227.362L104.025 227.373L104.022 227.373ZM103.967 226.448C104.149 226.434 104.306 226.387 104.431 226.296C104.554 226.213 104.663 226.107 104.748 225.979C104.836 225.846 104.897 225.7 104.942 225.536C104.99 225.366 105.021 225.2 105.052 225.025C105.073 224.848 105.081 224.675 105.08 224.503C105.079 224.328 105.076 224.167 105.065 224.018C105.054 223.869 105.037 223.704 105.018 223.527C105 223.348 104.965 223.175 104.917 222.995C104.87 222.818 104.815 222.644 104.746 222.476C104.676 222.306 104.594 222.162 104.491 222.043C104.391 221.914 104.269 221.818 104.133 221.752C103.993 221.677 103.832 221.655 103.65 221.668C103.468 221.681 103.325 221.731 103.198 221.828C103.067 221.916 102.958 222.028 102.876 222.17C102.789 222.309 102.718 222.467 102.662 222.643C102.606 222.819 102.57 222.997 102.541 223.186C102.516 223.368 102.501 223.553 102.491 223.737C102.49 223.918 102.493 224.079 102.499 224.234C102.504 224.389 102.529 224.54 102.55 224.713C102.579 224.881 102.612 225.056 102.664 225.219C102.713 225.385 102.776 225.553 102.85 225.709C102.924 225.864 103.008 225.997 103.12 226.113C103.222 226.227 103.348 226.311 103.482 226.378C103.618 226.444 103.771 226.464 103.947 226.449L103.976 226.447L103.967 226.448ZM101.446 221.284L101.378 220.181L104.356 218.083L101.342 216.328L104.08 214.05L100.878 212.452L100.808 211.364L105.322 213.667L105.356 214.218L102.992 216.207L105.584 217.71L105.618 218.261L101.449 221.289L101.449 221.284L101.446 221.284ZM100.78 210.973L100.481 206.37L101.343 206.308L101.581 209.98L102.15 209.94L101.927 206.515L102.783 206.448L103.005 209.87L104.197 209.776L103.959 206.101L104.82 206.039L105.119 210.636L100.78 210.979L100.78 210.973ZM104.544 201.556L103.297 202.778L103.421 204.707L104.732 204.607L104.793 205.532L100.454 205.875L100.259 202.883C100.212 202.155 100.29 201.601 100.497 201.219C100.701 200.829 101.06 200.619 101.577 200.577C101.754 200.564 101.921 200.58 102.073 200.629C102.225 200.677 102.367 200.746 102.497 200.844C102.624 200.942 102.733 201.064 102.829 201.207C102.925 201.347 103.011 201.513 103.078 201.689L104.457 200.344L104.536 201.553L104.541 201.553L104.544 201.556ZM102.371 202.712C102.364 202.605 102.349 202.484 102.322 202.345C102.294 202.2 102.25 202.065 102.193 201.939C102.129 201.805 102.05 201.698 101.961 201.614C101.863 201.528 101.749 201.488 101.609 201.498C101.518 201.505 101.443 201.535 101.387 201.593C101.328 201.643 101.284 201.708 101.256 201.792C101.222 201.873 101.202 201.96 101.192 202.062C101.176 202.156 101.175 202.252 101.179 202.351C101.177 202.442 101.177 202.532 101.186 202.61L101.201 202.816L101.335 204.879L102.526 204.785L102.392 202.722L102.374 202.712L102.371 202.712ZM99.9794 198.511L99.9116 197.408L102.889 195.31L99.8751 193.555L102.614 191.276L99.4109 189.678L99.3413 188.59L103.856 190.893L103.89 191.444L101.525 193.433L104.118 194.937L104.151 195.488L99.9826 198.516L99.9822 198.51L99.9794 198.511ZM99.2515 187.3L103.605 186.962L103.663 187.896L99.31 188.234L99.2515 187.3ZM99.2146 186.707L99.1561 185.773L102.036 181.716L98.9081 181.96L98.8474 181.035L103.186 180.693L103.247 181.618L100.302 185.685L103.492 185.433L103.553 186.358L99.2142 186.701L99.2146 186.707Z" fill="black"/>
<path d="M289.732 183.466L280.451 200.997L285.603 208.167L299.331 182.846L289.749 183.47L289.732 183.466Z" fill="url(#paint3_linear_195_12622)"/>
<path d="M243.354 186.46L265.625 215.193L261.132 223.483L233.766 187.1L243.367 186.48L243.354 186.46Z" fill="url(#paint4_linear_195_12622)"/>
<path d="M283.609 183.853L265.592 163.416L250.946 185.97L278.311 222.353L282.803 214.064L273.373 201.916L283.607 183.853L283.609 183.853ZM260.529 185.347L266.56 175.728L274.139 184.468L268.347 195.444L260.529 185.347Z" fill="url(#paint5_linear_195_12622)"/>
<path d="M206.62 131.35L213.216 130.918C214.821 130.814 216.041 130.981 216.887 131.434C217.75 131.875 218.211 132.659 218.299 133.785C218.342 134.319 218.243 134.804 218.032 135.25C217.823 135.68 217.505 136.054 217.092 136.377C216.678 136.699 216.186 136.958 215.604 137.152C215.022 137.344 214.397 137.454 213.709 137.503L209.156 137.8L209.373 140.665L207.329 140.801L206.586 131.36L206.618 131.353L206.62 131.35ZM213.58 135.51C213.814 135.491 214.083 135.462 214.39 135.399C214.711 135.339 215.01 135.244 215.287 135.115C215.578 134.988 215.818 134.821 216.004 134.609C216.192 134.4 216.28 134.151 216.261 133.846C216.247 133.648 216.177 133.483 216.053 133.363C215.944 133.232 215.799 133.139 215.612 133.08C215.429 133.008 215.241 132.964 215.015 132.941C214.807 132.908 214.594 132.902 214.378 132.911C214.179 132.909 213.98 132.907 213.806 132.926L213.353 132.954L208.799 133.251L209.008 135.829L213.561 135.532L213.582 135.508L213.58 135.51ZM219.16 135.289C219.095 134.452 219.205 133.727 219.478 133.089C219.765 132.452 220.196 131.925 220.775 131.492C221.372 131.048 222.096 130.707 222.968 130.462C223.84 130.218 224.829 130.059 225.938 129.975C227.048 129.89 228.132 129.919 229.061 130.018C229.99 130.115 230.794 130.348 231.468 130.687C232.141 131.024 232.676 131.493 233.071 132.094C233.471 132.681 233.695 133.424 233.774 134.325C233.838 135.162 233.725 135.902 233.428 136.521C233.128 137.139 232.672 137.645 232.062 138.088C231.458 138.5 230.689 138.83 229.789 139.068C228.889 139.305 227.855 139.453 226.703 139.527C225.548 139.601 224.59 139.57 223.696 139.452C222.789 139.331 222.016 139.088 221.373 138.759C220.732 138.415 220.223 137.965 219.839 137.381C219.47 136.801 219.252 136.09 219.184 135.267L219.163 135.291L219.16 135.289ZM221.198 135.168C221.227 135.565 221.332 135.904 221.529 136.173C221.713 136.441 221.949 136.676 222.228 136.861C222.521 137.05 222.843 137.184 223.203 137.285C223.578 137.387 223.946 137.457 224.332 137.52C224.721 137.566 225.101 137.58 225.484 137.58C225.868 137.58 226.223 137.573 226.551 137.545C226.88 137.517 227.242 137.481 227.637 137.439C228.031 137.397 228.416 137.323 228.808 137.219C229.201 137.117 229.583 136.995 229.955 136.844C230.328 136.692 230.648 136.513 230.914 136.29C231.196 136.072 231.41 135.807 231.558 135.513C231.723 135.206 231.772 134.859 231.744 134.464C231.715 134.067 231.603 133.757 231.391 133.484C231.197 133.198 230.947 132.96 230.634 132.784C230.327 132.591 229.978 132.436 229.593 132.316C229.208 132.196 228.81 132.119 228.396 132.052C227.993 132.002 227.586 131.967 227.177 131.945C226.78 131.942 226.425 131.949 226.083 131.959C225.742 131.97 225.407 132.026 225.029 132.072C224.661 132.135 224.274 132.209 223.912 132.318C223.548 132.428 223.179 132.565 222.834 132.726C222.49 132.884 222.201 133.071 221.945 133.311C221.694 133.536 221.507 133.806 221.36 134.102C221.215 134.397 221.167 134.73 221.199 135.113L221.203 135.172L221.198 135.168ZM232.592 129.677L235.023 129.527L239.642 135.998L243.519 129.434L248.537 135.385L252.066 128.41L254.467 128.253L249.378 138.081L248.163 138.157L243.783 133.013L240.459 138.659L239.245 138.735L232.578 129.673L232.592 129.677ZM255.339 128.202L265.489 127.54L265.631 129.415L257.524 129.941L257.618 131.176L265.165 130.682L265.31 132.542L257.763 133.036L257.967 135.628L266.074 135.101L266.215 136.975L256.065 137.64L255.322 128.199L255.336 128.203L255.339 128.202ZM276.095 136.37L273.401 133.659L269.144 133.935L269.365 136.786L267.32 136.922L266.578 127.481L273.173 127.048C274.778 126.945 275.999 127.111 276.844 127.564C277.708 128.005 278.168 128.789 278.256 129.917C278.289 130.3 278.25 130.665 278.14 130.998C278.03 131.331 277.881 131.642 277.663 131.921C277.445 132.199 277.173 132.436 276.863 132.647C276.552 132.859 276.187 133.042 275.798 133.192L278.763 136.192L276.097 136.363L276.093 136.377L276.095 136.37ZM273.552 131.644C273.786 131.625 274.054 131.596 274.362 131.533C274.683 131.473 274.981 131.377 275.258 131.249C275.553 131.108 275.791 130.941 275.975 130.743C276.164 130.534 276.252 130.285 276.232 129.98C276.218 129.782 276.149 129.617 276.024 129.496C275.916 129.366 275.77 129.272 275.584 129.214C275.401 129.142 275.213 129.098 274.987 129.075C274.779 129.041 274.566 129.036 274.349 129.045C274.15 129.043 273.952 129.041 273.777 129.06L273.324 129.088L268.771 129.385L268.975 131.977L273.529 131.68L273.554 131.641L273.552 131.644ZM282.821 126.432L285.252 126.283L289.871 132.753L293.748 126.189L298.766 132.14L302.295 125.165L304.696 125.009L299.607 134.836L298.392 134.912L294.012 129.769L290.689 135.414L289.474 135.49L282.807 126.428L282.821 126.432ZM307.55 124.824L308.287 134.293L306.229 134.425L305.491 124.956L307.55 124.824ZM308.858 124.742L310.917 124.61L319.857 130.865L319.322 124.062L321.366 123.927L322.109 133.368L320.065 133.503L311.098 127.107L311.648 134.047L309.603 134.183L308.861 124.742L308.858 124.742Z" fill="black"/>
</g>
<g opacity="0.6">
<path d="M401.172 35.0134L29.8379 134.344L80.9684 325.488L452.303 226.157L401.172 35.0134Z" fill="#ECECEC"/>
<path d="M98.3278 150.398C97.3811 152.852 95.5572 154.44 92.8561 155.162C90.1549 155.885 87.7713 155.422 85.7051 153.774C83.6597 152.121 82.1792 149.583 81.2636 146.16C80.3481 142.737 80.3636 139.799 81.3103 137.345C82.2777 134.885 84.112 133.294 86.8132 132.572C89.5143 131.849 91.8876 132.315 93.933 133.968C95.9991 135.616 97.49 138.152 98.4056 141.574C99.3212 144.997 99.2952 147.938 98.3278 150.398ZM91.9238 151.677C93.5445 151.244 94.6005 150.239 95.0917 148.663C95.5829 147.086 95.4928 145.043 94.8214 142.533C94.1499 140.023 93.2079 138.208 91.9953 137.087C90.7827 135.967 89.3661 135.623 87.7454 136.057C86.1455 136.485 85.0895 137.49 84.5775 139.072C84.0863 140.648 84.1764 142.691 84.8479 145.201C85.5193 147.711 86.4613 149.526 87.6739 150.647C88.9073 151.762 90.3239 152.105 91.9238 151.677Z" fill="#DA663A"/>
<path d="M71.3763 145.937C73.4542 145.381 75.3764 145.534 77.143 146.395C78.9041 147.236 80.076 148.745 80.6586 150.923C81.2413 153.101 80.9614 155.01 79.8191 156.649C78.6768 158.289 77.0356 159.394 74.8955 159.967C73.1709 160.428 71.5383 160.443 69.9976 160.01C68.4514 159.557 67.1952 158.648 66.2291 157.284L68.8402 154.685C69.9492 156.5 71.6569 157.099 73.9632 156.482C75.1891 156.154 76.0825 155.582 76.6432 154.765C77.2192 153.922 77.3629 152.961 77.0744 151.882C76.7858 150.803 76.1947 150.05 75.301 149.622C74.4073 149.194 73.3579 149.142 72.1528 149.464L65.7947 151.165L63.5065 139.24L75.6617 135.988L76.5606 139.349L67.7092 141.717L68.6336 146.671L71.3763 145.937Z" fill="#DA663A"/>
<path d="M51.208 165.87L50.4589 163.069L55.9911 153.287C57.3465 150.946 57.8438 149.101 57.4831 147.753C57.2001 146.695 56.6589 145.962 55.8594 145.553C55.0751 145.119 54.1947 145.032 53.2181 145.293C51.3896 145.782 50.2805 147.046 49.8905 149.084L46.3929 148.119C46.6901 146.483 47.3622 145.126 48.4091 144.045C49.4561 142.965 50.7379 142.222 52.2547 141.816C54.1663 141.305 55.9687 141.467 57.6619 142.304C59.3551 143.14 60.4791 144.595 61.0341 146.67C61.6278 148.89 61.0241 151.585 59.2229 154.757L55.6136 160.99L64.6521 158.572L65.576 162.026L51.208 165.87Z" fill="#DA663A"/>
<path d="M110.143 112.863L112.754 122.625C112.754 122.625 102.355 126.538 105.426 138.019L112.509 164.499L156.343 152.773L149.229 126.177C149.229 126.177 146.529 113.465 134.908 116.574L132.211 106.96L110.143 112.863Z" fill="#B1B1B1"/>
<path d="M156.751 112.1L367.612 55.6948L382.681 69.5855L397.894 65.5162L437.824 214.79L201.155 278.098C201.155 278.098 194.093 256.828 203.463 249.471C212.834 242.114 196.779 227.007 196.779 227.007C196.779 227.007 203.814 217.984 199.139 200.506C194.464 183.029 183.032 180.158 183.032 180.158C183.032 180.158 191.938 163.494 182.782 158.533C173.626 153.572 165.555 146.838 162.867 135.162C160.179 123.486 156.751 112.103 156.751 112.103L156.751 112.1Z" fill="#DCA28C"/>
<path d="M315.481 226.556L362.284 214.036L349.085 164.692L419.381 145.888L397.859 65.432L298.989 91.8795L302.06 103.361L283.831 108.238L315.481 226.556Z" fill="#715A54"/>
<path d="M275.81 68.5477L272.828 81.0494L367.611 55.695L370.564 43.2014L275.81 68.5477Z" fill="#CE7A5F"/>
<path d="M331.842 243.138L329.744 258.941L424.528 233.587L426.597 217.791L331.842 243.138Z" fill="#CE7A5F"/>
<path d="M102.193 169.577L56.8184 181.714L57.3953 183.871L102.769 171.734L102.193 169.577Z" fill="#DCA28C"/>
<path d="M103.392 174.057L58.0176 186.194L58.5945 188.351L103.969 176.213L103.392 174.057Z" fill="#DCA28C"/>
<path d="M138.947 127.971C133.827 127.038 129.57 132.526 129.57 132.526L128.52 131.955L128.009 130.044C128.009 130.044 129.303 128.333 128.664 125.945C128.026 123.558 125.204 126.104 125.204 126.104C125.204 126.104 121.488 125.307 122.126 127.694C122.765 130.082 124.741 130.919 124.741 130.919L125.252 132.829L124.627 133.849C124.627 133.849 118.199 131.219 114.228 134.584C110.258 137.948 114.227 144.478 117.571 147.08C120.916 149.682 121.933 153.163 121.933 153.163L141.55 147.916C141.55 147.916 140.692 144.393 142.292 140.467C143.891 136.543 144.069 128.904 138.949 127.971L138.947 127.971Z" fill="#272731"/>
<path d="M383.899 126.54C378.729 127.315 377.768 123.213 376.169 120.239L379.38 113.858C379.568 113.484 379.628 113.059 379.552 112.649L377.968 104.21C377.775 103.179 376.784 102.498 375.75 102.685L375.62 102.708C374.454 102.918 373.38 102.03 373.369 100.848L373.354 99.2464C373.344 98.1485 372.412 97.2867 371.314 97.3601L369.779 97.4634C368.815 97.5287 367.954 96.8642 367.774 95.916L366.853 91.0771C366.627 89.8875 365.363 89.2076 364.242 89.6714L359.603 91.593C358.452 92.0696 357.16 91.3387 356.979 90.1071L356.743 88.4991C356.569 87.3134 355.357 86.5791 354.222 86.9747L353.063 87.378C351.824 87.8087 350.53 86.8953 350.523 85.5862L350.505 82.0441C350.497 80.5856 348.92 79.675 347.649 80.3953L343.332 82.8444C342.3 83.4303 340.99 82.9458 340.589 81.8317L340.047 80.3259C339.625 79.1553 338.214 78.6943 337.18 79.3896L335.714 80.3761C334.708 81.0533 333.334 80.636 332.876 79.5156L331.113 75.2011C330.511 73.7282 328.473 73.5952 327.681 74.978L325.144 79.4153C324.506 80.5283 322.975 80.7131 322.094 79.7826L321.439 79.0916C320.607 78.2136 319.177 78.3198 318.482 79.3107L317.35 80.9272C316.667 81.9016 315.269 82.0233 314.428 81.1824L309.325 76.0747C308.307 75.0551 306.565 75.4876 306.142 76.865L303.919 84.101C303.559 85.2753 302.198 85.8104 301.134 85.1967L300.867 85.043C299.822 84.44 298.484 84.945 298.097 86.088L297.532 87.7644C297.138 88.9319 295.756 89.4273 294.708 88.778L292.98 87.7056C291.882 87.0244 290.435 87.6063 290.116 88.8581L289.449 91.4731C289.175 92.5453 288.05 93.1633 286.997 92.8168C285.616 92.3632 284.251 93.5538 284.516 94.9805L284.713 96.0369C284.924 97.1707 284.088 98.2315 282.934 98.2939L281.946 98.3475C280.733 98.4136 279.888 99.5764 280.201 100.749L284.352 116.266C279.915 118.889 275.952 122.463 279.539 129.306C285.486 140.652 273.172 133.625 279.015 148.489C284.859 163.351 276.666 171.903 296.139 170.128C296.367 172.976 296.403 175.828 297.604 179.421C299.79 185.958 304.452 197.94 312.41 204.824C320.367 211.708 326.456 215.961 333.414 214.21C333.414 214.21 339.183 223.254 340.996 230.032L382.854 218.835C382.854 218.835 390.638 212.759 388.459 203.417C388.459 203.417 378.145 195.742 373.006 183.448C376.186 182.829 379.439 181.311 381.663 178.013C387.522 169.323 378.534 170.563 383.325 165.066C388.118 159.569 392.31 150.744 388.838 147.02C385.366 143.297 392.532 125.245 383.895 126.538L383.899 126.54Z" fill="#BDA8A8"/>
<path d="M191.631 103.3L235.869 151.921L249.838 87.1987L191.631 103.3Z" fill="#DFE3D8"/>
<path d="M162.903 254.064C118.631 265.907 111.459 216.901 111.53 208.904C111.601 200.906 119.759 200.252 119.282 195.288C118.805 190.323 126.814 190.387 128.209 185.431C129.604 180.475 133.309 182.879 133.837 181.04C134.365 179.201 141.714 174.858 141.714 174.858L141.455 174.928C141.455 174.928 149.991 175.021 151.366 176.351C152.742 177.68 154.752 173.748 158.434 177.345C162.117 180.943 169.026 176.889 171.09 181.429C173.156 185.969 180.55 182.463 184.605 189.356C188.66 196.249 206.912 242.292 162.641 254.134" fill="#272731"/>
<path d="M137.872 161.529L137.837 165.683L140.317 176.024L135.491 184.747L132.922 175.144L128.331 164.939L128.692 176.99L141.678 225.537L149.562 223.428L147.778 216.759C146.957 213.692 151.643 213.01 151.643 213.01C151.643 213.01 156.043 211.261 156.864 214.329L158.647 220.998L166.531 218.889L153.545 170.342L147.84 159.72L148.958 170.855L151.526 180.457L142.99 175.309L139.976 165.111L137.872 161.529Z" fill="#AD9F5F"/>
<path d="M419.9 206.167C418.953 208.621 417.129 210.209 414.428 210.932C411.727 211.654 409.344 211.191 407.277 209.544C405.232 207.89 403.752 205.352 402.836 201.929C401.92 198.506 401.936 195.568 402.883 193.114C403.85 190.655 405.684 189.064 408.385 188.341C411.087 187.619 413.46 188.084 415.505 189.738C417.571 191.385 419.062 193.921 419.978 197.344C420.893 200.766 420.868 203.708 419.9 206.167ZM413.496 207.447C415.117 207.013 416.173 206.008 416.664 204.432C417.155 202.856 417.065 200.812 416.394 198.302C415.722 195.792 414.78 193.977 413.568 192.857C412.355 191.736 410.938 191.393 409.318 191.826C407.718 192.254 406.662 193.259 406.15 194.841C405.659 196.417 405.749 198.46 406.42 200.97C407.092 203.48 408.034 205.296 409.246 206.416C410.48 207.531 411.896 207.875 413.496 207.447Z" fill="#DA663A"/>
<path d="M392.949 201.707C395.026 201.151 396.949 201.303 398.715 202.165C400.476 203.005 401.648 204.514 402.231 206.692C402.814 208.871 402.534 210.779 401.391 212.419C400.249 214.058 398.608 215.164 396.468 215.736C394.743 216.198 393.111 216.212 391.57 215.779C390.024 215.326 388.767 214.417 387.801 213.053L390.413 210.454C391.521 212.269 393.229 212.868 395.535 212.251C396.761 211.923 397.655 211.351 398.215 210.534C398.791 209.691 398.935 208.73 398.647 207.651C398.358 206.572 397.767 205.819 396.873 205.391C395.98 204.964 394.93 204.911 393.725 205.233L387.367 206.934L385.079 195.009L397.234 191.758L398.133 195.118L389.281 197.486L390.206 202.44L392.949 201.707Z" fill="#DA663A"/>
<path d="M372.78 221.639L372.031 218.839L377.563 209.056C378.919 206.715 379.416 204.871 379.055 203.522C378.772 202.464 378.231 201.731 377.432 201.323C376.647 200.888 375.767 200.801 374.79 201.062C372.962 201.551 371.853 202.815 371.463 204.853L367.965 203.888C368.262 202.253 368.934 200.895 369.981 199.815C371.028 198.734 372.31 197.991 373.827 197.586C375.739 197.074 377.541 197.237 379.234 198.073C380.927 198.909 382.051 200.365 382.606 202.439C383.2 204.659 382.596 207.354 380.795 210.526L377.186 216.76L386.224 214.342L387.148 217.796L372.78 221.639Z" fill="#DA663A"/>
<path d="M293.335 214.93L297.431 213.834L304.09 238.727L299.994 239.823L297.111 229.048L286.426 231.906L289.308 242.681L285.212 243.777L278.553 218.884L282.649 217.788L285.379 227.994L296.065 225.136L293.335 214.93Z" fill="#DA663A"/>
<path d="M273.147 247.5C270.748 248.142 268.56 248.143 266.582 247.503C264.628 246.857 263.065 245.675 261.893 243.956L264.868 240.95C266.613 243.481 269.053 244.327 272.188 243.489C273.731 243.076 274.804 242.471 275.405 241.675C276.024 240.849 276.203 239.95 275.943 238.978C275.671 237.959 275.049 237.299 274.078 237C273.101 236.677 271.471 236.478 269.186 236.404C267.903 236.366 266.853 236.291 266.034 236.18C265.216 236.068 264.318 235.851 263.341 235.528C262.381 235.175 261.589 234.638 260.963 233.916C260.337 233.194 259.876 232.276 259.578 231.162C258.988 228.957 259.305 227.005 260.53 225.306C261.749 223.582 263.462 222.425 265.67 221.835C267.665 221.301 269.54 221.32 271.297 221.892C273.053 222.464 274.563 223.495 275.827 224.986L272.904 227.902C271.238 225.858 269.182 225.163 266.736 225.818C265.549 226.135 264.675 226.674 264.115 227.433C263.548 228.169 263.392 229.011 263.645 229.96C263.893 230.884 264.445 231.524 265.304 231.879C266.179 232.203 267.646 232.408 269.705 232.492C270.737 232.546 271.489 232.599 271.961 232.651C272.45 232.673 273.131 232.744 274.003 232.867C274.899 232.983 275.594 233.153 276.086 233.377C276.579 233.6 277.117 233.901 277.701 234.278C278.31 234.649 278.794 235.129 279.155 235.718C279.517 236.308 279.805 237.005 280.021 237.811C280.623 240.064 280.283 242.073 278.999 243.839C277.733 245.574 275.782 246.795 273.147 247.5Z" fill="#DA663A"/>
<path d="M258.25 250.989L255.163 246.442L244.549 249.281L244.145 254.762L239.692 255.953L242.081 228.64L246.996 227.325L262.667 249.808L258.25 250.989ZM244.875 245.078L252.782 242.963L245.823 232.783L244.875 245.078Z" fill="#DA663A"/>
<path d="M228.181 259.528C224.429 260.532 220.989 260.131 217.86 258.326C214.724 256.497 212.668 253.757 211.691 250.106C210.715 246.455 211.131 243.067 212.942 239.941C214.745 236.791 217.523 234.714 221.275 233.71C223.531 233.107 225.751 233.084 227.937 233.643C230.145 234.195 232.028 235.241 233.585 236.781L230.575 239.796C229.58 238.741 228.347 238.03 226.874 237.662C225.419 237.263 223.908 237.274 222.34 237.693C219.681 238.405 217.745 239.824 216.533 241.952C215.345 244.074 215.096 246.427 215.788 249.011C216.479 251.595 217.869 253.509 219.958 254.754C222.07 255.993 224.456 256.256 227.116 255.545C228.683 255.126 230.013 254.389 231.105 253.335C232.191 252.257 232.889 251.016 233.2 249.611L237.305 250.686C236.748 252.791 235.654 254.646 234.022 256.251C232.408 257.826 230.461 258.918 228.181 259.528Z" fill="#DA663A"/>
<path d="M100.599 304.209L113.958 300.635L114.868 304.036L94.7338 309.422L93.8241 306.021L97.1167 305.14L95.1559 297.81L92.5067 298.519L91.6779 295.42L94.3271 294.712L92.9728 289.649C92.2787 287.054 92.5286 284.855 93.7223 283.051C94.9412 281.241 96.623 280.048 98.7676 279.475C100.559 278.996 102.223 279.05 103.759 279.638C105.288 280.2 106.6 281.212 107.694 282.674L105.224 285.116C103.772 283.022 101.935 282.271 99.7151 282.865C98.4283 283.209 97.4638 283.899 96.8216 284.935C96.1726 285.945 96.057 287.231 96.4748 288.793L97.8089 293.78L106.211 291.533L107.04 294.631L98.6377 296.879L100.599 304.209Z" fill="#DA663A"/>
<path d="M87.0967 251.046L94.4487 253.288L96.8058 250.807L86.164 247.45L87.0987 251.043L87.1002 251.048L87.0967 251.046Z" fill="url(#paint6_linear_195_12622)"/>
<path d="M91.6137 268.438L100.936 257.879L104.42 258.978L92.5573 272.031L91.6212 268.433L91.6145 268.44L91.6137 268.438Z" fill="url(#paint7_linear_195_12622)"/>
<path d="M87.691 253.345L81.2189 261.68L90.8759 265.59L102.739 252.537L99.2546 251.438L95.3163 255.908L87.691 253.345ZM89.9412 261.998L85.838 260.413L88.6148 256.897L93.2176 258.293L89.9419 262L89.9412 261.998Z" fill="url(#paint8_linear_195_12622)"/>
<path d="M84.9568 241.474L84.2014 238.573C84.0183 237.866 83.99 237.308 84.1213 236.894C84.2476 236.472 84.5612 236.198 85.0612 236.059C85.2982 235.996 85.5256 235.996 85.7441 236.051C85.9564 236.105 86.1514 236.216 86.3319 236.372C86.5124 236.528 86.6712 236.725 86.8073 236.969C86.9433 237.212 87.0444 237.48 87.1252 237.782L87.6459 239.783L88.92 239.437L89.1541 240.334L84.9577 241.488L84.9541 241.475L84.9568 241.474ZM86.2421 238.012C86.2144 237.909 86.1776 237.793 86.1247 237.662C86.0703 237.524 86.0015 237.4 85.9212 237.287C85.8394 237.169 85.7442 237.078 85.632 237.012C85.5198 236.945 85.4 236.928 85.265 236.964C85.1768 236.988 85.109 237.032 85.0649 237.099C85.016 237.159 84.9851 237.231 84.9732 237.319C84.955 237.406 84.9521 237.494 84.9617 237.596C84.9637 237.692 84.9802 237.787 85.0029 237.883C85.018 237.972 85.0358 238.061 85.0589 238.136L85.1121 238.335L85.6327 240.336L86.7787 240.018L86.258 238.017L86.2441 238.009L86.2421 238.012ZM85.6682 235.547C85.2962 235.646 84.9584 235.663 84.6485 235.598C84.3364 235.524 84.0614 235.378 83.8165 235.158C83.5639 234.931 83.3497 234.638 83.1657 234.271C82.9817 233.903 82.8266 233.477 82.6935 232.991C82.5632 232.504 82.4806 232.018 82.4472 231.596C82.4111 231.174 82.4489 230.796 82.5432 230.464C82.6383 230.136 82.8053 229.855 83.0428 229.628C83.274 229.4 83.5898 229.234 83.9906 229.121C84.3653 229.02 84.7066 229.005 85.0111 229.084C85.3156 229.163 85.5826 229.322 85.8339 229.555C86.0707 229.789 86.2844 230.102 86.4686 230.482C86.6528 230.861 86.8081 231.31 86.9381 231.818C87.0707 232.325 87.1388 232.756 87.1595 233.164C87.1817 233.578 87.1376 233.943 87.0451 234.259C86.9436 234.575 86.784 234.84 86.554 235.062C86.3226 235.278 86.022 235.434 85.657 235.538L85.6709 235.546L85.6682 235.547ZM85.4396 234.648C85.616 234.601 85.7608 234.524 85.8664 234.411C85.9715 234.307 86.0589 234.182 86.1185 234.041C86.1795 233.893 86.2119 233.739 86.2255 233.569C86.2404 233.393 86.2395 233.224 86.2364 233.047C86.2244 232.869 86.1992 232.698 86.1658 232.529C86.1317 232.357 86.0985 232.2 86.0599 232.055C86.0213 231.911 85.9728 231.752 85.9214 231.582C85.8693 231.409 85.8022 231.247 85.7218 231.078C85.6421 230.913 85.5549 230.753 85.4554 230.601C85.3551 230.447 85.2477 230.321 85.124 230.223C85.0009 230.116 84.8637 230.045 84.7173 230.005C84.566 229.958 84.403 229.967 84.2266 230.014C84.0503 230.061 83.92 230.137 83.8131 230.256C83.7012 230.368 83.6152 230.499 83.562 230.653C83.5025 230.806 83.4619 230.974 83.4402 231.158C83.4185 231.342 83.4168 231.523 83.4235 231.714C83.4343 231.897 83.4541 232.082 83.4794 232.265C83.5122 232.442 83.5454 232.6 83.58 232.751C83.6145 232.902 83.6676 233.045 83.721 233.212C83.7812 233.371 83.8464 233.537 83.9279 233.687C84.0074 233.841 84.1014 233.994 84.2036 234.133C84.3057 234.272 84.413 234.386 84.5442 234.479C84.6664 234.572 84.8062 234.631 84.9498 234.671C85.0962 234.711 85.2502 234.702 85.4203 234.653L85.4479 234.646L85.4396 234.648ZM81.9902 230.052L81.7158 228.982L84.2443 226.361L80.9533 225.205L83.2132 222.451L79.7665 221.486L79.493 220.43L84.3608 221.841L84.498 222.376L82.5506 224.775L85.3802 225.762L85.5174 226.297L81.9944 230.057L81.9929 230.052L81.9902 230.052ZM79.3918 220.052L78.2302 215.588L79.065 215.365L79.9911 218.926L80.5422 218.779L79.6774 215.458L80.5052 215.23L81.3693 218.549L82.5215 218.232L81.5947 214.668L82.4295 214.444L83.5896 218.903L79.3933 220.057L79.3918 220.052ZM81.313 210.094L80.3183 211.53L80.804 213.4L82.0727 213.055L82.3067 213.952L78.1103 215.107L77.3549 212.206C77.1718 211.499 77.1436 210.941 77.2748 210.527C77.4012 210.105 77.7148 209.831 78.2147 209.692C78.3856 209.646 78.5526 209.631 78.7112 209.649C78.8698 209.668 79.0224 209.709 79.1685 209.781C79.3119 209.853 79.4418 209.953 79.5631 210.075C79.6836 210.194 79.7996 210.341 79.8986 210.501L80.9992 208.921L81.304 210.093L81.3095 210.092L81.313 210.094ZM79.3969 211.639C79.3692 211.535 79.3324 211.42 79.2795 211.288C79.2251 211.151 79.1564 211.027 79.076 210.914C78.988 210.795 78.89 210.704 78.7868 210.638C78.6746 210.572 78.5548 210.555 78.4198 210.591C78.3316 210.614 78.2638 210.659 78.2197 210.726C78.1708 210.786 78.14 210.858 78.128 210.946C78.1098 211.032 78.1069 211.121 78.1166 211.223C78.1185 211.319 78.135 211.414 78.1578 211.51C78.1728 211.599 78.1906 211.687 78.2137 211.763L78.2669 211.962L78.7875 213.963L79.9398 213.646L79.4191 211.645L79.3997 211.638L79.3969 211.639ZM76.2558 207.964L75.9814 206.894L78.5099 204.272L75.2189 203.117L77.4788 200.363L74.0322 199.398L73.7586 198.342L78.6264 199.752L78.7636 200.287L76.8162 202.687L79.6459 203.674L79.783 204.209L76.26 207.969L76.2585 207.963L76.2558 207.964ZM73.4272 197.092L77.6388 195.939L77.8723 196.845L73.6607 197.998L73.4272 197.092ZM73.2791 196.516L73.0456 195.61L75.1087 191.083L72.0831 191.913L71.8491 191.016L76.0454 189.861L76.2795 190.758L74.1545 195.308L77.2399 194.459L77.474 195.356L73.2776 196.511L73.2791 196.516Z" fill="black"/>
<path d="M259.767 157.411L253.958 176.377L260.37 182.448L269.077 154.992L259.784 157.411L259.767 157.411Z" fill="url(#paint9_linear_195_12622)"/>
<path d="M214.784 169.096L242.073 193.115L239.224 202.103L205.488 171.533L214.801 169.113L214.784 169.096Z" fill="url(#paint10_linear_195_12622)"/>
<path d="M253.828 158.945L232.28 142.271L222.15 167.183L255.884 197.754L258.732 188.766L247.181 178.614L253.825 158.946L253.828 158.945ZM231.443 164.764L235.552 154.181L244.643 161.335L241.025 173.206L231.443 164.764Z" fill="url(#paint11_linear_195_12622)"/>
<path d="M168.319 121.901L174.714 120.233C176.271 119.829 177.501 119.762 178.417 120.048C179.348 120.318 179.948 121 180.247 122.09C180.39 122.606 180.384 123.101 180.261 123.579C180.136 124.041 179.895 124.468 179.55 124.863C179.205 125.257 178.77 125.605 178.235 125.905C177.699 126.203 177.106 126.429 176.44 126.607L172.025 127.757L172.778 130.53L170.796 131.048L168.287 121.917L168.317 121.904L168.319 121.901ZM175.938 124.674C176.164 124.611 176.422 124.532 176.712 124.412C177.017 124.292 177.291 124.143 177.539 123.964C177.802 123.785 178.006 123.575 178.148 123.332C178.293 123.091 178.333 122.83 178.257 122.534C178.205 122.343 178.106 122.193 177.961 122.099C177.83 121.991 177.669 121.927 177.475 121.905C177.282 121.868 177.089 121.86 176.863 121.88C176.652 121.887 176.442 121.921 176.231 121.971C176.035 122.006 175.84 122.042 175.672 122.094L175.233 122.207L170.817 123.357L171.507 125.849L175.923 124.699L175.939 124.671L175.938 124.674ZM181.376 123.405C181.155 122.595 181.125 121.862 181.273 121.184C181.435 120.505 181.759 119.906 182.246 119.371C182.748 118.822 183.395 118.352 184.205 117.947C185.015 117.542 185.957 117.2 187.031 116.907C188.105 116.615 189.174 116.439 190.105 116.361C191.036 116.282 191.87 116.358 192.595 116.565C193.32 116.768 193.934 117.128 194.435 117.644C194.938 118.146 195.299 118.833 195.546 119.703C195.767 120.513 195.795 121.26 195.62 121.924C195.442 122.588 195.09 123.171 194.574 123.721C194.059 124.24 193.366 124.708 192.527 125.111C191.688 125.515 190.7 125.855 189.583 126.144C188.463 126.434 187.516 126.585 186.616 126.638C185.702 126.689 184.897 126.597 184.204 126.395C183.509 126.178 182.925 125.832 182.438 125.331C181.965 124.831 181.618 124.174 181.395 123.378L181.379 123.406L181.376 123.405ZM183.355 122.902C183.458 123.286 183.625 123.599 183.869 123.826C184.1 124.055 184.376 124.241 184.685 124.37C185.009 124.5 185.35 124.571 185.723 124.602C186.11 124.632 186.485 124.632 186.875 124.62C187.266 124.592 187.642 124.534 188.019 124.462C188.395 124.39 188.743 124.316 189.06 124.226C189.377 124.137 189.727 124.034 190.106 123.918C190.485 123.802 190.85 123.657 191.215 123.481C191.581 123.307 191.933 123.115 192.271 122.896C192.608 122.677 192.888 122.44 193.107 122.172C193.344 121.904 193.504 121.604 193.594 121.287C193.698 120.954 193.68 120.604 193.578 120.222C193.475 119.837 193.306 119.554 193.047 119.325C192.803 119.081 192.512 118.895 192.172 118.781C191.834 118.65 191.462 118.563 191.061 118.518C190.66 118.473 190.255 118.472 189.836 118.484C189.43 118.511 189.024 118.553 188.619 118.609C188.228 118.681 187.88 118.755 187.547 118.829C187.214 118.904 186.895 119.023 186.533 119.139C186.184 119.27 185.817 119.416 185.482 119.591C185.145 119.767 184.809 119.972 184.501 120.194C184.193 120.415 183.944 120.653 183.738 120.937C183.534 121.206 183.401 121.506 183.313 121.825C183.225 122.141 183.241 122.477 183.345 122.847L183.361 122.905L183.355 122.902ZM193.509 115.36L195.868 114.755L201.624 120.239L204.194 113.062L210.244 117.96L212.394 110.444L214.723 109.838L211.578 120.449L210.4 120.752L205.128 116.527L202.929 122.698L201.75 123.001L193.494 115.359L193.509 115.36ZM215.569 109.624L225.413 107.059L225.905 108.873L218.044 110.919L218.368 112.114L225.687 110.206L226.18 112.006L218.861 113.913L219.551 116.42L227.413 114.374L227.905 116.188L218.062 118.755L215.552 109.623L215.567 109.624L215.569 109.624ZM237.494 113.731L234.336 111.577L230.208 112.65L230.962 115.409L228.98 115.927L226.471 106.796L232.866 105.128C234.423 104.723 235.653 104.656 236.569 104.942C237.5 105.212 238.1 105.895 238.399 106.987C238.503 107.357 238.534 107.722 238.489 108.07C238.444 108.418 238.356 108.751 238.195 109.066C238.033 109.38 237.811 109.664 237.546 109.93C237.28 110.196 236.956 110.445 236.602 110.666L240.08 113.053L237.494 113.724L237.493 113.738L237.494 113.731ZM234.105 109.569C234.331 109.506 234.589 109.428 234.879 109.307C235.183 109.188 235.458 109.038 235.706 108.86C235.969 108.666 236.171 108.457 236.315 108.228C236.46 107.986 236.5 107.726 236.423 107.429C236.372 107.238 236.273 107.089 236.128 106.994C235.997 106.886 235.836 106.822 235.642 106.8C235.449 106.764 235.256 106.756 235.03 106.776C234.819 106.782 234.609 106.817 234.398 106.866C234.202 106.902 234.007 106.938 233.839 106.989L233.399 107.102L228.984 108.253L229.673 110.759L234.089 109.609L234.106 109.566L234.105 109.569ZM242.225 102.703L244.585 102.098L250.341 107.582L252.91 100.404L258.96 105.302L261.111 97.7867L263.439 97.1805L260.294 107.791L259.116 108.095L253.844 103.87L251.645 110.041L250.467 110.344L242.21 102.702L242.225 102.703ZM266.207 96.4615L268.717 105.622L266.72 106.139L264.21 96.9789L266.207 96.4615ZM267.477 96.1338L269.473 95.6164L279.432 100.073L277.624 93.4931L279.607 92.9748L282.116 102.106L280.134 102.625L270.122 98.034L271.97 104.746L269.988 105.265L267.479 96.1332L267.477 96.1338Z" fill="black"/>
</g>
<path d="M352.319 0.97334L0.0800781 154.869L79.2976 336.183L431.536 182.288L352.319 0.97334Z" fill="#ECECEC"/>
<path d="M70.2036 160.469C69.6356 163.037 68.0705 164.881 65.5082 166.001C62.946 167.12 60.5199 167.02 58.23 165.701C55.9598 164.373 54.1154 162.085 52.6968 158.838C51.2783 155.592 50.853 152.684 51.421 150.116C52.0086 147.539 53.5836 145.691 56.1458 144.572C58.7081 143.452 61.1243 143.557 63.3945 144.885C65.6845 146.204 67.5387 148.487 68.9572 151.734C70.3758 154.981 70.7912 157.893 70.2036 160.469ZM64.0639 162.695C65.6012 162.023 66.4946 160.871 66.7438 159.239C66.9931 157.607 66.5976 155.601 65.5573 153.22C64.5171 150.839 63.3135 149.185 61.9466 148.259C60.5797 147.333 59.1275 147.206 57.5902 147.878C56.0725 148.541 55.1792 149.693 54.9102 151.333C54.661 152.965 55.0565 154.972 56.0967 157.353C57.137 159.734 58.3406 161.387 59.7075 162.313C61.0941 163.231 62.5463 163.358 64.0639 162.695Z" fill="#DA663A"/>
<path d="M42.8861 160.102C44.857 159.24 46.7804 159.103 48.6562 159.69C50.5234 160.256 51.9084 161.573 52.8111 163.639C53.7138 165.705 53.7234 167.634 52.8398 169.426C51.9563 171.218 50.4995 172.558 48.4694 173.445C46.8335 174.16 45.2215 174.419 43.6334 174.222C42.0367 174.006 40.6584 173.296 39.4987 172.092L41.6905 169.13C43.0591 170.759 44.8373 171.095 47.025 170.139C48.1879 169.631 48.9853 168.931 49.4172 168.039C49.8602 167.119 49.8582 166.148 49.4112 165.124C48.9641 164.101 48.2667 163.445 47.319 163.156C46.3712 162.867 45.3257 162.972 44.1826 163.472L38.1515 166.107L34.1008 154.66L45.631 149.623L47.0237 152.81L38.6274 156.479L40.2844 161.238L42.8861 160.102Z" fill="#DA663A"/>
<path d="M25.9355 182.833L24.7749 180.177L28.7775 169.675C29.7665 167.158 29.9816 165.259 29.4228 163.98C28.9843 162.977 28.3393 162.333 27.4875 162.049C26.6469 161.736 25.7634 161.783 24.8371 162.187C23.1027 162.945 22.1955 164.361 22.1157 166.435L18.5129 166.005C18.5615 164.343 19.0223 162.9 19.8954 161.675C20.7685 160.45 21.9244 159.523 23.3632 158.895C25.1765 158.102 26.9829 157.993 28.7823 158.566C30.5818 159.139 31.9114 160.409 32.7711 162.377C33.691 164.482 33.4984 167.238 32.1932 170.643L29.5596 177.348L38.1333 173.602L39.5647 176.878L25.9355 182.833Z" fill="#DA663A"/>
<path d="M76.2555 121.587L80.3014 130.848C80.3014 130.848 70.6062 136.275 75.3646 147.167L86.3387 172.284L127.919 154.118L116.896 128.889C116.896 128.889 112.321 116.726 101.297 121.542L97.1887 112.442L76.2555 121.587Z" fill="#B1B1B1"/>
<path d="M122.22 113.843L322.238 26.4538L339.22 37.9274L353.65 31.6229L415.515 173.22L191.016 271.305C191.016 271.305 180.844 251.335 189.005 242.656C197.166 233.976 179.028 221.448 179.028 221.448C179.028 221.448 184.63 211.472 177.387 194.893C170.143 178.314 158.411 177.191 158.411 177.191C158.411 177.191 164.717 159.379 154.92 155.847C145.123 152.315 136.135 146.868 131.726 135.727C127.317 124.586 122.22 113.847 122.22 113.847L122.22 113.843Z" fill="#DCA28C"/>
<path d="M296.322 203.201L340.718 183.804L320.268 136.997L386.949 107.863L353.605 31.5451L259.819 72.5207L264.578 83.412L247.286 90.9669L296.322 203.201Z" fill="#715A54"/>
<path d="M233.403 52.9284L232.329 65.736L322.239 26.454L323.284 13.6589L233.403 52.9284Z" fill="#CE7A5F"/>
<path d="M314.986 217.141L315.282 233.08L405.191 193.798L404.868 177.871L314.986 217.141Z" fill="#CE7A5F"/>
<path d="M76.9002 178.852L33.8594 197.657L34.7532 199.703L77.7941 180.898L76.9002 178.852Z" fill="#DCA28C"/>
<path d="M78.7576 183.101L35.7168 201.906L36.6107 203.952L79.6515 185.147L78.7576 183.101Z" fill="#DCA28C"/>
<path d="M106.999 132.205C101.797 132.051 98.4111 138.115 98.4111 138.115L97.2866 137.707L96.495 135.895C96.495 135.895 97.5181 134.009 96.5285 131.744C95.5389 129.479 93.131 132.42 93.131 132.42C93.131 132.42 89.337 132.189 90.3266 134.454C91.3163 136.719 93.3951 137.25 93.3951 137.25L94.1867 139.061L93.722 140.164C93.722 140.164 86.972 138.528 83.5512 142.45C80.1304 146.372 85.0333 152.232 88.7302 154.303C92.427 156.374 93.9552 159.664 93.9552 159.664L112.563 151.534C112.563 151.534 111.187 148.179 112.18 144.058C113.172 139.938 112.203 132.359 107.001 132.204L106.999 132.205Z" fill="#272731"/>
<path d="M348.966 94.0556C343.971 95.5964 342.406 91.6848 340.379 88.9853L342.596 82.194C342.726 81.7968 342.722 81.3674 342.585 80.9732L339.753 72.8671C339.408 71.8768 338.326 71.3521 337.332 71.6917L337.206 71.7339C336.085 72.1167 334.89 71.4003 334.702 70.2327L334.447 68.6518C334.273 67.5677 333.222 66.8555 332.148 67.0927L330.646 67.425C329.702 67.6341 328.751 67.1062 328.431 66.1958L326.795 61.5497C326.393 60.4074 325.041 59.9248 324.003 60.5515L319.704 63.1471C318.637 63.791 317.25 63.262 316.887 62.0715L316.412 60.5171C316.063 59.3708 314.754 58.8267 313.692 59.3879L312.606 59.9604C311.446 60.5721 310.029 59.8631 309.826 58.5699L309.277 55.0705C309.051 53.6297 307.355 52.9659 306.206 53.8686L302.305 56.9375C301.373 57.6715 300.005 57.3889 299.441 56.3476L298.68 54.9401C298.087 53.846 296.622 53.602 295.704 54.4444L294.403 55.6396C293.51 56.46 292.089 56.2534 291.468 55.2144L289.078 51.213C288.262 49.8472 286.227 50.0213 285.652 51.5071L283.808 56.2749C283.345 57.4708 281.859 57.8831 280.848 57.0954L280.097 56.5104C279.143 55.767 277.745 56.0865 277.207 57.1704L276.329 58.9385C275.8 60.0042 274.436 60.3342 273.479 59.629L267.667 55.3443C266.508 54.489 264.85 55.1777 264.639 56.6029L263.527 64.0905C263.346 65.3055 262.081 66.0387 260.937 65.5915L260.65 65.4796C259.526 65.0401 258.279 65.74 258.068 66.9281L257.76 68.6704C257.546 69.8837 256.254 70.5808 255.121 70.0959L253.251 69.2949C252.064 68.786 250.721 69.5783 250.593 70.8638L250.326 73.5493C250.216 74.6504 249.196 75.4302 248.103 75.2455C246.67 75.0041 245.498 76.386 245.975 77.7568L246.327 78.7718C246.706 79.8611 246.039 81.0352 244.907 81.2699L243.939 81.4711C242.749 81.7184 242.088 82.9948 242.574 84.1067L249.004 98.8258C245.011 102.085 241.628 106.213 246.201 112.44C253.783 122.767 240.554 117.666 248.56 131.485C256.567 145.302 249.749 154.986 268.736 150.311C269.388 153.093 269.852 155.907 271.578 159.279C274.719 165.415 281.125 176.563 290.025 182.175C298.925 187.788 305.583 191.079 312.2 188.305C312.2 188.305 319.26 196.381 322.069 202.811L361.775 185.464C361.775 185.464 368.559 178.289 365.003 169.379C365.003 169.379 353.655 163.338 346.731 151.953C349.782 150.865 352.77 148.876 354.475 145.281C358.965 135.811 350.264 138.385 354.177 132.232C358.091 126.078 360.912 116.724 356.921 113.563C352.93 110.403 357.308 91.4806 348.962 94.0538L348.966 94.0556Z" fill="#BDA8A8"/>
<path d="M155.389 99.9118L206.418 141.349L210.523 75.2634L155.389 99.9118Z" fill="#DFE3D8"/>
<path d="M149.594 253.279C107.6 271.627 93.1595 224.251 92.0299 216.334C90.9013 208.415 98.8688 206.546 97.6525 201.709C96.4362 196.872 104.365 195.735 105 190.625C105.636 185.516 109.659 187.337 109.906 185.44C110.152 183.543 116.767 178.147 116.767 178.147L116.521 178.254C116.521 178.254 124.975 177.066 126.534 178.175C128.093 179.283 129.491 175.093 133.671 178.098C137.852 181.103 144.075 176.058 146.797 180.238C149.519 184.416 156.305 179.841 161.348 186.048C166.39 192.255 191.341 235.04 149.346 253.388" fill="#272731"/>
<path d="M110.969 165.544L111.558 169.657L115.56 179.509L112.097 188.857L108.117 179.748L102.048 170.346L104.212 182.207L124.332 228.258L131.81 224.991L129.046 218.665C127.774 215.755 132.305 214.378 132.305 214.378C132.305 214.378 136.393 211.989 137.664 214.899L140.428 221.225L147.906 217.958L127.786 171.907L120.554 162.261L123.328 173.102L127.308 182.211L118.096 178.401L113.586 168.77L110.969 165.544Z" fill="#AD9F5F"/>
<path d="M396.502 167.383C395.934 169.951 394.369 171.795 391.807 172.914C389.245 174.034 386.819 173.934 384.529 172.614C382.259 171.286 380.414 168.999 378.996 165.752C377.577 162.505 377.152 159.598 377.72 157.029C378.307 154.453 379.882 152.605 382.445 151.485C385.007 150.366 387.423 150.47 389.693 151.798C391.983 153.118 393.838 155.401 395.256 158.647C396.675 161.894 397.09 164.806 396.502 167.383ZM390.363 169.608C391.9 168.937 392.793 167.785 393.043 166.153C393.292 164.52 392.896 162.514 391.856 160.133C390.816 157.752 389.612 156.098 388.245 155.172C386.878 154.247 385.426 154.119 383.889 154.791C382.371 155.454 381.478 156.606 381.209 158.247C380.96 159.879 381.355 161.885 382.396 164.266C383.436 166.647 384.639 168.301 386.006 169.227C387.393 170.144 388.845 170.271 390.363 169.608Z" fill="#DA663A"/>
<path d="M369.185 167.015C371.156 166.154 373.079 166.016 374.955 166.603C376.822 167.17 378.207 168.486 379.11 170.552C380.013 172.618 380.022 174.548 379.139 176.34C378.255 178.132 376.798 179.471 374.768 180.358C373.132 181.073 371.52 181.332 369.932 181.135C368.335 180.919 366.957 180.209 365.797 179.005L367.989 176.044C369.358 177.672 371.136 178.008 373.324 177.052C374.487 176.544 375.284 175.844 375.716 174.953C376.159 174.033 376.157 173.061 375.71 172.038C375.263 171.015 374.566 170.358 373.618 170.069C372.67 169.781 371.625 169.886 370.481 170.385L364.45 173.02L360.4 161.573L371.93 156.536L373.323 159.724L364.926 163.392L366.583 168.152L369.185 167.015Z" fill="#DA663A"/>
<path d="M352.234 189.746L351.074 187.09L355.076 176.589C356.065 174.071 356.28 172.173 355.722 170.893C355.283 169.89 354.638 169.246 353.786 168.962C352.946 168.65 352.062 168.696 351.136 169.101C349.401 169.859 348.494 171.274 348.414 173.348L344.812 172.918C344.86 171.257 345.321 169.813 346.194 168.588C347.067 167.363 348.223 166.436 349.662 165.808C351.475 165.016 353.282 164.906 355.081 165.479C356.881 166.052 358.21 167.322 359.07 169.29C359.99 171.395 359.797 174.151 358.492 177.557L355.858 184.261L364.432 180.515L365.864 183.792L352.234 189.746Z" fill="#DA663A"/>
<path d="M272.68 195.028L276.566 193.33L286.882 216.943L282.997 218.641L278.531 208.419L268.395 212.848L272.861 223.069L268.975 224.767L258.658 201.154L262.544 199.456L266.774 209.138L276.91 204.709L272.68 195.028Z" fill="#DA663A"/>
<path d="M257.606 230.257C255.331 231.251 253.168 231.58 251.116 231.244C249.088 230.899 247.365 229.964 245.948 228.44L248.438 225.023C250.544 227.263 253.083 227.733 256.057 226.434C257.521 225.795 258.49 225.036 258.965 224.159C259.453 223.25 259.496 222.334 259.093 221.412C258.671 220.445 257.957 219.886 256.952 219.736C255.938 219.563 254.296 219.611 252.026 219.88C250.752 220.035 249.702 220.118 248.876 220.131C248.05 220.144 247.13 220.064 246.116 219.891C245.114 219.686 244.25 219.273 243.523 218.654C242.796 218.034 242.202 217.195 241.74 216.138C240.826 214.047 240.848 212.069 241.804 210.205C242.75 208.319 244.27 206.918 246.365 206.003C248.257 205.176 250.114 204.914 251.936 205.216C253.758 205.518 255.406 206.311 256.879 207.596L254.427 210.917C252.473 209.146 250.336 208.767 248.016 209.781C246.89 210.273 246.107 210.937 245.667 211.772C245.217 212.584 245.189 213.44 245.582 214.34C245.965 215.217 246.607 215.766 247.509 215.988C248.423 216.178 249.904 216.16 251.952 215.935C252.981 215.834 253.732 215.773 254.207 215.753C254.693 215.701 255.377 215.67 256.258 215.66C257.162 215.641 257.874 215.705 258.394 215.852C258.915 216 259.492 216.216 260.126 216.501C260.783 216.777 261.334 217.179 261.78 217.707C262.225 218.236 262.615 218.882 262.949 219.647C263.883 221.783 263.847 223.821 262.843 225.759C261.852 227.665 260.106 229.164 257.606 230.257Z" fill="#DA663A"/>
<path d="M243.403 235.94L239.669 231.907L229.6 236.306L230.023 241.786L225.799 243.631L224.065 216.268L228.727 214.231L247.592 234.11L243.403 235.94ZM229.292 232.102L236.793 228.825L228.386 219.804L229.292 232.102Z" fill="#DA663A"/>
<path d="M214.953 248.892C211.394 250.447 207.932 250.567 204.568 249.251C201.193 247.913 198.75 245.513 197.237 242.05C195.724 238.586 195.627 235.174 196.948 231.811C198.259 228.427 200.694 225.957 204.253 224.402C206.393 223.467 208.585 223.112 210.829 223.336C213.096 223.551 215.114 224.303 216.885 225.592L214.361 229.024C213.219 228.131 211.893 227.612 210.381 227.469C208.883 227.293 207.39 227.53 205.904 228.18C203.381 229.282 201.68 230.976 200.801 233.262C199.944 235.537 200.051 237.901 201.122 240.352C202.193 242.803 203.855 244.488 206.107 245.405C208.381 246.313 210.779 246.216 213.302 245.114C214.789 244.464 215.993 243.536 216.915 242.33C217.826 241.102 218.331 239.77 218.428 238.335L222.647 238.781C222.413 240.946 221.609 242.944 220.236 244.776C218.877 246.575 217.115 247.947 214.953 248.892Z" fill="#DA663A"/>
<path d="M103.702 300.847C104.528 302.603 104.663 304.294 104.104 305.92C103.556 307.516 102.469 308.835 100.843 309.878L102.141 312.637L100.221 313.541L98.937 310.813C97.2536 311.479 95.6364 311.672 94.0853 311.393C92.5342 311.113 91.1671 310.381 89.9839 309.196L92.0772 306.052C93.6225 307.547 95.3596 307.966 97.2886 307.31L94.2542 300.863C93.2025 300.929 92.3377 300.957 91.6598 300.948C90.9722 300.918 90.1965 300.804 89.3328 300.604C88.4888 300.396 87.7439 300.014 87.0981 299.46C86.4623 298.876 85.9206 298.108 85.4733 297.158C84.6563 295.422 84.5465 293.757 85.1437 292.163C85.741 290.57 86.8181 289.306 88.3751 288.371L87.0913 285.643L89.0117 284.739L90.3101 287.498C93.1244 286.628 95.6223 287.181 97.8039 289.159L95.755 292.243C94.6108 291.141 93.3501 290.737 91.9731 291.032L94.8616 297.169C95.6086 297.121 96.1737 297.095 96.5569 297.091C96.9598 297.078 97.4953 297.091 98.1632 297.13C98.8509 297.16 99.4105 297.25 99.8421 297.4C100.274 297.55 100.744 297.758 101.254 298.023C101.783 298.279 102.248 298.653 102.649 299.146C103.039 299.619 103.39 300.185 103.702 300.847ZM88.8709 295.559C89.1724 296.199 89.5976 296.643 90.1467 296.889C90.7154 297.127 91.5205 297.252 92.5619 297.267L90.0236 291.874C89.3532 292.341 88.9083 292.903 88.6889 293.562C88.4893 294.211 88.5499 294.877 88.8709 295.559ZM99.1943 306.376C99.9044 305.84 100.35 305.226 100.53 304.536C100.71 303.845 100.64 303.159 100.319 302.477C99.9977 301.795 99.543 301.34 98.9545 301.112C98.3564 300.863 97.5513 300.737 96.5393 300.734L99.1943 306.376Z" fill="#DA663A"/>
<path d="M52.4043 216.336L52.1 215.675L52.657 212.144L50.8565 212.973L50.5542 212.316L53.0529 211.166L53.3553 211.823L52.7638 215.375L54.6007 214.529L54.9031 215.186L52.4043 216.336Z" fill="#A57B31"/>
<path d="M52.5961 216.758L55.1015 215.605L55.4058 216.266L52.9004 217.419L52.5961 216.758Z" fill="#A57B31"/>
<path d="M56.252 224.698L55.8929 223.918L57.072 221.783L54.7643 221.143L55.7449 218.925L53.3719 218.44L53.0166 217.668L56.3771 218.391L56.5566 218.781L55.7108 220.708L57.6943 221.253L57.8738 221.643L56.252 224.698Z" fill="#A57B31"/>
<path d="M59.856 225.942L59.4629 227.083L60.0922 228.451L60.8468 228.103L61.1491 228.76L58.6504 229.91L57.6752 227.791C57.4384 227.277 57.3263 226.859 57.339 226.538C57.3504 226.214 57.504 225.984 57.7996 225.848C57.9011 225.801 58.005 225.78 58.1112 225.784C58.2161 225.786 58.3216 225.809 58.4274 225.853C58.5311 225.898 58.6329 225.962 58.7328 226.046C58.8327 226.129 58.9288 226.228 59.0211 226.341L59.4611 225.084L59.856 225.942ZM58.8899 227.232C58.8559 227.159 58.81 227.073 58.7524 226.977C58.6935 226.878 58.6283 226.789 58.5567 226.709C58.4817 226.627 58.4038 226.565 58.3228 226.523C58.2418 226.481 58.1616 226.478 58.0822 226.514C58.0292 226.539 57.9933 226.577 57.9743 226.629C57.9542 226.678 57.9467 226.734 57.9521 226.798C57.9552 226.863 57.967 226.932 57.9875 227.006C58.0067 227.077 58.0309 227.147 58.0602 227.216C58.086 227.284 58.1122 227.347 58.1386 227.404C58.1651 227.461 58.1871 227.509 58.2048 227.548L58.8776 229.01L59.5626 228.694L58.8899 227.232Z" fill="#870122"/>
<path d="M60.3164 233.528L58.8159 230.267L59.3123 230.039L60.5105 232.642L60.8381 232.491L59.7231 230.068L60.2163 229.841L61.3313 232.264L62.0163 231.949L60.8182 229.346L61.3146 229.117L62.8152 232.378L60.3164 233.528Z" fill="#870122"/>
<path d="M63.6797 240.832L63.3206 240.052L64.4998 237.917L62.192 237.277L63.1726 235.059L60.7996 234.574L60.4443 233.802L63.8048 234.525L63.9844 234.915L63.1386 236.842L65.122 237.387L65.3016 237.777L63.6797 240.832Z" fill="#870122"/>
<path d="M66.9703 244.687C66.7496 244.788 66.5348 244.824 66.3259 244.794C66.1157 244.762 65.9134 244.671 65.719 244.521C65.5211 244.37 65.3313 244.164 65.1495 243.903C64.9677 243.641 64.7949 243.333 64.6312 242.977C64.4611 242.607 64.3301 242.264 64.2381 241.948C64.1462 241.632 64.1037 241.348 64.1107 241.096C64.1165 240.842 64.1758 240.622 64.2886 240.437C64.3981 240.251 64.5719 240.103 64.8102 239.993C65.0331 239.891 65.2497 239.859 65.4602 239.898C65.6673 239.935 65.8694 240.035 66.0667 240.196C66.2605 240.356 66.4486 240.573 66.631 240.847C66.8134 241.122 66.9896 241.443 67.1597 241.813C67.3235 242.169 67.4477 242.5 67.5324 242.806C67.6149 243.113 67.6525 243.389 67.6452 243.635C67.6344 243.879 67.5752 244.09 67.4677 244.269C67.3567 244.446 67.1909 244.585 66.9703 244.687ZM66.6679 244.03C66.7716 243.982 66.8501 243.915 66.9034 243.827C66.9545 243.74 66.987 243.643 67.0008 243.533C67.0135 243.421 67.0105 243.302 66.992 243.174C66.9721 243.044 66.9444 242.914 66.9089 242.784C66.8698 242.653 66.8259 242.526 66.7771 242.402C66.727 242.276 66.678 242.161 66.6302 242.057C66.581 241.95 66.5242 241.835 66.4596 241.712C66.395 241.589 66.3243 241.468 66.2474 241.347C66.1684 241.228 66.0846 241.115 65.996 241.01C65.9075 240.905 65.8153 240.818 65.7195 240.749C65.6225 240.678 65.5239 240.632 65.4237 240.612C65.32 240.59 65.2163 240.602 65.1126 240.65C65.0111 240.697 64.9361 240.766 64.8875 240.858C64.8355 240.949 64.8033 241.053 64.791 241.171C64.7764 241.291 64.7792 241.419 64.7994 241.556C64.8173 241.693 64.8448 241.832 64.882 241.971C64.9191 242.109 64.9629 242.245 65.0133 242.378C65.0624 242.508 65.1116 242.626 65.1607 242.733C65.2086 242.837 65.2653 242.949 65.3308 243.068C65.395 243.184 65.4666 243.299 65.5453 243.412C65.6228 243.522 65.7068 243.626 65.7972 243.724C65.8842 243.82 65.9765 243.899 66.0742 243.96C66.1684 244.019 66.2661 244.057 66.3672 244.074C66.4662 244.091 66.5664 244.077 66.6679 244.03Z" fill="#870122"/>
<path d="M67.5156 249.169L66.5405 247.05C66.3036 246.536 66.1915 246.118 66.2042 245.797C66.2157 245.473 66.3692 245.243 66.6649 245.107C66.8061 245.042 66.9519 245.025 67.1022 245.055C67.249 245.084 67.3932 245.15 67.5347 245.254C67.6762 245.358 67.8113 245.495 67.9402 245.665C68.0668 245.835 68.1805 246.03 68.2813 246.249L68.9541 247.711L69.712 247.362L70.0144 248.019L67.5156 249.169ZM67.7518 246.493C67.7178 246.419 67.6719 246.334 67.6143 246.238C67.5554 246.139 67.4902 246.049 67.4187 245.969C67.3459 245.887 67.269 245.824 67.188 245.782C67.107 245.739 67.0268 245.737 66.9474 245.773C66.8944 245.798 66.8585 245.836 66.8396 245.887C66.8194 245.937 66.812 245.993 66.8173 246.057C66.8204 246.122 66.8322 246.191 66.8527 246.265C66.8719 246.335 66.8962 246.405 66.9254 246.475C66.9513 246.543 66.9774 246.605 67.0039 246.663C67.0303 246.72 67.0524 246.768 67.07 246.807L67.7428 248.268L68.4246 247.955L67.7518 246.493Z" fill="#870122"/>
<path d="M70.4161 258.052L76.6457 259.387L78.0089 256.948L68.9735 254.917L70.4161 258.052Z" fill="url(#paint12_linear_195_12622)"/>
<path d="M77.3968 273.22L82.6529 262.908L85.6092 263.574L78.8398 276.356L77.3968 273.22Z" fill="url(#paint13_linear_195_12622)"/>
<path d="M71.3403 260.057L67.8864 268.117L76.2549 270.736L83.0247 257.955L80.0684 257.289L77.8446 261.652L71.3403 260.057ZM74.8123 267.602L71.2717 266.559L72.7643 263.151L76.6598 263.976L74.8123 267.602Z" fill="url(#paint14_linear_195_12622)"/>
<path d="M230.868 143.193L227.969 162.815L235.218 167.856L239.71 139.405L230.885 143.19L230.868 143.193Z" fill="url(#paint15_linear_195_12622)"/>
<path d="M188.146 161.492L218.728 181.146L217.259 190.46L179.32 165.295L188.164 161.506L188.146 161.492Z" fill="url(#paint16_linear_195_12622)"/>
<path d="M225.226 145.6L201.421 132.347L195.141 158.496L233.078 183.662L234.547 174.348L221.604 166.044L225.224 145.601L225.226 145.6ZM203.967 154.71L206.442 143.631L216.504 149.341L214.707 161.62L203.967 154.71Z" fill="url(#paint17_linear_195_12622)"/>
<path d="M218.074 83.9775L219.535 83.3332L227.229 84.6083L225.506 80.6999L226.957 80.0596L229.35 85.484L227.898 86.1243L220.16 84.7741L221.918 88.7616L220.467 89.4019L218.074 83.9775Z" fill="#A57B31"/>
<path d="M217.135 84.3823L219.533 89.8211L218.073 90.4654L215.674 85.0266L217.135 84.3823Z" fill="#A57B31"/>
<path d="M199.598 92.1245L201.322 91.3641L205.933 93.956L207.446 88.9806L212.248 91.1451L213.426 86.0254L215.132 85.2731L213.387 92.5224L212.525 92.9026L208.352 91.0354L207.062 95.3118L206.2 95.692L199.598 92.1245Z" fill="#A57B31"/>
<path d="M196.702 99.8896L194.225 99.0167L191.204 100.349L191.926 101.987L190.474 102.628L188.082 97.2034L192.764 95.1383C193.901 94.6367 194.821 94.4029 195.522 94.4368C196.23 94.4681 196.725 94.8046 197.008 95.4465C197.105 95.6668 197.146 95.8917 197.132 96.1212C197.124 96.348 197.069 96.5754 196.967 96.8034C196.863 97.0266 196.717 97.2453 196.53 97.4595C196.343 97.6737 196.123 97.8794 195.87 98.0767L198.599 99.0532L196.702 99.8896ZM193.927 97.7751C194.09 97.7031 194.279 97.6057 194.492 97.483C194.711 97.3577 194.91 97.2186 195.088 97.0656C195.27 96.9051 195.41 96.7378 195.506 96.5636C195.603 96.3894 195.613 96.2161 195.537 96.0437C195.486 95.9287 195.405 95.8503 195.292 95.8083C195.186 95.7637 195.063 95.7465 194.923 95.7568C194.781 95.7622 194.629 95.7863 194.467 95.8291C194.311 95.8692 194.157 95.9202 194.003 95.9821C193.854 96.0365 193.716 96.0918 193.589 96.1478C193.462 96.2038 193.356 96.2505 193.271 96.2879L190.041 97.7126L190.697 99.1998L193.927 97.7751Z" fill="#870122"/>
<path d="M180.088 100.731L187.292 97.5534L187.768 98.6311L182.015 101.168L182.329 101.88L187.682 99.5184L188.154 100.589L182.801 102.95L183.457 104.437L189.21 101.9L189.685 102.978L182.48 106.155L180.088 100.731Z" fill="#870122"/>
<path d="M163.949 107.852L165.673 107.091L170.285 109.683L171.797 104.708L176.6 106.872L177.778 101.752L179.483 101L177.738 108.249L176.876 108.63L172.704 106.762L171.414 111.039L170.552 111.419L163.949 107.852Z" fill="#870122"/>
<path d="M155.355 114.89C155.144 114.411 155.076 113.946 155.152 113.495C155.234 113.042 155.443 112.606 155.779 112.189C156.119 111.764 156.579 111.358 157.16 110.97C157.74 110.583 158.424 110.216 159.21 109.869C160.027 109.509 160.783 109.232 161.478 109.04C162.174 108.848 162.797 108.762 163.348 108.782C163.905 108.799 164.383 108.932 164.781 109.18C165.183 109.42 165.498 109.799 165.727 110.316C165.94 110.8 165.999 111.269 165.903 111.723C165.811 112.17 165.583 112.605 165.221 113.028C164.862 113.444 164.378 113.846 163.77 114.234C163.161 114.623 162.448 114.998 161.631 115.358C160.845 115.705 160.115 115.967 159.441 116.143C158.766 116.315 158.16 116.391 157.623 116.37C157.09 116.342 156.631 116.21 156.245 115.974C155.863 115.731 155.566 115.369 155.355 114.89ZM156.807 114.25C156.906 114.475 157.05 114.646 157.239 114.763C157.426 114.875 157.639 114.947 157.877 114.98C158.121 115.009 158.383 115.005 158.663 114.968C158.948 114.928 159.234 114.87 159.519 114.796C159.808 114.714 160.089 114.622 160.362 114.519C160.64 114.413 160.894 114.31 161.124 114.208C161.36 114.104 161.614 113.984 161.886 113.847C162.158 113.709 162.428 113.559 162.695 113.395C162.96 113.227 163.21 113.048 163.445 112.859C163.679 112.669 163.874 112.472 164.029 112.266C164.19 112.058 164.295 111.846 164.344 111.63C164.397 111.406 164.374 111.181 164.275 110.956C164.178 110.736 164.03 110.572 163.831 110.466C163.636 110.351 163.409 110.28 163.151 110.251C162.89 110.217 162.61 110.22 162.31 110.261C162.008 110.297 161.704 110.354 161.398 110.431C161.093 110.509 160.794 110.601 160.501 110.707C160.214 110.81 159.953 110.914 159.717 111.018C159.487 111.12 159.241 111.24 158.977 111.379C158.719 111.516 158.465 111.668 158.214 111.836C157.969 112.001 157.737 112.181 157.519 112.374C157.305 112.56 157.128 112.758 156.989 112.968C156.855 113.17 156.767 113.381 156.726 113.599C156.683 113.813 156.71 114.03 156.807 114.25Z" fill="#870122"/>
<path d="M145.527 115.977L150.209 113.912C151.347 113.41 152.266 113.177 152.967 113.211C153.675 113.242 154.17 113.578 154.453 114.22C154.588 114.527 154.619 114.842 154.545 115.166C154.476 115.483 154.323 115.794 154.089 116.097C153.854 116.401 153.548 116.69 153.171 116.966C152.792 117.236 152.36 117.478 151.876 117.691L148.646 119.116L149.372 120.761L147.92 121.401L145.527 115.977ZM151.369 116.542C151.533 116.47 151.721 116.372 151.934 116.25C152.153 116.124 152.352 115.985 152.53 115.832C152.715 115.676 152.855 115.512 152.952 115.337C153.048 115.163 153.058 114.99 152.982 114.817C152.932 114.702 152.85 114.624 152.738 114.582C152.631 114.537 152.508 114.52 152.368 114.53C152.226 114.536 152.074 114.56 151.912 114.603C151.757 114.643 151.602 114.694 151.449 114.756C151.299 114.81 151.161 114.865 151.034 114.921C150.907 114.978 150.801 115.024 150.716 115.062L147.486 116.486L148.139 117.966L151.369 116.542Z" fill="#870122"/>
<defs>
<linearGradient id="paint0_linear_195_12622" x1="102.522" y1="243.013" x2="111.96" y2="242.401" gradientUnits="userSpaceOnUse">
<stop stop-color="#C6933B"/>
<stop offset="1"/>
</linearGradient>
<linearGradient id="paint1_linear_195_12622" x1="102.724" y1="262.709" x2="117.415" y2="253.001" gradientUnits="userSpaceOnUse">
<stop stop-color="#C6933B"/>
<stop offset="1"/>
</linearGradient>
<linearGradient id="paint2_linear_195_12622" x1="113.311" y1="254.181" x2="99.0057" y2="245.872" gradientUnits="userSpaceOnUse">
<stop stop-color="#CB0033"/>
<stop offset="1"/>
</linearGradient>
<linearGradient id="paint3_linear_195_12622" x1="289.348" y1="183.52" x2="290.921" y2="207.852" gradientUnits="userSpaceOnUse">
<stop stop-color="#C6933B"/>
<stop offset="1"/>
</linearGradient>
<linearGradient id="paint4_linear_195_12622" x1="238.396" y1="184.051" x2="263.393" y2="221.996" gradientUnits="userSpaceOnUse">
<stop stop-color="#C6933B"/>
<stop offset="1"/>
</linearGradient>
<linearGradient id="paint5_linear_195_12622" x1="260.447" y1="211.354" x2="281.837" y2="174.396" gradientUnits="userSpaceOnUse">
<stop stop-color="#CB0033"/>
<stop offset="1"/>
</linearGradient>
<linearGradient id="paint6_linear_195_12622" x1="87.1445" y1="251.189" x2="96.2971" y2="248.809" gradientUnits="userSpaceOnUse">
<stop stop-color="#C6933B"/>
<stop offset="1"/>
</linearGradient>
<linearGradient id="paint7_linear_195_12622" x1="91.0566" y1="270.493" x2="103.653" y2="258.19" gradientUnits="userSpaceOnUse">
<stop stop-color="#C6933B"/>
<stop offset="1"/>
</linearGradient>
<linearGradient id="paint8_linear_195_12622" x1="99.846" y1="260.123" x2="84.2304" y2="254.66" gradientUnits="userSpaceOnUse">
<stop stop-color="#CB0033"/>
<stop offset="1"/>
</linearGradient>
<linearGradient id="paint9_linear_195_12622" x1="259.4" y1="157.536" x2="265.533" y2="181.135" gradientUnits="userSpaceOnUse">
<stop stop-color="#C6933B"/>
<stop offset="1"/>
</linearGradient>
<linearGradient id="paint10_linear_195_12622" x1="209.461" y1="167.665" x2="241.164" y2="200.217" gradientUnits="userSpaceOnUse">
<stop stop-color="#C6933B"/>
<stop offset="1"/>
</linearGradient>
<linearGradient id="paint11_linear_195_12622" x1="236.267" y1="190.32" x2="250.304" y2="149.992" gradientUnits="userSpaceOnUse">
<stop stop-color="#CB0033"/>
<stop offset="1"/>
</linearGradient>
<linearGradient id="paint12_linear_195_12622" x1="70.4926" y1="258.218" x2="77.1777" y2="255.142" gradientUnits="userSpaceOnUse">
<stop stop-color="#C6933B"/>
<stop offset="1"/>
</linearGradient>
<linearGradient id="paint13_linear_195_12622" x1="77.4848" y1="275.224" x2="86.5542" y2="264.362" gradientUnits="userSpaceOnUse">
<stop stop-color="#C6933B"/>
<stop offset="1"/>
</linearGradient>
<linearGradient id="paint14_linear_195_12622" x1="68.0926" y1="268.022" x2="83.7349" y2="260.823" gradientUnits="userSpaceOnUse">
<stop stop-color="#CB0033"/>
<stop offset="1"/>
</linearGradient>
<linearGradient id="paint15_linear_195_12622" x1="230.524" y1="143.372" x2="240.126" y2="165.784" gradientUnits="userSpaceOnUse">
<stop stop-color="#C6933B"/>
<stop offset="1"/>
</linearGradient>
<linearGradient id="paint16_linear_195_12622" x1="182.668" y1="160.875" x2="218.894" y2="188.304" gradientUnits="userSpaceOnUse">
<stop stop-color="#C6933B"/>
<stop offset="1"/>
</linearGradient>
<linearGradient id="paint17_linear_195_12622" x1="212.569" y1="179.254" x2="220.399" y2="137.277" gradientUnits="userSpaceOnUse">
<stop stop-color="#CB0033"/>
<stop offset="1"/>
</linearGradient>
</defs>
</svg>
