<svg width="430" height="306" viewBox="0 0 430 306" fill="none" xmlns="http://www.w3.org/2000/svg">
<g opacity="0.5">
<path d="M417.036 77.6321L68.1562 102.719L81.0606 282.427L429.94 257.34L417.036 77.6321Z" fill="#ECECEC"/>
<path d="M143.604 97.2935L144.263 106.472C144.263 106.472 134.299 108.185 135.074 118.98L136.861 143.875L178.045 140.914L176.249 115.908C176.249 115.908 176.018 104.078 165.099 104.863L164.338 95.8026L143.604 97.2935Z" fill="#B1B1B1"/>
<path d="M185.385 104.611L383.495 90.3658L394.579 105.374L408.872 104.347L418.95 244.689L196.592 260.678C196.592 260.678 193.93 240.445 203.565 235.475C213.201 230.504 201.446 214.239 201.446 214.239C201.446 214.239 209.28 207.377 208.1 190.945C206.92 174.514 197.197 169.984 197.197 169.984C197.197 169.984 208.014 156.611 200.683 150.603C193.351 144.594 187.295 137.187 186.895 126.284C186.496 115.382 185.384 104.614 185.384 104.614L185.385 104.611Z" fill="#CAB0AB"/>
<path d="M303.208 234.527L348.937 231.238L345.605 184.846L414.288 179.908L408.856 104.265L312.256 111.211L313.031 122.006L295.22 123.287L303.208 234.527Z" fill="#754F46"/>
<path d="M299.254 86.1014L294.444 96.7687L383.496 90.3653L388.277 79.7001L299.254 86.1014Z" fill="#C4626D"/>
<path d="M319.38 251.848L314.794 265.619L403.846 259.216L408.404 245.447L319.38 251.848Z" fill="#C4626D"/>
<path d="M126.773 146.645L84.1426 149.711L84.2882 151.738L126.919 148.673L126.773 146.645Z" fill="#AD535F"/>
<path d="M127.076 150.857L84.4453 153.922L84.5909 155.95L127.221 152.885L127.076 150.857Z" fill="#AD535F"/>
<path d="M166.753 115.748C162.337 114.035 157.592 118.212 157.592 118.212L156.751 117.52L156.622 115.725C156.622 115.725 158.072 114.417 157.911 112.172C157.75 109.927 154.792 111.72 154.792 111.72C154.792 111.72 151.607 110.368 151.768 112.613C151.93 114.858 153.552 115.945 153.552 115.945L153.681 117.741L152.948 118.546C152.948 118.546 147.654 115.091 143.529 117.418C139.404 119.746 141.83 126.266 144.372 129.167C146.915 132.068 147.227 135.356 147.227 135.356L165.657 134.031C165.657 134.031 165.496 130.733 167.598 127.497C169.7 124.262 171.17 117.462 166.755 115.748L166.753 115.748Z" fill="#272731"/>
<path d="M382.617 159.773C377.864 159.578 377.71 155.745 376.791 152.811L380.755 147.656C380.987 147.354 381.114 146.984 381.115 146.603L381.148 138.785C381.152 137.829 380.383 137.05 379.428 137.04L379.307 137.038C378.229 137.026 377.422 136.048 377.615 134.989L377.877 133.554C378.056 132.57 377.371 131.64 376.378 131.517L374.989 131.346C374.116 131.239 373.46 130.497 373.461 129.618L373.468 125.133C373.47 124.03 372.457 123.205 371.376 123.427L366.902 124.349C365.791 124.578 364.762 123.703 364.812 122.57L364.878 121.092C364.926 120.001 363.968 119.137 362.887 119.296L361.782 119.457C360.601 119.63 359.601 118.591 359.819 117.419L360.411 114.25C360.655 112.943 359.4 111.859 358.14 112.285L353.863 113.734C352.841 114.081 351.753 113.423 351.586 112.357L351.359 110.918C351.182 109.799 350 109.144 348.957 109.588L347.478 110.219C346.462 110.652 345.306 110.043 345.089 108.962L344.253 104.801C343.967 103.38 342.168 102.911 341.225 104.013L338.196 107.545C337.436 108.431 336.036 108.334 335.408 107.35L334.941 106.62C334.349 105.692 333.052 105.542 332.261 106.308L330.972 107.559C330.195 108.314 328.924 108.182 328.317 107.286L324.633 101.843C323.898 100.756 322.268 100.844 321.653 102.003L318.426 108.092C317.902 109.081 316.594 109.325 315.748 108.594L315.537 108.411C314.705 107.692 313.423 107.914 312.882 108.87L312.089 110.272C311.537 111.248 310.217 111.454 309.392 110.694L308.031 109.438C307.166 108.64 305.774 108.912 305.274 109.977L304.23 112.2C303.801 113.112 302.688 113.47 301.807 112.981C300.652 112.338 299.228 113.168 299.22 114.49L299.214 115.468C299.208 116.518 298.28 117.322 297.237 117.181L296.346 117.06C295.25 116.91 294.295 117.805 294.375 118.907L295.422 133.496C291.007 135.08 286.852 137.596 288.884 144.331C292.252 155.498 282.453 147.101 285.125 161.395C287.798 175.689 279.01 181.93 296.716 183.686C296.431 186.272 295.974 188.828 296.431 192.247C297.263 198.469 299.373 209.983 305.303 217.506C311.234 225.027 315.947 229.876 322.465 229.506C322.465 229.506 326.069 238.584 326.527 244.957L365.853 242.129C365.853 242.129 373.851 238.031 373.507 229.303C373.507 229.303 365.606 220.669 363.123 208.793C366.071 208.786 369.238 207.986 371.791 205.418C378.517 198.653 370.272 198.22 375.498 194.127C380.723 190.034 385.983 182.862 383.52 178.936C381.056 175.01 390.556 160.098 382.616 159.771L382.617 159.773Z" fill="#CBC9C9"/>
<path d="M218.069 102.729L249.26 153.802L272.846 98.322L218.069 102.729Z" fill="#E2CEAF"/>
<path d="M160.761 241.819C143.273 243.077 144.421 231.735 138.995 232.125C133.569 232.515 128.982 231.937 130.35 228.206C131.718 224.475 129.058 227.936 127.735 214.571C126.412 201.205 126.305 182.003 127.351 178.834C128.396 175.664 128.474 174.22 124.935 172.295C121.395 170.37 127.71 168.644 125.047 164.478C122.384 160.31 126.402 158.024 132.126 159.247C137.851 160.469 137.539 156.133 142.744 150.129C147.95 144.124 157.987 143.766 157.987 143.766L157.242 143.82C157.242 143.82 167.229 142.739 173.238 147.936C179.248 153.134 179.559 157.47 185.05 155.441C190.541 153.412 194.843 155.1 192.803 159.606C190.763 164.112 197.259 164.916 194.031 167.326C190.804 169.738 191.087 171.155 192.574 174.144C194.062 177.131 196.7 196.151 197.3 209.568C197.9 222.986 194.772 219.941 196.66 223.438C198.547 226.934 194.091 228.163 188.664 228.553C183.236 228.944 185.994 240.005 168.506 241.262" fill="#272731"/>
<path d="M159.432 174.33C167.155 173.774 172.968 167.07 172.414 159.356C171.86 151.641 165.149 145.838 157.426 146.393C149.703 146.948 143.89 153.652 144.444 161.367C144.998 169.081 151.709 174.885 159.432 174.33Z" fill="#196849"/>
<path d="M174.538 246.283C179.608 240.435 178.973 231.591 173.12 226.529C167.267 221.467 158.413 222.103 153.343 227.951C148.274 233.798 148.909 242.643 154.762 247.705C160.614 252.767 169.469 252.13 174.538 246.283Z" fill="#196849"/>
<path d="M161.789 193.95L155.178 194.426L154.219 181.068L157.584 180.826L157.287 176.681L148.512 177.312L151.703 221.76L159.276 221.215L158.921 216.263L155.735 216.492L154.685 201.869L162.318 201.32L169.952 200.771L171.002 215.395L167.816 215.624L168.172 220.575L175.746 220.031L172.554 175.583L163.778 176.215L164.076 180.359L167.442 180.117L168.402 193.475L161.789 193.95Z" fill="#503A23"/>
<path d="M164.271 182.272L157.271 182.775L157.773 189.766L164.773 189.262L164.271 182.272Z" fill="#AD9F5F"/>
<path d="M165.888 204.8L158.889 205.304L159.391 212.295L166.39 211.791L165.888 204.8Z" fill="#AD9F5F"/>
<path d="M99.3067 216.908L105.492 220.174L108.024 218.361L99.0901 213.532L99.3091 216.905L99.3095 216.91L99.3067 216.908Z" fill="url(#paint0_linear_195_12462)"/>
<path d="M100.359 233.236L110.502 225.394L113.427 226.974L100.586 236.611L100.367 233.232L100.36 233.238L100.359 233.236Z" fill="url(#paint1_linear_195_12462)"/>
<path d="M99.4421 219.066L92.2286 225.409L100.188 230.562L113.028 220.926L110.103 219.346L105.817 222.666L99.4421 219.066ZM99.9687 227.189L96.5739 225.068L99.6584 222.4L103.532 224.439L99.9689 227.192L99.9687 227.189Z" fill="url(#paint2_linear_195_12462)"/>
<path d="M99.0354 207.981L98.858 205.257C98.8156 204.594 98.8861 204.09 99.0744 203.742C99.2597 203.386 99.5868 203.195 100.058 203.156C100.28 203.14 100.483 203.18 100.669 203.267C100.85 203.352 101.005 203.484 101.139 203.655C101.274 203.825 101.382 204.028 101.462 204.27C101.542 204.511 101.586 204.767 101.606 205.051L101.728 206.931L102.927 206.839L102.982 207.682L99.0337 207.994L99.0328 207.981L99.0354 207.981ZM100.778 205.106C100.771 205.009 100.758 204.899 100.733 204.772C100.708 204.64 100.668 204.517 100.615 204.402C100.563 204.283 100.493 204.185 100.404 204.106C100.315 204.028 100.211 203.992 100.084 204.001C100.002 204.007 99.9333 204.035 99.8824 204.087C99.8284 204.132 99.7885 204.192 99.7627 204.268C99.7316 204.343 99.7139 204.421 99.7049 204.514C99.6903 204.6 99.6888 204.688 99.6926 204.778C99.6907 204.86 99.6914 204.942 99.6992 205.014L99.7126 205.201L99.8345 207.08L100.913 206.992L100.791 205.113L100.78 205.103L100.778 205.106ZM100.688 202.802C100.338 202.828 100.034 202.785 99.7679 202.673C99.5017 202.553 99.2808 202.376 99.0997 202.137C98.9129 201.891 98.7718 201.592 98.6704 201.232C98.5691 200.871 98.5035 200.464 98.468 200.007C98.4351 199.548 98.4445 199.1 98.4872 198.716C98.5273 198.333 98.6258 198.002 98.767 197.721C98.9084 197.444 99.1058 197.221 99.3569 197.059C99.6027 196.895 99.9134 196.8 100.291 196.768C100.643 196.743 100.951 196.788 101.209 196.91C101.468 197.033 101.679 197.221 101.864 197.473C102.035 197.723 102.172 198.04 102.272 198.411C102.371 198.782 102.433 199.21 102.462 199.686C102.494 200.162 102.481 200.559 102.429 200.928C102.378 201.302 102.276 201.621 102.139 201.888C101.994 202.153 101.806 202.362 101.563 202.521C101.319 202.675 101.023 202.763 100.679 202.793L100.69 202.802L100.688 202.802ZM100.638 201.96C100.803 201.948 100.946 201.904 101.06 201.821C101.171 201.746 101.271 201.649 101.349 201.533C101.428 201.412 101.484 201.279 101.525 201.129C101.569 200.975 101.597 200.823 101.625 200.664C101.644 200.504 101.651 200.346 101.65 200.189C101.649 200.03 101.646 199.883 101.637 199.748C101.627 199.612 101.611 199.462 101.594 199.301C101.577 199.137 101.545 198.98 101.502 198.816C101.459 198.654 101.409 198.496 101.346 198.344C101.283 198.189 101.208 198.058 101.115 197.949C101.023 197.832 100.913 197.745 100.789 197.684C100.661 197.616 100.514 197.596 100.349 197.608C100.183 197.62 100.054 197.665 99.9376 197.753C99.8185 197.834 99.7191 197.936 99.6451 198.065C99.5657 198.191 99.5006 198.335 99.4497 198.495C99.3988 198.656 99.3661 198.818 99.3394 198.99C99.3176 199.156 99.3036 199.324 99.2949 199.492C99.2937 199.656 99.2964 199.803 99.3013 199.944C99.3062 200.085 99.3291 200.222 99.3483 200.381C99.3748 200.533 99.4045 200.693 99.4516 200.841C99.4963 200.992 99.5541 201.145 99.6215 201.287C99.6889 201.429 99.7652 201.549 99.8665 201.655C99.9598 201.759 100.075 201.836 100.196 201.896C100.32 201.957 100.459 201.975 100.62 201.961L100.645 201.959L100.638 201.96ZM98.3435 197.258L98.2818 196.254L100.991 194.344L98.2484 192.745L100.74 190.67L97.8258 189.216L97.7625 188.225L101.871 190.322L101.901 190.824L99.7496 192.635L102.109 194.003L102.14 194.505L98.3464 197.263L98.3461 197.258L98.3435 197.258ZM97.7369 187.869L97.4646 183.678L98.2489 183.621L98.4656 186.965L98.9833 186.928L98.7802 183.81L99.559 183.748L99.7619 186.864L100.846 186.779L100.629 183.432L101.413 183.376L101.685 187.562L97.7373 187.874L97.7369 187.869ZM101.162 179.294L100.027 180.407L100.14 182.163L101.333 182.072L101.388 182.915L97.44 183.227L97.2626 180.503C97.2202 179.839 97.2907 179.335 97.479 178.987C97.6643 178.632 97.9914 178.441 98.4622 178.402C98.6227 178.391 98.7746 178.406 98.9131 178.45C99.0516 178.494 99.181 178.556 99.2993 178.646C99.415 178.735 99.514 178.846 99.6014 178.976C99.6886 179.104 99.7671 179.255 99.8281 179.415L101.083 178.191L101.154 179.292L101.159 179.291L101.162 179.294ZM99.1846 180.346C99.1776 180.249 99.1646 180.14 99.1398 180.013C99.1147 179.881 99.0747 179.758 99.0222 179.643C98.964 179.521 98.892 179.423 98.811 179.347C98.7221 179.268 98.618 179.232 98.4912 179.241C98.4084 179.247 98.3401 179.275 98.2893 179.328C98.2353 179.373 98.1953 179.432 98.1696 179.509C98.1385 179.583 98.1207 179.662 98.1118 179.755C98.0971 179.841 98.0956 179.928 98.0994 180.018C98.0976 180.1 98.0983 180.183 98.106 180.254L98.1194 180.441L98.2414 182.32L99.3254 182.235L99.2035 180.355L99.1872 180.346L99.1846 180.346ZM97.0079 176.521L96.9462 175.517L99.6556 173.607L96.9128 172.008L99.4048 169.933L96.4903 168.479L96.4269 167.488L100.535 169.585L100.566 170.087L98.414 171.898L100.773 173.266L100.804 173.768L97.0109 176.526L97.0105 176.521L97.0079 176.521ZM96.3452 166.313L100.307 166.005L100.36 166.855L96.3984 167.163L96.3452 166.313ZM96.3116 165.773L96.2583 164.922L98.8786 161.228L96.0324 161.451L95.9772 160.608L99.9253 160.296L99.9805 161.138L97.3011 164.842L100.204 164.613L100.259 165.455L96.3112 165.768L96.3116 165.773Z" fill="black"/>
<path d="M269.675 162.814L261.23 178.778L265.918 185.307L278.41 162.249L269.69 162.817L269.675 162.814Z" fill="url(#paint3_linear_195_12462)"/>
<path d="M227.471 165.542L247.738 191.705L243.65 199.254L218.746 166.125L227.483 165.56L227.471 165.542Z" fill="url(#paint4_linear_195_12462)"/>
<path d="M264.103 163.167L247.707 144.557L234.381 165.096L259.283 198.225L263.371 190.676L254.789 179.615L264.101 163.167L264.103 163.167ZM243.101 164.528L248.588 155.769L255.486 163.727L250.216 173.722L243.101 164.528Z" fill="url(#paint5_linear_195_12462)"/>
<path d="M194.043 115.362L200.045 114.968C201.505 114.873 202.616 115.025 203.385 115.438C204.171 115.839 204.59 116.552 204.67 117.578C204.709 118.065 204.619 118.506 204.427 118.912C204.237 119.304 203.948 119.644 203.572 119.938C203.196 120.232 202.748 120.468 202.218 120.644C201.688 120.819 201.119 120.919 200.494 120.964L196.351 121.234L196.548 123.843L194.688 123.967L194.012 115.37L194.041 115.364L194.043 115.362ZM200.376 119.149C200.589 119.132 200.834 119.106 201.113 119.048C201.406 118.993 201.677 118.906 201.929 118.789C202.194 118.674 202.413 118.522 202.582 118.329C202.753 118.138 202.833 117.912 202.816 117.634C202.803 117.454 202.739 117.303 202.626 117.194C202.527 117.075 202.395 116.99 202.225 116.937C202.059 116.871 201.888 116.831 201.682 116.81C201.493 116.779 201.299 116.774 201.102 116.782C200.921 116.781 200.74 116.779 200.582 116.797L200.169 116.822L196.026 117.093L196.215 119.44L200.359 119.169L200.378 119.147L200.376 119.149ZM205.454 118.948C205.395 118.185 205.495 117.525 205.743 116.944C206.004 116.365 206.397 115.885 206.923 115.49C207.466 115.085 208.125 114.776 208.918 114.553C209.712 114.33 210.612 114.185 211.622 114.108C212.632 114.031 213.617 114.057 214.463 114.148C215.308 114.236 216.04 114.448 216.653 114.757C217.266 115.063 217.753 115.49 218.112 116.038C218.476 116.573 218.68 117.249 218.752 118.069C218.81 118.832 218.707 119.505 218.437 120.068C218.164 120.632 217.749 121.092 217.194 121.496C216.645 121.871 215.945 122.171 215.126 122.388C214.307 122.604 213.366 122.739 212.318 122.806C211.267 122.873 210.395 122.846 209.582 122.738C208.756 122.627 208.053 122.407 207.468 122.107C206.884 121.794 206.421 121.384 206.072 120.852C205.736 120.324 205.538 119.677 205.475 118.927L205.456 118.95L205.454 118.948ZM207.309 118.837C207.335 119.199 207.43 119.507 207.61 119.753C207.777 119.997 207.992 120.21 208.246 120.379C208.512 120.551 208.805 120.673 209.133 120.765C209.474 120.858 209.809 120.922 210.16 120.978C210.514 121.02 210.86 121.033 211.209 121.033C211.558 121.033 211.881 121.027 212.18 121.001C212.479 120.976 212.808 120.943 213.167 120.905C213.526 120.867 213.877 120.799 214.233 120.704C214.591 120.612 214.938 120.5 215.277 120.363C215.616 120.225 215.907 120.061 216.149 119.859C216.406 119.66 216.601 119.419 216.735 119.151C216.885 118.871 216.93 118.555 216.904 118.196C216.878 117.834 216.776 117.552 216.584 117.303C216.407 117.043 216.179 116.826 215.895 116.666C215.615 116.491 215.298 116.35 214.947 116.24C214.597 116.131 214.234 116.061 213.858 115.999C213.491 115.954 213.121 115.922 212.749 115.903C212.387 115.899 212.064 115.906 211.754 115.916C211.443 115.925 211.138 115.977 210.794 116.018C210.459 116.076 210.107 116.143 209.778 116.242C209.446 116.342 209.11 116.467 208.797 116.613C208.484 116.758 208.221 116.928 207.988 117.146C207.759 117.352 207.59 117.597 207.456 117.867C207.323 118.135 207.28 118.438 207.309 118.787L207.313 118.841L207.309 118.837ZM217.676 113.837L219.888 113.701L224.092 119.592L227.619 113.615L232.186 119.033L235.396 112.682L237.581 112.54L232.951 121.488L231.846 121.557L227.86 116.875L224.835 122.015L223.73 122.084L217.663 113.833L217.676 113.837ZM238.374 112.493L247.611 111.89L247.74 113.597L240.363 114.077L240.448 115.201L247.316 114.751L247.448 116.445L240.581 116.894L240.767 119.254L248.143 118.774L248.272 120.481L239.036 121.086L238.359 112.49L238.372 112.493L238.374 112.493ZM257.262 119.929L254.81 117.461L250.937 117.712L251.138 120.309L249.278 120.432L248.602 111.836L254.603 111.442C256.064 111.347 257.174 111.499 257.944 111.912C258.73 112.313 259.149 113.026 259.229 114.054C259.258 114.403 259.223 114.735 259.123 115.038C259.023 115.342 258.887 115.624 258.689 115.878C258.491 116.132 258.243 116.347 257.961 116.539C257.678 116.732 257.345 116.899 256.991 117.036L259.69 119.767L257.264 119.923L257.261 119.936L257.262 119.929ZM254.948 115.626C255.161 115.609 255.405 115.583 255.685 115.525C255.977 115.47 256.248 115.384 256.501 115.267C256.769 115.138 256.985 114.986 257.153 114.806C257.324 114.615 257.405 114.389 257.387 114.111C257.374 113.931 257.311 113.78 257.198 113.671C257.099 113.552 256.966 113.467 256.797 113.414C256.63 113.348 256.459 113.308 256.253 113.287C256.064 113.257 255.87 113.252 255.673 113.259C255.492 113.258 255.311 113.256 255.153 113.274L254.741 113.299L250.597 113.57L250.784 115.93L254.927 115.659L254.95 115.624L254.948 115.626ZM263.382 110.88L265.595 110.744L269.798 116.636L273.325 110.659L277.892 116.077L281.103 109.725L283.287 109.583L278.657 118.532L277.552 118.6L273.566 113.918L270.542 119.058L269.437 119.127L263.369 110.877L263.382 110.88ZM285.884 109.415L286.556 118.037L284.683 118.157L284.011 109.535L285.884 109.415ZM287.075 109.34L288.948 109.22L297.083 114.915L296.597 108.721L298.457 108.597L299.133 117.194L297.273 117.317L289.113 111.493L289.614 117.813L287.753 117.936L287.077 109.34L287.075 109.34Z" fill="black"/>
<path d="M129.84 128.599C128.573 130.631 126.67 131.738 124.132 131.92C121.595 132.103 119.544 131.28 117.98 129.451C116.436 127.622 115.548 125.098 115.317 121.88C115.086 118.662 115.604 116.037 116.871 114.005C118.157 111.972 120.07 110.864 122.607 110.681C125.145 110.499 127.186 111.322 128.73 113.152C130.294 114.98 131.192 117.504 131.423 120.722C131.654 123.94 131.126 126.565 129.84 128.599ZM123.897 128.644C125.42 128.534 126.536 127.817 127.245 126.492C127.955 125.166 128.225 123.324 128.055 120.964C127.886 118.604 127.355 116.819 126.464 115.609C125.572 114.399 124.365 113.848 122.843 113.958C121.339 114.066 120.223 114.783 119.495 116.11C118.785 117.435 118.515 119.278 118.685 121.638C118.854 123.998 119.385 125.783 120.276 126.993C121.187 128.201 122.394 128.752 123.897 128.644Z" fill="#A30F20"/>
<path d="M111.394 129.925C110.127 131.957 108.225 133.064 105.687 133.246C103.149 133.429 101.099 132.606 99.5349 130.778C97.9907 128.948 97.103 126.424 96.8719 123.206C96.6409 119.988 97.1588 117.363 98.4257 115.331C99.7121 113.298 101.624 112.19 104.162 112.007C106.7 111.825 108.741 112.649 110.285 114.478C111.849 116.307 112.746 118.83 112.977 122.048C113.208 125.266 112.681 127.892 111.394 129.925ZM105.452 129.97C106.975 129.86 108.091 129.143 108.8 127.818C109.509 126.492 109.779 124.65 109.61 122.29C109.44 119.93 108.91 118.145 108.018 116.935C107.127 115.725 105.92 115.174 104.397 115.284C102.894 115.392 101.778 116.109 101.049 117.436C100.34 118.761 100.07 120.604 100.239 122.964C100.409 125.324 100.939 127.109 101.831 128.319C102.742 129.528 103.949 130.078 105.452 129.97Z" fill="#A30F20"/>
<path d="M88.0745 121.31C90.0267 121.169 91.7182 121.636 93.1493 122.709C94.5789 123.763 95.3672 125.314 95.5143 127.362C95.6613 129.41 95.0838 131.068 93.7818 132.338C92.4798 133.608 90.8235 134.315 88.8127 134.46C87.1924 134.576 85.731 134.309 84.4284 133.658C83.1244 132.987 82.1577 131.959 81.5284 130.573L84.3076 128.697C84.9873 130.51 86.4105 131.339 88.5775 131.183C89.7292 131.101 90.6257 130.742 91.267 130.108C91.9263 129.453 92.2196 128.618 92.1468 127.604C92.074 126.59 91.6749 125.815 90.9496 125.279C90.2244 124.743 89.2956 124.515 88.1634 124.597L82.1897 125.026L82.1905 113.97L93.6107 113.148L93.8375 116.308L85.5213 116.906L85.4976 121.495L88.0745 121.31Z" fill="#A30F20"/>
<path d="M409.736 233.519C408.469 235.551 406.567 236.658 404.029 236.841C401.491 237.023 399.44 236.2 397.877 234.372C396.332 232.542 395.445 230.018 395.214 226.8C394.983 223.582 395.501 220.957 396.767 218.925C398.054 216.892 399.966 215.784 402.504 215.602C405.042 215.419 407.083 216.243 408.627 218.073C410.191 219.901 411.088 222.424 411.319 225.642C411.55 228.86 411.022 231.486 409.736 233.519ZM403.794 233.564C405.316 233.455 406.432 232.737 407.142 231.412C407.851 230.087 408.121 228.244 407.952 225.884C407.782 223.524 407.252 221.739 406.36 220.529C405.469 219.319 404.262 218.769 402.739 218.878C401.236 218.986 400.12 219.704 399.391 221.03C398.682 222.356 398.412 224.198 398.581 226.558C398.751 228.918 399.281 230.703 400.173 231.913C401.083 233.122 402.291 233.672 403.794 233.564Z" fill="#A30F20"/>
<path d="M391.291 234.845C390.024 236.877 388.121 237.984 385.584 238.167C383.046 238.349 380.995 237.526 379.431 235.698C377.887 233.868 376.999 231.344 376.768 228.126C376.537 224.908 377.055 222.283 378.322 220.251C379.609 218.218 381.521 217.11 384.059 216.928C386.596 216.745 388.637 217.569 390.182 219.399C391.745 221.227 392.643 223.75 392.874 226.968C393.105 230.186 392.577 232.812 391.291 234.845ZM385.348 234.89C386.871 234.781 387.987 234.063 388.696 232.738C389.406 231.413 389.676 229.57 389.506 227.21C389.337 224.851 388.806 223.066 387.915 221.855C387.024 220.645 385.817 220.095 384.294 220.204C382.791 220.312 381.675 221.03 380.946 222.356C380.236 223.682 379.966 225.524 380.136 227.884C380.305 230.244 380.836 232.029 381.727 233.239C382.638 234.448 383.845 234.998 385.348 234.89Z" fill="#A30F20"/>
<path d="M367.971 226.23C369.923 226.09 371.615 226.556 373.046 227.63C374.475 228.683 375.264 230.234 375.411 232.282C375.558 234.33 374.98 235.989 373.678 237.259C372.376 238.528 370.72 239.236 368.709 239.38C367.089 239.497 365.627 239.229 364.325 238.578C363.021 237.907 362.054 236.879 361.425 235.493L364.204 233.617C364.884 235.431 366.307 236.26 368.474 236.104C369.626 236.021 370.522 235.662 371.163 235.028C371.823 234.373 372.116 233.538 372.043 232.524C371.97 231.51 371.571 230.735 370.846 230.199C370.121 229.663 369.192 229.436 368.06 229.517L362.086 229.947L362.087 218.89L373.507 218.069L373.734 221.228L365.418 221.826L365.394 226.415L367.971 226.23Z" fill="#A30F20"/>
<path d="M289.804 220.013L293.653 219.736L295.333 243.14L291.485 243.416L290.757 233.286L280.718 234.008L281.445 244.138L277.597 244.415L275.916 221.011L279.765 220.734L280.454 230.33L290.493 229.608L289.804 220.013Z" fill="#A30F20"/>
<path d="M266.177 245.673C263.924 245.835 261.968 245.46 260.311 244.549C258.675 243.636 257.481 242.31 256.728 240.572L259.902 238.395C261.028 240.957 263.064 242.133 266.009 241.921C267.459 241.817 268.521 241.46 269.195 240.852C269.889 240.219 270.204 239.446 270.138 238.532C270.069 237.574 269.627 236.878 268.811 236.443C267.993 235.987 266.57 235.529 264.541 235.07C263.402 234.816 262.476 234.569 261.763 234.329C261.051 234.089 260.286 233.741 259.468 233.284C258.671 232.804 258.055 232.187 257.62 231.434C257.184 230.681 256.929 229.781 256.854 228.733C256.705 226.661 257.324 224.969 258.71 223.66C260.094 222.328 261.824 221.588 263.899 221.438C265.773 221.304 267.445 221.643 268.917 222.455C270.388 223.268 271.56 224.45 272.434 226L269.322 228.106C268.184 225.992 266.466 225.018 264.168 225.183C263.052 225.263 262.179 225.595 261.548 226.178C260.915 226.739 260.631 227.465 260.695 228.356C260.758 229.226 261.142 229.893 261.848 230.357C262.575 230.798 263.851 231.233 265.676 231.661C266.589 231.887 267.252 232.063 267.665 232.191C268.098 232.294 268.694 232.475 269.453 232.734C270.234 232.992 270.825 233.263 271.227 233.548C271.629 233.832 272.058 234.194 272.516 234.631C272.995 235.067 273.346 235.58 273.568 236.169C273.79 236.758 273.928 237.431 273.982 238.189C274.134 240.306 273.485 242.044 272.035 243.403C270.606 244.738 268.654 245.495 266.177 245.673Z" fill="#A30F20"/>
<path d="M252.267 246.236L250.288 241.64L240.315 242.357L239.014 247.189L234.831 247.49L241.651 223.475L246.269 223.143L256.416 245.938L252.267 246.236ZM241.328 238.655L248.757 238.121L244.284 227.823L241.328 238.655Z" fill="#A30F20"/>
<path d="M223.931 248.711C220.406 248.964 217.4 248.015 214.913 245.864C212.425 243.691 211.057 240.888 210.811 237.455C210.564 234.022 211.518 231.064 213.672 228.579C215.824 226.071 218.663 224.691 222.188 224.438C224.307 224.285 226.296 224.646 228.152 225.521C230.032 226.394 231.535 227.653 232.662 229.297L229.455 231.477C228.747 230.362 227.766 229.514 226.514 228.932C225.282 228.326 223.929 228.076 222.457 228.182C219.958 228.362 217.985 229.299 216.536 230.994C215.111 232.687 214.485 234.749 214.659 237.178C214.834 239.608 215.748 241.558 217.401 243.03C219.076 244.501 221.163 245.146 223.662 244.966C225.134 244.86 226.449 244.43 227.606 243.674C228.761 242.897 229.598 241.907 230.117 240.704L233.601 242.37C232.742 244.156 231.446 245.627 229.713 246.783C228 247.914 226.073 248.557 223.931 248.711Z" fill="#A30F20"/>
<path d="M102.253 266.767L114.804 265.865L115.034 269.062L96.1176 270.422L95.888 267.225L98.9815 267.002L98.4866 260.111L95.9976 260.29L95.7884 257.377L98.2775 257.198L97.9356 252.438C97.7605 249.998 98.361 248.075 99.7372 246.666C101.137 245.256 102.844 244.479 104.859 244.334C106.542 244.213 108.02 244.547 109.292 245.337C110.562 246.102 111.56 247.233 112.287 248.728L109.662 250.488C108.723 248.365 107.21 247.379 105.124 247.529C103.916 247.616 102.935 248.067 102.184 248.883C101.43 249.675 101.107 250.805 101.212 252.273L101.549 256.963L109.442 256.395L109.652 259.308L101.758 259.876L102.253 266.767Z" fill="#A30F20"/>
</g>
<g opacity="0.6">
<path d="M367.632 29.1257L29.7402 119.599L76.2794 293.648L414.172 203.174L367.632 29.1257Z" fill="#ECECEC"/>
<path d="M102.813 100.033L105.19 108.923C105.19 108.923 95.7275 112.486 98.523 122.941L104.97 147.052L144.857 136.372L138.381 112.154C138.381 112.154 135.924 100.579 125.349 103.411L122.894 94.6567L102.813 100.033Z" fill="#B1B1B1"/>
<path d="M145.223 99.335L337.094 47.9599L350.808 60.6075L364.65 56.9011L400.995 192.824L185.64 250.487C185.64 250.487 179.213 231.12 187.739 224.42C196.265 217.72 181.655 203.965 181.655 203.965C181.655 203.965 188.056 195.748 183.8 179.834C179.545 163.919 169.143 161.306 169.143 161.306C169.143 161.306 177.246 146.132 168.913 141.615C160.581 137.098 153.237 130.966 150.79 120.335C148.343 109.703 145.223 99.3383 145.223 99.3383L145.223 99.335Z" fill="#CAB0AB"/>
<path d="M285.416 204.686L329.704 192.827L317.69 147.896L384.209 130.085L364.62 56.8247L271.062 81.8756L273.858 92.3304L256.608 96.9492L285.416 204.686Z" fill="#754F46"/>
<path d="M253.56 59.6694L250.847 71.053L337.094 47.9596L339.779 36.5834L253.56 59.6694Z" fill="#C4626D"/>
<path d="M304.559 218.644L302.651 233.034L388.898 209.941L390.779 195.558L304.559 218.644Z" fill="#C4626D"/>
<path d="M95.5826 151.676L54.2949 162.731L54.82 164.695L96.1077 153.64L95.5826 151.676Z" fill="#AD535F"/>
<path d="M96.6724 155.756L55.3848 166.811L55.9099 168.775L97.1975 157.719L96.6724 155.756Z" fill="#AD535F"/>
<path d="M129.025 113.789C124.366 112.939 120.492 117.937 120.492 117.937L119.536 117.416L119.071 115.677C119.071 115.677 120.249 114.119 119.668 111.945C119.086 109.77 116.519 112.09 116.519 112.09C116.519 112.09 113.137 111.363 113.718 113.538C114.3 115.712 116.098 116.473 116.098 116.473L116.563 118.213L115.994 119.141C115.994 119.141 110.145 116.747 106.532 119.811C102.92 122.875 106.531 128.821 109.575 131.19C112.618 133.559 113.544 136.729 113.544 136.729L131.394 131.95C131.394 131.95 130.614 128.742 132.069 125.167C133.524 121.593 133.686 114.638 129.027 113.788L129.025 113.789Z" fill="#272731"/>
<path d="M349.31 116.288C344.606 116.993 343.732 113.258 342.277 110.551L345.198 104.739C345.369 104.399 345.424 104.012 345.353 103.638L343.912 95.9533C343.736 95.0145 342.835 94.3944 341.894 94.5645L341.775 94.5854C340.714 94.7769 339.737 93.9689 339.727 92.8921L339.715 91.4337C339.705 90.4342 338.857 89.6493 337.858 89.7162L336.461 89.8103C335.584 89.8698 334.8 89.2651 334.636 88.4017L333.798 83.9956C333.592 82.9123 332.442 82.2933 331.422 82.7157L327.201 84.4655C326.154 84.8996 324.978 84.2341 324.813 83.1127L324.599 81.6482C324.442 80.5685 323.338 79.9 322.306 80.2603L321.251 80.6276C320.124 81.0199 318.946 80.1882 318.939 78.9962L318.923 75.7718C318.917 74.4425 317.481 73.6147 316.324 74.2709L312.396 76.501C311.457 77.0346 310.265 76.5935 309.9 75.5791L309.406 74.2082C309.022 73.1423 307.737 72.7227 306.796 73.3558L305.463 74.2542C304.547 74.8709 303.297 74.491 302.88 73.4708L301.275 69.5415C300.726 68.2004 298.872 68.0794 298.153 69.3393L295.844 73.38C295.264 74.3936 293.871 74.5619 293.069 73.7147L292.473 73.0855C291.716 72.2861 290.415 72.3829 289.783 73.2852L288.752 74.7572C288.131 75.6446 286.859 75.7555 286.093 74.9898L281.45 70.3392C280.523 69.4108 278.939 69.8045 278.554 71.059L276.531 77.6482C276.203 78.7174 274.965 79.2048 273.997 78.646L273.754 78.5061C272.802 77.9573 271.585 78.417 271.233 79.4578L270.719 80.9844C270.361 82.0475 269.103 82.4987 268.15 81.9075L266.577 80.9311C265.577 80.3111 264.262 80.8409 263.971 81.9807L263.364 84.361C263.115 85.3373 262.09 85.8994 261.132 85.585C259.877 85.1717 258.634 86.256 258.876 87.5551L259.055 88.517C259.247 89.5494 258.486 90.5144 257.436 90.5723L256.538 90.6211C255.434 90.6814 254.664 91.7403 254.95 92.8076L258.728 106.937C254.691 109.326 251.084 112.58 254.349 118.812C259.761 129.143 248.555 122.745 253.873 136.279C259.192 149.812 251.738 157.599 269.457 155.982C269.664 158.576 269.698 161.172 270.791 164.444C272.78 170.397 277.022 181.306 284.264 187.575C291.506 193.842 297.047 197.714 303.379 196.121C303.379 196.121 308.629 204.356 310.279 210.528L348.368 200.329C348.368 200.329 355.45 194.796 353.466 186.289C353.466 186.289 344.081 179.302 339.404 168.107C342.298 167.543 345.257 166.161 347.281 163.157C352.611 155.244 344.432 156.374 348.793 151.369C353.153 146.363 356.967 138.327 353.808 134.937C350.649 131.546 357.168 115.109 349.309 116.286L349.31 116.288Z" fill="#CBC9C9"/>
<path d="M176.964 91.3197L217.221 135.59L229.928 76.6546L176.964 91.3197Z" fill="#E2CEAF"/>
<path d="M146.899 238.729C129.962 243.264 128.952 231.908 123.696 233.316C118.441 234.723 113.827 235.02 114.468 231.098C115.108 227.176 113.148 231.077 109.33 218.201C105.512 205.326 101.789 186.488 102.218 183.178C102.647 179.868 102.451 178.435 98.6129 177.212C94.7745 175.99 100.651 173.104 97.2503 169.514C93.8497 165.924 97.3651 162.921 103.216 163.041C109.069 163.162 107.946 158.962 111.926 152.083C115.906 145.204 125.696 142.958 125.696 142.958L124.975 143.152C124.975 143.152 134.579 140.205 141.459 144.175C148.341 148.146 149.464 152.345 154.473 149.317C159.484 146.288 164.027 147.133 162.873 151.943C161.718 156.753 168.249 156.317 165.534 159.294C162.818 162.271 163.364 163.61 165.388 166.264C167.411 168.917 173.587 187.098 176.705 200.161C179.822 213.224 176.176 210.825 178.69 213.902C181.202 216.98 177.057 219.028 171.801 220.435C166.544 221.843 171.337 232.185 154.4 236.72" fill="#272731"/>
<path d="M132.875 172.701C140.355 170.698 144.799 163.017 142.801 155.545C140.804 148.074 133.12 143.641 125.64 145.643C118.16 147.646 113.715 155.327 115.713 162.799C117.711 170.27 125.394 174.703 132.875 172.701Z" fill="#196849"/>
<path d="M161.269 240.512C165.146 233.813 162.855 225.247 156.153 221.38C149.451 217.513 140.876 219.809 137 226.509C133.123 233.208 135.413 241.774 142.115 245.64C148.817 249.507 157.392 247.211 161.269 240.512Z" fill="#196849"/>
<path d="M138.886 191.524L132.482 193.239L129.023 180.302L132.283 179.429L131.209 175.415L122.711 177.69L134.222 220.738L141.556 218.774L140.273 213.978L137.188 214.805L133.401 200.642L140.794 198.662L148.188 196.682L151.975 210.845L148.889 211.671L150.171 216.467L157.507 214.503L145.996 171.456L137.497 173.731L138.57 177.746L141.831 176.873L145.29 189.809L138.886 191.524Z" fill="#503A23"/>
<path d="M139.12 179.587L132.342 181.402L134.152 188.173L140.931 186.358L139.12 179.587Z" fill="#AD9F5F"/>
<path d="M144.954 201.406L138.176 203.221L139.986 209.992L146.765 208.177L144.954 201.406Z" fill="#AD9F5F"/>
<path d="M81.8523 225.862L88.5423 227.902L90.6871 225.643L81.0034 222.587L81.8541 225.858L81.8554 225.863L81.8523 225.862Z" fill="url(#paint6_linear_195_12462)"/>
<path d="M85.9626 241.698L94.4449 232.083L97.6155 233.083L86.8215 244.969L85.9694 241.693L85.9633 241.7L85.9626 241.698Z" fill="url(#paint7_linear_195_12462)"/>
<path d="M82.3913 227.955L76.5025 235.545L85.29 239.105L96.0841 227.218L92.9135 226.218L89.3301 230.288L82.3913 227.955ZM84.4393 235.834L80.7056 234.391L83.232 231.189L87.4204 232.46L84.44 235.836L84.4393 235.834Z" fill="url(#paint8_linear_195_12462)"/>
<path d="M79.9024 217.146L79.2148 214.504C79.0482 213.861 79.0224 213.352 79.1418 212.975C79.2568 212.591 79.5421 212.342 79.9971 212.215C80.2127 212.157 80.4196 212.157 80.6185 212.208C80.8116 212.257 80.9891 212.358 81.1533 212.5C81.3176 212.642 81.4622 212.821 81.586 213.043C81.7097 213.265 81.8018 213.508 81.8753 213.784L82.3492 215.606L83.5087 215.29L83.7217 216.107L79.9032 217.159L79.8999 217.146L79.9024 217.146ZM81.0717 213.993C81.0466 213.899 81.013 213.794 80.9649 213.674C80.9154 213.549 80.8528 213.436 80.7797 213.333C80.7053 213.226 80.6186 213.143 80.5165 213.082C80.4144 213.022 80.3054 213.006 80.1825 213.039C80.1023 213.06 80.0406 213.101 80.0005 213.162C79.956 213.217 79.9279 213.282 79.9171 213.362C79.9005 213.441 79.8978 213.522 79.9066 213.615C79.9085 213.702 79.9235 213.788 79.9442 213.876C79.9578 213.957 79.974 214.038 79.9951 214.106L80.0435 214.287L80.5174 216.11L81.5602 215.82L81.0863 213.997L81.0736 213.99L81.0717 213.993ZM80.5493 211.748C80.2109 211.839 79.9035 211.855 79.6215 211.795C79.3375 211.727 79.0872 211.595 78.8643 211.395C78.6344 211.188 78.4396 210.921 78.2721 210.586C78.1047 210.252 77.9635 209.864 77.8424 209.421C77.7238 208.978 77.6486 208.536 77.6182 208.151C77.5853 207.767 77.6196 207.423 77.7054 207.121C77.7919 206.821 77.9438 206.566 78.1599 206.359C78.3704 206.151 78.6577 206 79.0224 205.897C79.3633 205.806 79.6739 205.792 79.951 205.864C80.2281 205.935 80.471 206.08 80.6997 206.293C80.9152 206.506 81.1097 206.791 81.2773 207.137C81.4449 207.482 81.5864 207.89 81.7046 208.353C81.8254 208.814 81.8873 209.207 81.9062 209.579C81.9264 209.956 81.8863 210.288 81.8022 210.576C81.7098 210.864 81.5646 211.105 81.3554 211.307C81.1448 211.504 80.8712 211.646 80.5391 211.74L80.5518 211.748L80.5493 211.748ZM80.3413 210.93C80.5018 210.887 80.6335 210.817 80.7296 210.715C80.8252 210.62 80.9048 210.506 80.959 210.377C81.0145 210.243 81.044 210.102 81.0564 209.947C81.0699 209.787 81.0691 209.633 81.0663 209.472C81.0553 209.31 81.0324 209.154 81.002 209C80.9709 208.844 80.9407 208.701 80.9055 208.569C80.8704 208.438 80.8263 208.293 80.7795 208.138C80.7321 207.981 80.671 207.833 80.5978 207.68C80.5253 207.529 80.4459 207.383 80.3554 207.245C80.2641 207.105 80.1663 206.99 80.0538 206.901C79.9418 206.804 79.817 206.739 79.6837 206.703C79.546 206.66 79.3977 206.668 79.2372 206.711C79.0768 206.754 78.9582 206.823 78.8609 206.931C78.7591 207.033 78.6809 207.152 78.6325 207.292C78.5784 207.432 78.5414 207.585 78.5217 207.752C78.502 207.919 78.5004 208.085 78.5066 208.258C78.5164 208.426 78.5344 208.593 78.5574 208.76C78.5873 208.922 78.6175 209.065 78.649 209.203C78.6804 209.34 78.7287 209.471 78.7774 209.623C78.8322 209.767 78.8915 209.919 78.9657 210.056C79.038 210.196 79.1236 210.335 79.2165 210.461C79.3094 210.588 79.4071 210.692 79.5265 210.777C79.6377 210.861 79.7649 210.915 79.8956 210.951C80.0288 210.987 80.169 210.979 80.3238 210.935L80.3488 210.928L80.3413 210.93ZM77.2021 206.746L76.9524 205.771L79.253 203.384L76.2583 202.332L78.3146 199.824L75.1782 198.945L74.9292 197.984L79.3588 199.268L79.4836 199.755L77.7118 201.94L80.2867 202.839L80.4116 203.326L77.206 206.75L77.2046 206.745L77.2021 206.746ZM74.8371 197.64L73.7798 193.575L74.5394 193.372L75.3824 196.614L75.8838 196.48L75.0966 193.456L75.8499 193.249L76.6364 196.271L77.6849 195.982L76.8413 192.737L77.6009 192.533L78.6569 196.593L74.8384 197.645L74.8371 197.64ZM76.5846 188.572L75.6796 189.879L76.1217 191.583L77.2761 191.268L77.4891 192.085L73.6707 193.137L72.9831 190.495C72.8165 189.852 72.7907 189.343 72.9101 188.966C73.025 188.582 73.3104 188.333 73.7653 188.206C73.9208 188.164 74.0728 188.15 74.2171 188.167C74.3614 188.184 74.5002 188.222 74.6332 188.287C74.7637 188.353 74.8819 188.443 74.9923 188.555C75.102 188.663 75.2076 188.797 75.2976 188.943L76.299 187.504L76.5764 188.571L76.5814 188.57L76.5846 188.572ZM74.8412 189.979C74.816 189.885 74.7825 189.779 74.7343 189.66C74.6848 189.535 74.6222 189.421 74.5491 189.319C74.469 189.21 74.3798 189.128 74.2859 189.068C74.1838 189.007 74.0748 188.992 73.9519 189.024C73.8717 189.046 73.81 189.086 73.7699 189.147C73.7254 189.202 73.6973 189.268 73.6865 189.348C73.6699 189.427 73.6673 189.507 73.6761 189.6C73.6779 189.687 73.6929 189.774 73.7136 189.861C73.7273 189.942 73.7435 190.023 73.7645 190.092L73.8129 190.273L74.2868 192.095L75.3353 191.807L74.8614 189.984L74.8437 189.978L74.8412 189.979ZM71.9826 186.633L71.7329 185.659L74.0335 183.271L71.0388 182.219L73.095 179.711L69.9587 178.832L69.7097 177.871L74.1392 179.155L74.2641 179.642L72.4923 181.827L75.0672 182.726L75.1921 183.213L71.9865 186.637L71.9851 186.632L71.9826 186.633ZM69.408 176.733L73.2403 175.683L73.4528 176.508L69.6205 177.558L69.408 176.733ZM69.2732 176.209L69.0607 175.384L70.9377 171.261L68.1846 172.017L67.9716 171.2L71.79 170.149L72.003 170.965L70.0697 175.108L72.8773 174.335L73.0903 175.152L69.2719 176.204L69.2732 176.209Z" fill="black"/>
<path d="M238.97 140.588L233.685 157.858L239.52 163.385L247.442 138.384L238.985 140.588L238.97 140.588Z" fill="url(#paint9_linear_195_12462)"/>
<path d="M198.037 151.231L222.87 173.1L220.279 181.285L189.578 153.45L198.052 151.246L198.037 151.231Z" fill="url(#paint10_linear_195_12462)"/>
<path d="M233.565 141.985L213.956 126.804L204.74 149.488L235.438 177.324L238.03 169.139L227.518 159.896L233.563 141.985L233.565 141.985ZM213.196 147.285L216.934 137.648L225.208 144.162L221.916 154.972L213.196 147.285Z" fill="url(#paint11_linear_195_12462)"/>
<path d="M155.751 108.259L161.571 106.74C162.987 106.372 164.106 106.31 164.94 106.571C165.787 106.817 166.333 107.438 166.605 108.43C166.735 108.901 166.73 109.351 166.618 109.786C166.505 110.207 166.285 110.596 165.971 110.955C165.657 111.315 165.262 111.631 164.775 111.904C164.287 112.176 163.748 112.381 163.142 112.543L159.124 113.591L159.81 116.116L158.006 116.588L155.722 108.273L155.75 108.262L155.751 108.259ZM162.684 110.783C162.89 110.726 163.125 110.654 163.389 110.545C163.666 110.436 163.916 110.3 164.142 110.137C164.38 109.974 164.566 109.783 164.696 109.562C164.828 109.342 164.864 109.105 164.794 108.835C164.748 108.661 164.657 108.525 164.525 108.438C164.406 108.34 164.26 108.282 164.083 108.262C163.907 108.229 163.732 108.222 163.526 108.24C163.334 108.246 163.143 108.277 162.951 108.322C162.773 108.355 162.595 108.387 162.443 108.434L162.042 108.537L158.025 109.585L158.653 111.854L162.671 110.806L162.686 110.781L162.684 110.783ZM167.633 109.628C167.431 108.89 167.405 108.223 167.539 107.605C167.687 106.987 167.981 106.442 168.424 105.955C168.881 105.455 169.47 105.026 170.207 104.657C170.944 104.289 171.801 103.977 172.778 103.711C173.755 103.445 174.728 103.284 175.575 103.213C176.422 103.141 177.181 103.211 177.841 103.398C178.501 103.584 179.059 103.911 179.515 104.381C179.974 104.838 180.302 105.463 180.526 106.255C180.728 106.993 180.754 107.674 180.594 108.278C180.432 108.883 180.112 109.413 179.642 109.914C179.174 110.387 178.543 110.814 177.78 111.181C177.016 111.548 176.118 111.858 175.101 112.121C174.082 112.385 173.22 112.523 172.401 112.571C171.569 112.618 170.837 112.534 170.206 112.35C169.574 112.153 169.042 111.837 168.599 111.381C168.169 110.926 167.853 110.328 167.65 109.603L167.635 109.629L167.633 109.628ZM169.434 109.169C169.527 109.519 169.679 109.804 169.902 110.011C170.112 110.219 170.363 110.388 170.644 110.506C170.939 110.625 171.249 110.689 171.589 110.717C171.941 110.745 172.282 110.744 172.637 110.734C172.993 110.708 173.335 110.655 173.677 110.59C174.02 110.524 174.336 110.457 174.625 110.375C174.914 110.293 175.232 110.2 175.577 110.094C175.922 109.989 176.253 109.857 176.586 109.696C176.919 109.537 177.239 109.363 177.546 109.163C177.853 108.964 178.108 108.748 178.308 108.504C178.523 108.26 178.669 107.987 178.75 107.698C178.845 107.395 178.829 107.076 178.736 106.728C178.642 106.378 178.489 106.12 178.253 105.912C178.031 105.69 177.766 105.52 177.456 105.416C177.149 105.297 176.811 105.218 176.446 105.177C176.081 105.136 175.712 105.135 175.33 105.146C174.962 105.171 174.592 105.21 174.223 105.26C173.867 105.325 173.551 105.393 173.248 105.461C172.945 105.529 172.655 105.637 172.325 105.743C172.007 105.863 171.674 105.995 171.369 106.155C171.063 106.315 170.756 106.501 170.476 106.704C170.196 106.905 169.969 107.122 169.782 107.38C169.596 107.625 169.476 107.898 169.395 108.188C169.316 108.476 169.33 108.783 169.425 109.12L169.439 109.172L169.434 109.169ZM178.673 102.302L180.82 101.751L186.058 106.743L188.396 100.208L193.901 104.667L195.857 97.8241L197.976 97.272L195.115 106.934L194.043 107.21L189.246 103.363L187.245 108.982L186.172 109.259L178.659 102.301L178.673 102.302ZM198.746 97.0765L207.704 94.741L208.152 96.3928L200.998 98.2562L201.293 99.3439L207.953 97.6062L208.402 99.2447L201.742 100.982L202.37 103.265L209.524 101.401L209.972 103.053L201.015 105.391L198.731 97.0763L198.744 97.077L198.746 97.0765ZM218.697 100.815L215.823 98.8536L212.067 99.8313L212.754 102.343L210.95 102.815L208.666 94.5006L214.486 92.9815C215.902 92.613 217.021 92.5519 217.855 92.8123C218.702 93.0582 219.248 93.6797 219.521 94.6737C219.615 95.0106 219.643 95.3435 219.602 95.6603C219.561 95.9771 219.481 96.2803 219.334 96.5669C219.187 96.8535 218.985 97.1115 218.744 97.3539C218.502 97.5963 218.207 97.8229 217.885 98.024L221.05 100.198L218.697 100.808L218.696 100.821L218.697 100.815ZM215.613 97.0256C215.819 96.9683 216.053 96.8967 216.317 96.787C216.594 96.6782 216.844 96.5418 217.07 96.3795C217.309 96.2026 217.493 96.0125 217.624 95.804C217.756 95.5842 217.792 95.3468 217.722 95.0771C217.676 94.903 217.585 94.7668 217.454 94.6806C217.334 94.5825 217.188 94.524 217.011 94.5041C216.835 94.471 216.66 94.4638 216.454 94.482C216.262 94.4878 216.071 94.5195 215.879 94.5644C215.701 94.5969 215.523 94.6294 215.371 94.6767L214.971 94.7795L210.953 95.8271L211.58 98.1096L215.598 97.0619L215.614 97.023L215.613 97.0256ZM223.001 90.7729L225.148 90.2218L230.387 95.2145L232.724 88.6791L238.23 93.1382L240.186 86.2951L242.305 85.743L239.444 95.4047L238.372 95.6809L233.575 91.8344L231.573 97.4535L230.501 97.7297L222.988 90.7721L223.001 90.7729ZM244.823 85.0881L247.108 93.4285L245.291 93.8998L243.007 85.5594L244.823 85.0881ZM245.979 84.7896L247.796 84.3183L256.858 88.3759L255.213 82.3844L257.016 81.9123L259.3 90.2268L257.497 90.6988L248.386 86.5196L250.068 92.6314L248.265 93.1035L245.981 84.7891L245.979 84.7896Z" fill="black"/>
<path d="M95.1941 133.374C94.3328 135.609 92.6733 137.055 90.2154 137.713C87.7575 138.371 85.5884 137.95 83.7082 136.45C81.8469 134.944 80.4995 132.633 79.6662 129.517C78.8328 126.4 78.8467 123.724 79.708 121.49C80.5882 119.25 82.2572 117.801 84.7151 117.143C87.173 116.485 89.3326 116.909 91.1939 118.414C93.0741 119.915 94.4309 122.223 95.2643 125.34C96.0977 128.457 96.0743 131.135 95.1941 133.374ZM89.3668 134.54C90.8416 134.145 91.8024 133.23 92.2493 131.795C92.6961 130.359 92.614 128.499 92.0029 126.213C91.3917 123.928 90.5344 122.275 89.4309 121.255C88.3275 120.234 87.0383 119.922 85.5636 120.317C84.1078 120.706 83.147 121.621 82.6812 123.062C82.2343 124.497 82.3164 126.358 82.9276 128.643C83.5387 130.929 84.396 132.582 85.4995 133.602C86.6219 134.617 87.911 134.93 89.3668 134.54Z" fill="#A30F20"/>
<path d="M77.3308 138.158C76.4696 140.392 74.81 141.838 72.3521 142.497C69.8942 143.155 67.7251 142.733 65.8449 141.233C63.9836 139.727 62.6363 137.416 61.8029 134.3C60.9695 131.183 60.9834 128.507 61.8447 126.273C62.7249 124.033 64.3939 122.585 66.8518 121.926C69.3097 121.268 71.4693 121.692 73.3306 123.197C75.2108 124.698 76.5676 127.006 77.401 130.123C78.2344 133.24 78.211 135.918 77.3308 138.158ZM71.5036 139.323C72.9783 138.928 73.9391 138.013 74.386 136.578C74.8329 135.142 74.7507 133.282 74.1396 130.996C73.5284 128.711 72.6711 127.058 71.5677 126.038C70.4642 125.018 69.1751 124.705 67.7003 125.1C66.2445 125.49 65.2837 126.405 64.8179 127.845C64.371 129.28 64.4532 131.141 65.0643 133.426C65.6754 135.712 66.5328 137.365 67.6362 138.385C68.7586 139.4 70.0477 139.713 71.5036 139.323Z" fill="#A30F20"/>
<path d="M52.8038 134.098C54.6945 133.592 56.4437 133.731 58.0513 134.515C59.6539 135.28 60.7203 136.654 61.2506 138.637C61.781 140.621 61.5265 142.359 60.4871 143.851C59.4478 145.344 57.9544 146.351 56.007 146.873C54.4377 147.293 52.9521 147.306 51.5502 146.912C50.1431 146.5 49 145.672 48.1208 144.43L50.4967 142.063C51.5059 143.716 53.0598 144.261 55.1585 143.699C56.274 143.401 57.0868 142.879 57.5971 142.136C58.1211 141.368 58.2518 140.493 57.9892 139.511C57.7266 138.528 57.1886 137.842 56.3754 137.453C55.5621 137.063 54.6072 137.016 53.5106 137.309L47.7251 138.858L45.6422 128L56.7027 125.038L57.5209 128.098L49.4666 130.255L50.3081 134.766L52.8038 134.098Z" fill="#A30F20"/>
<path d="M389.841 183.593C388.979 185.828 387.32 187.274 384.862 187.932C382.404 188.59 380.235 188.169 378.355 186.669C376.493 185.163 375.146 182.852 374.313 179.735C373.479 176.619 373.493 173.943 374.354 171.708C375.235 169.469 376.904 168.02 379.362 167.362C381.819 166.704 383.979 167.128 385.84 168.633C387.721 170.133 389.077 172.442 389.911 175.559C390.744 178.675 390.721 181.354 389.841 183.593ZM384.013 184.759C385.488 184.364 386.449 183.449 386.896 182.013C387.343 180.578 387.26 178.718 386.649 176.432C386.038 174.146 385.181 172.494 384.077 171.473C382.974 170.453 381.685 170.14 380.21 170.535C378.754 170.925 377.793 171.84 377.328 173.281C376.881 174.716 376.963 176.576 377.574 178.862C378.185 181.148 379.043 182.8 380.146 183.821C381.268 184.836 382.558 185.149 384.013 184.759Z" fill="#A30F20"/>
<path d="M371.977 188.376C371.116 190.611 369.456 192.057 366.999 192.715C364.541 193.373 362.372 192.952 360.491 191.452C358.63 189.946 357.283 187.635 356.449 184.518C355.616 181.402 355.63 178.726 356.491 176.492C357.371 174.252 359.04 172.803 361.498 172.145C363.956 171.487 366.116 171.911 367.977 173.416C369.857 174.917 371.214 177.225 372.048 180.342C372.881 183.459 372.857 186.137 371.977 188.376ZM366.15 189.542C367.625 189.147 368.586 188.232 369.032 186.797C369.479 185.361 369.397 183.501 368.786 181.215C368.175 178.93 367.318 177.277 366.214 176.257C365.111 175.236 363.822 174.924 362.347 175.318C360.891 175.708 359.93 176.623 359.464 178.064C359.018 179.499 359.1 181.36 359.711 183.645C360.322 185.931 361.179 187.584 362.283 188.604C363.405 189.619 364.694 189.932 366.15 189.542Z" fill="#A30F20"/>
<path d="M347.45 184.317C349.341 183.81 351.09 183.949 352.698 184.733C354.3 185.498 355.367 186.873 355.897 188.856C356.427 190.839 356.173 192.577 355.134 194.07C354.094 195.563 352.601 196.57 350.653 197.092C349.084 197.512 347.599 197.525 346.197 197.131C344.79 196.718 343.647 195.891 342.767 194.649L345.143 192.282C346.152 193.935 347.706 194.48 349.805 193.918C350.92 193.619 351.733 193.098 352.244 192.354C352.768 191.587 352.898 190.712 352.636 189.729C352.373 188.747 351.835 188.061 351.022 187.672C350.209 187.282 349.254 187.234 348.157 187.528L342.372 189.077L340.289 178.219L351.349 175.257L352.167 178.317L344.113 180.474L344.955 184.985L347.45 184.317Z" fill="#A30F20"/>
<path d="M269.515 192.961L273.243 191.963L279.304 214.63L275.576 215.628L272.953 205.817L263.229 208.42L265.853 218.232L262.125 219.23L256.064 196.563L259.792 195.565L262.277 204.858L272 202.255L269.515 192.961Z" fill="#A30F20"/>
<path d="M251.149 222.62C248.966 223.205 246.975 223.206 245.175 222.624C243.397 222.035 241.975 220.959 240.908 219.394L243.615 216.657C245.203 218.961 247.424 219.731 250.276 218.968C251.681 218.592 252.656 218.041 253.203 217.316C253.766 216.564 253.93 215.745 253.693 214.86C253.445 213.932 252.879 213.332 251.996 213.059C251.107 212.765 249.623 212.584 247.544 212.516C246.377 212.482 245.421 212.414 244.676 212.313C243.931 212.211 243.114 212.014 242.225 211.72C241.352 211.398 240.631 210.909 240.061 210.252C239.492 209.595 239.072 208.759 238.8 207.744C238.263 205.737 238.552 203.959 239.667 202.411C240.775 200.842 242.334 199.789 244.344 199.25C246.159 198.764 247.865 198.782 249.463 199.302C251.061 199.823 252.435 200.762 253.586 202.12L250.927 204.775C249.41 202.914 247.539 202.281 245.314 202.877C244.233 203.166 243.438 203.657 242.929 204.349C242.413 205.019 242.271 205.785 242.502 206.649C242.727 207.491 243.23 208.073 244.011 208.396C244.808 208.692 246.143 208.878 248.015 208.955C248.955 209.004 249.639 209.052 250.069 209.099C250.514 209.119 251.133 209.184 251.927 209.295C252.743 209.401 253.374 209.556 253.823 209.76C254.271 209.963 254.761 210.237 255.292 210.58C255.846 210.918 256.287 211.355 256.616 211.892C256.944 212.428 257.207 213.064 257.403 213.798C257.951 215.848 257.642 217.678 256.474 219.286C255.322 220.867 253.547 221.978 251.149 222.62Z" fill="#A30F20"/>
<path d="M237.594 225.798L234.785 221.658L225.126 224.244L224.759 229.235L220.707 230.32L222.879 205.449L227.352 204.251L241.613 224.722L237.594 225.798ZM225.423 220.417L232.618 218.49L226.284 209.221L225.423 220.417Z" fill="#A30F20"/>
<path d="M210.233 233.576C206.819 234.49 203.688 234.125 200.84 232.482C197.987 230.817 196.116 228.322 195.227 224.998C194.338 221.673 194.717 218.588 196.364 215.741C198.005 212.872 200.533 210.981 203.947 210.067C205.999 209.517 208.02 209.497 210.008 210.005C212.018 210.508 213.732 211.461 215.149 212.862L212.41 215.608C211.504 214.648 210.382 214 209.042 213.665C207.718 213.302 206.343 213.312 204.916 213.694C202.496 214.342 200.735 215.635 199.632 217.572C198.551 219.504 198.325 221.647 198.954 224C199.584 226.353 200.849 228.096 202.749 229.23C204.672 230.357 206.843 230.597 209.263 229.949C210.689 229.567 211.899 228.896 212.893 227.936C213.881 226.955 214.516 225.824 214.799 224.546L218.534 225.524C218.028 227.44 217.032 229.13 215.548 230.591C214.079 232.026 212.307 233.02 210.233 233.576Z" fill="#A30F20"/>
<path d="M94.1398 274.27L106.296 271.015L107.124 274.111L88.8035 279.017L87.9755 275.92L90.9716 275.118L89.1868 268.444L86.7762 269.089L86.0218 266.268L88.4325 265.622L87.1997 261.012C86.568 258.65 86.7952 256.647 87.8813 255.004C88.9904 253.356 90.5206 252.27 92.4721 251.747C94.1021 251.311 95.616 251.36 97.0138 251.896C98.4055 252.408 99.5991 253.329 100.595 254.66L98.3478 256.884C97.0259 254.977 95.3548 254.294 93.3345 254.835C92.1636 255.148 91.286 255.776 90.7017 256.719C90.1112 257.639 90.0061 258.811 90.3864 260.233L91.6007 264.774L99.2458 262.727L100 265.548L92.3551 267.595L94.1398 274.27Z" fill="#A30F20"/>
</g>
<path d="M320.524 7.50137e-05L0 140.13L72.0822 305.232L392.607 165.103L320.524 7.50137e-05Z" fill="#ECECEC"/>
<path d="M69.3159 109.825L72.9973 118.258C72.9973 118.258 64.175 123.2 68.5048 133.117L78.4905 155.989L116.327 139.447L106.297 116.474C106.297 116.474 102.134 105.399 92.103 109.784L88.3643 101.497L69.3159 109.825Z" fill="#B1B1B1"/>
<path d="M111.144 102.774L293.153 23.2018L308.605 33.6497L321.736 27.9091L378.029 156.846L173.743 246.157C173.743 246.157 164.488 227.972 171.914 220.069C179.34 212.166 162.835 200.758 162.835 200.758C162.835 200.758 167.933 191.674 161.342 176.577C154.751 161.481 144.075 160.458 144.075 160.458C144.075 160.458 149.814 144.239 140.899 141.023C131.984 137.807 123.805 132.846 119.793 122.701C115.781 112.557 111.144 102.777 111.144 102.777L111.144 102.774Z" fill="#CAB0AB"/>
<path d="M265.531 185.908L307.543 167.541L288.935 124.919L352.035 97.3324L321.694 27.838L232.945 66.6379L237.275 76.5554L220.912 83.7092L265.531 185.908Z" fill="#754F46"/>
<path d="M212.315 47.3079L211.338 58.9698L293.151 23.2019L294.102 11.5514L212.315 47.3079Z" fill="#C4626D"/>
<path d="M286.55 196.838L286.819 211.351L368.633 175.583L368.339 161.081L286.55 196.838Z" fill="#C4626D"/>
<path d="M69.9035 161.969L30.7383 179.092L31.5516 180.955L70.7169 163.832L69.9035 161.969Z" fill="#AD535F"/>
<path d="M71.593 165.839L32.4277 182.961L33.241 184.824L72.4063 167.701L71.593 165.839Z" fill="#AD535F"/>
<path d="M97.2914 119.494C92.5578 119.353 89.477 124.875 89.477 124.875L88.4538 124.504L87.7335 122.854C87.7335 122.854 88.6645 121.137 87.764 119.074C86.8635 117.012 84.6724 119.69 84.6724 119.69C84.6724 119.69 81.22 119.479 82.1205 121.541C83.021 123.604 84.9127 124.087 84.9127 124.087L85.633 125.737L85.2101 126.741C85.2101 126.741 79.0679 125.251 75.9551 128.822C72.8422 132.393 77.3036 137.73 80.6675 139.616C84.0315 141.502 85.422 144.497 85.422 144.497L102.354 137.094C102.354 137.094 101.102 134.04 102.006 130.287C102.909 126.536 102.027 119.634 97.2934 119.493L97.2914 119.494Z" fill="#272731"/>
<path d="M315.465 88.9255C310.919 90.3284 309.496 86.7661 307.651 84.308L309.67 78.124C309.788 77.7623 309.784 77.3714 309.658 77.0119L307.082 69.6301C306.768 68.7284 305.783 68.2505 304.879 68.5597L304.765 68.5982C303.744 68.9467 302.657 68.2944 302.486 67.2312L302.255 65.7912C302.096 64.8045 301.14 64.1556 300.163 64.3715L298.795 64.674C297.937 64.8645 297.071 64.3842 296.779 63.5552L295.291 59.3245C294.925 58.2844 293.695 57.8449 292.75 58.4155L288.839 60.7785C287.869 61.3648 286.606 60.8832 286.276 59.7991L285.845 58.3832C285.527 57.3394 284.336 56.8439 283.369 57.355L282.382 57.8763C281.326 58.4333 280.037 57.7876 279.852 56.6101L279.353 53.4246C279.147 52.1112 277.603 51.5081 276.558 52.3305L273.009 55.1245C272.16 55.7929 270.915 55.5355 270.403 54.5873L269.709 53.306C269.169 52.3098 267.836 52.0876 267.001 52.8547L265.817 53.9429C265.004 54.69 263.711 54.5019 263.146 53.5557L260.97 49.9116C260.227 48.6679 258.376 48.8264 257.854 50.1799L256.176 54.5213C255.755 55.6103 254.402 55.9857 253.482 55.2684L252.799 54.7357C251.931 54.0588 250.659 54.3497 250.169 55.3367L249.37 56.9466C248.889 57.9171 247.648 58.2176 246.777 57.5753L241.489 53.6737C240.433 52.8948 238.926 53.5216 238.733 54.8198L237.721 61.6378C237.557 62.7442 236.405 63.4117 235.364 63.0045L235.103 62.9026C234.079 62.5029 232.946 63.1397 232.753 64.2216L232.474 65.8081C232.279 66.9129 231.103 67.5476 230.072 67.1061L228.37 66.3767C227.289 65.9137 226.068 66.6347 225.951 67.8053L225.708 70.2496C225.607 71.2523 224.678 71.9618 223.684 71.7946C222.381 71.5743 221.315 72.8326 221.748 74.0808L222.069 75.0051C222.414 75.997 221.806 77.0652 220.777 77.2799L219.896 77.463C218.813 77.6881 218.211 78.8504 218.654 79.8629L224.505 93.2659C220.871 96.2337 217.793 99.9921 221.954 105.663C228.853 115.066 216.815 110.421 224.1 123.005C231.386 135.587 225.182 144.404 242.459 140.148C243.052 142.681 243.474 145.243 245.045 148.314C247.904 153.901 253.732 164.051 261.83 169.163C269.929 174.273 275.988 177.271 282.01 174.746C282.01 174.746 288.434 182.1 290.99 187.955L327.12 172.159C327.12 172.159 333.294 165.626 330.059 157.513C330.059 157.513 319.733 152.012 313.432 141.645C316.209 140.654 318.928 138.843 320.478 135.57C324.563 126.947 316.646 129.291 320.208 123.688C323.768 118.085 326.336 109.567 322.705 106.689C319.074 103.811 323.058 86.5809 315.463 88.924L315.465 88.9255Z" fill="#CBC9C9"/>
<path d="M141.326 90.0883L187.758 127.821L191.495 67.6451L141.326 90.0883Z" fill="#E2CEAF"/>
<path d="M133.677 240.342C117.61 247.366 114.911 236.29 109.925 238.47C104.94 240.649 100.423 241.636 100.469 237.662C100.515 233.688 99.1608 237.839 93.4574 225.681C87.754 213.523 81.2517 195.457 81.1802 192.12C81.1087 188.783 80.7005 187.396 76.7223 186.762C72.7441 186.129 78.1216 182.395 74.2221 179.356C70.3221 176.316 73.348 172.819 79.1513 172.061C84.9555 171.302 83.2164 167.319 86.1208 159.921C89.0262 152.522 98.3694 148.834 98.3694 148.834L97.6849 149.133C97.6849 149.133 106.739 144.779 114.137 147.673C121.535 150.566 123.275 154.55 127.774 150.804C132.274 147.058 136.892 147.212 136.471 152.141C136.05 157.07 142.443 155.659 140.203 159.009C137.965 162.36 138.705 163.602 141.103 165.923C143.501 168.242 152.33 185.292 157.369 197.74C162.408 210.188 158.444 208.362 161.39 211.028C164.335 213.694 160.543 216.34 155.557 218.52C150.571 220.7 156.859 230.207 140.792 237.231" fill="#272731"/>
<path d="M109.923 177.163C117.019 174.061 120.262 165.8 117.168 158.713C114.074 151.625 105.813 148.394 98.7171 151.497C91.6214 154.599 88.3776 162.859 91.472 169.947C94.5664 177.034 102.827 180.265 109.923 177.163Z" fill="#196849"/>
<path d="M148.153 239.95C150.982 232.745 147.435 224.619 140.23 221.801C133.024 218.983 124.89 222.54 122.06 229.745C119.231 236.95 122.779 245.075 129.984 247.893C137.189 250.711 145.324 247.155 148.153 239.95Z" fill="#196849"/>
<path d="M118.687 194.872L112.613 197.528L107.255 185.256L110.347 183.904L108.685 180.096L100.623 183.621L118.451 224.456L125.409 221.414L123.422 216.865L120.495 218.144L114.63 204.709L121.643 201.643L128.657 198.577L134.522 212.012L131.595 213.292L133.581 217.841L140.54 214.799L122.711 173.964L114.649 177.489L116.311 181.297L119.404 179.944L124.762 192.216L118.687 194.872Z" fill="#503A23"/>
<path d="M117.129 183.035L110.699 185.846L113.503 192.269L119.934 189.457L117.129 183.035Z" fill="#AD9F5F"/>
<path d="M126.167 203.733L119.736 206.544L122.54 212.967L128.971 210.155L126.167 203.733Z" fill="#AD9F5F"/>
<path d="M46.4219 194.114L46.1302 193.447L46.7537 189.928L44.9379 190.722L44.648 190.059L47.1681 188.957L47.458 189.62L46.7995 193.159L48.652 192.349L48.9419 193.012L46.4219 194.114Z" fill="#A57B31"/>
<path d="M46.6048 194.54L49.1315 193.434L49.4232 194.101L46.8965 195.206L46.6048 194.54Z" fill="#A57B31"/>
<path d="M50.1113 202.547L49.7671 201.76L50.9863 199.648L48.6911 198.965L49.7135 196.766L47.35 196.236L47.0094 195.457L50.3557 196.243L50.5278 196.637L49.6457 198.547L51.6185 199.13L51.7907 199.523L50.1113 202.547Z" fill="#A57B31"/>
<path d="M53.6906 203.859L53.2759 204.993L53.8793 206.372L54.6403 206.039L54.9302 206.701L52.4102 207.804L51.4752 205.667C51.2481 205.148 51.144 204.728 51.1627 204.407C51.1803 204.084 51.3382 203.857 51.6363 203.726C51.7387 203.682 51.8429 203.662 51.949 203.669C52.0539 203.672 52.1589 203.697 52.2639 203.743C52.3667 203.79 52.4673 203.856 52.5656 203.942C52.6639 204.027 52.7581 204.127 52.8482 204.242L53.3119 202.993L53.6906 203.859ZM52.7002 205.131C52.6676 205.056 52.6234 204.971 52.5676 204.873C52.5105 204.773 52.447 204.683 52.377 204.601C52.3036 204.518 52.2268 204.455 52.1466 204.411C52.0664 204.367 51.9863 204.363 51.9062 204.398C51.8528 204.421 51.8161 204.459 51.7962 204.51C51.7751 204.559 51.7666 204.615 51.7708 204.679C51.7727 204.744 51.7832 204.813 51.8022 204.887C51.8201 204.958 51.843 205.029 51.871 205.099C51.8955 205.167 51.9205 205.23 51.9459 205.288C51.9712 205.346 51.9924 205.395 52.0093 205.433L52.6543 206.908L53.3452 206.605L52.7002 205.131Z" fill="#870122"/>
<path d="M54.0059 211.452L52.5672 208.164L53.0679 207.944L54.2166 210.57L54.5471 210.426L53.4781 207.982L53.9754 207.765L55.0444 210.208L55.7353 209.906L54.5866 207.28L55.0873 207.061L56.5259 210.349L54.0059 211.452Z" fill="#870122"/>
<path d="M57.2305 218.819L56.8862 218.032L58.1055 215.919L55.8102 215.236L56.8326 213.037L54.4692 212.507L54.1285 211.728L57.4748 212.514L57.6469 212.908L56.7649 214.818L58.7377 215.401L58.9098 215.794L57.2305 218.819Z" fill="#870122"/>
<path d="M60.4499 222.735C60.2274 222.833 60.012 222.864 59.8036 222.83C59.5941 222.794 59.3935 222.699 59.202 222.546C59.007 222.391 58.8211 222.181 58.6443 221.917C58.4675 221.652 58.3006 221.34 58.1436 220.981C57.9805 220.608 57.856 220.263 57.77 219.945C57.6841 219.628 57.647 219.343 57.6587 219.091C57.6693 218.837 57.7328 218.618 57.8491 218.435C57.962 218.251 58.1386 218.107 58.379 218.001C58.6037 217.903 58.8209 217.875 59.0307 217.919C59.237 217.96 59.4372 218.063 59.6314 218.228C59.8221 218.391 60.0061 218.612 60.1833 218.89C60.3604 219.167 60.5306 219.493 60.6936 219.865C60.8507 220.224 60.9686 220.558 61.0475 220.865C61.1242 221.174 61.1565 221.451 61.1446 221.696C61.1292 221.94 61.0661 222.15 60.9552 222.327C60.8409 222.502 60.6725 222.638 60.4499 222.735ZM60.16 222.073C60.2646 222.027 60.3444 221.961 60.3993 221.874C60.452 221.789 60.4863 221.691 60.5023 221.582C60.5171 221.471 60.5164 221.351 60.5002 221.223C60.4829 221.092 60.4576 220.962 60.4245 220.832C60.3879 220.7 60.3464 220.572 60.3 220.447C60.2523 220.32 60.2055 220.204 60.1596 220.099C60.1125 219.991 60.0578 219.875 59.9956 219.751C59.9333 219.627 59.8649 219.504 59.7903 219.382C59.7135 219.261 59.6319 219.147 59.5454 219.04C59.4588 218.934 59.3683 218.845 59.2739 218.774C59.1782 218.701 59.0804 218.653 58.9806 218.631C58.8774 218.607 58.7734 218.618 58.6689 218.664C58.5665 218.709 58.4902 218.777 58.4399 218.868C58.3862 218.957 58.352 219.061 58.3375 219.179C58.3207 219.298 58.3211 219.426 58.3386 219.563C58.3539 219.701 58.3788 219.84 58.4134 219.98C58.4479 220.119 58.4891 220.256 58.5369 220.39C58.5836 220.52 58.6305 220.64 58.6776 220.747C58.7235 220.852 58.7781 220.965 58.8413 221.085C58.9034 221.203 58.9727 221.319 59.0493 221.433C59.1247 221.545 59.2067 221.651 59.2953 221.75C59.3804 221.848 59.4712 221.928 59.5677 221.991C59.6608 222.052 59.7578 222.092 59.8586 222.111C59.9572 222.13 60.0577 222.117 60.16 222.073Z" fill="#870122"/>
<path d="M60.9082 227.227L59.9733 225.09C59.7462 224.57 59.642 224.151 59.6608 223.83C59.6783 223.506 59.8362 223.279 60.1344 223.149C60.2768 223.087 60.4229 223.072 60.5726 223.105C60.7189 223.137 60.8618 223.206 61.0012 223.312C61.1407 223.419 61.2733 223.559 61.3989 223.731C61.5223 223.904 61.6323 224.101 61.729 224.321L62.374 225.796L63.1383 225.461L63.4282 226.124L60.9082 227.227ZM61.1949 224.555C61.1623 224.481 61.1181 224.395 61.0623 224.297C61.0052 224.197 60.9417 224.107 60.8717 224.025C60.8005 223.941 60.7248 223.877 60.6447 223.834C60.5645 223.79 60.4844 223.785 60.4042 223.82C60.3508 223.844 60.3142 223.881 60.2943 223.933C60.2732 223.981 60.2647 224.038 60.2688 224.102C60.2707 224.167 60.2812 224.236 60.3003 224.31C60.3182 224.381 60.3411 224.452 60.369 224.522C60.3936 224.59 60.4185 224.653 60.4439 224.711C60.4693 224.769 60.4904 224.817 60.5073 224.856L61.1524 226.33L61.8399 226.029L61.1949 224.555Z" fill="#870122"/>
<path d="M63.642 236.163L69.8453 237.615L71.2544 235.202L62.259 233.001L63.642 236.163Z" fill="url(#paint12_linear_195_12462)"/>
<path d="M70.3353 251.46L75.7853 241.249L78.7284 241.971L71.7188 254.622L70.3353 251.46Z" fill="url(#paint13_linear_195_12462)"/>
<path d="M64.5289 238.185L60.9233 246.178L69.2408 248.955L76.2509 236.304L73.3078 235.582L71.0019 239.903L64.5289 238.185ZM67.8577 245.794L64.3374 244.684L65.8942 241.306L69.7734 242.204L67.8577 245.794Z" fill="url(#paint14_linear_195_12462)"/>
<path d="M210.008 129.501L207.37 147.368L213.966 151.958L218.054 126.052L210.024 129.499L210.008 129.501Z" fill="url(#paint15_linear_195_12462)"/>
<path d="M171.132 146.163L198.961 164.061L197.624 172.541L163.102 149.626L171.149 146.176L171.132 146.163Z" fill="url(#paint16_linear_195_12462)"/>
<path d="M204.873 131.693L183.212 119.624L177.497 143.435L212.018 166.351L213.354 157.871L201.576 150.308L204.871 131.694L204.873 131.693ZM185.528 139.988L187.78 129.899L196.936 135.099L195.3 146.28L185.528 139.988Z" fill="url(#paint17_linear_195_12462)"/>
<path d="M198.742 77.9775L200.203 77.3332L207.897 78.6083L206.174 74.6999L207.625 74.0596L210.018 79.484L208.566 80.1243L200.828 78.7741L202.586 82.7616L201.135 83.4019L198.742 77.9775Z" fill="#A57B31"/>
<path d="M197.803 78.3823L200.201 83.8211L198.741 84.4654L196.342 79.0266L197.803 78.3823Z" fill="#A57B31"/>
<path d="M180.266 86.1245L181.99 85.3641L186.601 87.956L188.114 82.9806L192.916 85.1451L194.094 80.0254L195.8 79.2731L194.055 86.5224L193.193 86.9026L189.02 85.0354L187.73 89.3118L186.868 89.692L180.266 86.1245Z" fill="#A57B31"/>
<path d="M177.37 93.8896L174.893 93.0167L171.872 94.3494L172.594 95.9875L171.142 96.6278L168.75 91.2034L173.432 89.1383C174.569 88.6367 175.489 88.4029 176.19 88.4368C176.898 88.4681 177.393 88.8046 177.676 89.4465C177.773 89.6668 177.814 89.8917 177.8 90.1212C177.792 90.348 177.737 90.5754 177.635 90.8034C177.531 91.0266 177.385 91.2453 177.198 91.4595C177.011 91.6737 176.791 91.8794 176.538 92.0767L179.267 93.0532L177.37 93.8896ZM174.595 91.7751C174.758 91.7031 174.947 91.6057 175.16 91.483C175.379 91.3577 175.578 91.2186 175.756 91.0656C175.938 90.9051 176.078 90.7378 176.174 90.5636C176.271 90.3894 176.281 90.2161 176.205 90.0437C176.154 89.9287 176.073 89.8503 175.96 89.8083C175.854 89.7637 175.731 89.7465 175.591 89.7568C175.449 89.7622 175.297 89.7863 175.135 89.8291C174.979 89.8692 174.825 89.9202 174.671 89.9821C174.522 90.0365 174.384 90.0918 174.257 90.1478C174.13 90.2038 174.024 90.2505 173.939 90.2879L170.709 91.7126L171.365 93.1998L174.595 91.7751Z" fill="#870122"/>
<path d="M160.756 94.731L167.96 91.5534L168.436 92.6311L162.683 95.1683L162.997 95.8796L168.35 93.5184L168.822 94.5889L163.469 96.9501L164.125 98.4373L169.878 95.9001L170.353 96.9778L163.148 100.155L160.756 94.731Z" fill="#870122"/>
<path d="M144.617 101.852L146.341 101.091L150.953 103.683L152.465 98.7077L157.268 100.872L158.446 95.7525L160.151 95.0001L158.406 102.249L157.544 102.63L153.372 100.762L152.082 105.039L151.22 105.419L144.617 101.852Z" fill="#870122"/>
<path d="M136.023 108.89C135.812 108.411 135.744 107.946 135.82 107.495C135.902 107.042 136.11 106.606 136.447 106.189C136.787 105.764 137.247 105.358 137.828 104.97C138.408 104.583 139.092 104.216 139.878 103.869C140.695 103.509 141.451 103.232 142.146 103.04C142.842 102.848 143.465 102.762 144.016 102.782C144.573 102.799 145.051 102.932 145.449 103.18C145.851 103.42 146.166 103.799 146.394 104.316C146.608 104.8 146.667 105.269 146.571 105.723C146.479 106.17 146.251 106.605 145.889 107.028C145.53 107.444 145.046 107.846 144.438 108.234C143.829 108.623 143.116 108.998 142.299 109.358C141.513 109.705 140.783 109.967 140.109 110.143C139.434 110.315 138.828 110.391 138.291 110.37C137.758 110.342 137.299 110.21 136.913 109.974C136.531 109.731 136.234 109.369 136.023 108.89ZM137.475 108.25C137.574 108.475 137.718 108.646 137.907 108.763C138.094 108.875 138.307 108.947 138.545 108.98C138.789 109.009 139.051 109.005 139.331 108.968C139.616 108.928 139.902 108.87 140.187 108.796C140.476 108.714 140.757 108.622 141.03 108.519C141.308 108.413 141.562 108.31 141.792 108.208C142.028 108.104 142.282 107.984 142.554 107.847C142.826 107.709 143.095 107.559 143.363 107.395C143.628 107.227 143.878 107.048 144.113 106.859C144.347 106.669 144.542 106.472 144.697 106.266C144.858 106.058 144.963 105.846 145.012 105.63C145.065 105.406 145.042 105.181 144.943 104.956C144.846 104.736 144.697 104.572 144.499 104.466C144.304 104.351 144.077 104.28 143.819 104.251C143.558 104.217 143.278 104.22 142.978 104.261C142.676 104.297 142.372 104.354 142.066 104.431C141.761 104.509 141.462 104.601 141.169 104.707C140.882 104.81 140.621 104.914 140.385 105.018C140.155 105.12 139.908 105.24 139.645 105.379C139.387 105.516 139.133 105.668 138.882 105.836C138.636 106.001 138.405 106.181 138.187 106.374C137.973 106.56 137.796 106.758 137.657 106.968C137.523 107.17 137.435 107.381 137.394 107.599C137.351 107.813 137.378 108.03 137.475 108.25Z" fill="#870122"/>
<path d="M126.195 109.977L130.877 107.912C132.015 107.41 132.934 107.177 133.635 107.211C134.343 107.242 134.838 107.578 135.121 108.22C135.256 108.527 135.287 108.842 135.213 109.166C135.144 109.483 134.991 109.794 134.757 110.097C134.522 110.401 134.216 110.69 133.839 110.966C133.46 111.236 133.028 111.478 132.544 111.691L129.314 113.116L130.04 114.761L128.588 115.401L126.195 109.977ZM132.037 110.542C132.2 110.47 132.389 110.372 132.602 110.25C132.821 110.124 133.02 109.985 133.198 109.832C133.383 109.676 133.523 109.512 133.62 109.337C133.716 109.163 133.726 108.99 133.65 108.817C133.6 108.702 133.518 108.624 133.406 108.582C133.299 108.537 133.176 108.52 133.036 108.53C132.894 108.536 132.742 108.56 132.58 108.603C132.424 108.643 132.27 108.694 132.117 108.756C131.967 108.81 131.829 108.865 131.702 108.921C131.575 108.978 131.469 109.024 131.384 109.062L128.154 110.486L128.807 111.966L132.037 110.542Z" fill="#870122"/>
<path d="M66.7774 143.932C66.2605 146.27 64.8363 147.949 62.5048 148.968C60.1732 149.988 57.9656 149.897 55.8819 148.695C53.8162 147.486 52.138 145.403 50.8473 142.447C49.5565 139.49 49.1696 136.843 49.6865 134.505C50.2213 132.158 51.6545 130.476 53.986 129.456C56.3176 128.437 58.5162 128.532 60.5819 129.741C62.6656 130.943 64.3528 133.022 65.6435 135.978C66.9342 138.934 67.3122 141.586 66.7774 143.932ZM61.1906 145.958C62.5895 145.347 63.4024 144.298 63.6292 142.812C63.8561 141.325 63.4963 139.498 62.5498 137.33C61.6032 135.162 60.5081 133.657 59.2643 132.814C58.0205 131.971 56.6991 131.855 55.3002 132.466C53.9192 133.07 53.1063 134.119 52.8615 135.613C52.6347 137.099 52.9945 138.926 53.941 141.094C54.8875 143.262 55.9827 144.768 57.2265 145.611C58.4882 146.446 59.8096 146.562 61.1906 145.958Z" fill="#A30F20"/>
<path d="M49.8301 151.34C49.3132 153.679 47.889 155.357 45.5575 156.377C43.226 157.396 41.0184 157.305 38.9347 156.104C36.8689 154.894 35.1907 152.811 33.9 149.855C32.6093 146.899 32.2224 144.251 32.7392 141.913C33.2741 139.567 34.7072 137.884 37.0388 136.865C39.3703 135.845 41.5689 135.94 43.6347 137.15C45.7183 138.351 47.4055 140.43 48.6963 143.386C49.987 146.343 50.3649 148.994 49.8301 151.34ZM44.2433 153.367C45.6422 152.755 46.4551 151.706 46.682 150.22C46.9088 148.734 46.549 146.907 45.6025 144.739C44.656 142.571 43.5608 141.065 42.317 140.222C41.0732 139.379 39.7519 139.263 38.3529 139.875C36.972 140.479 36.1591 141.527 35.9143 143.021C35.6874 144.507 36.0472 146.335 36.9938 148.503C37.9403 150.671 39.0354 152.176 40.2792 153.019C41.541 153.855 42.8623 153.97 44.2433 153.367Z" fill="#A30F20"/>
<path d="M24.9739 151.005C26.7674 150.221 28.5176 150.096 30.2245 150.63C31.9235 151.146 33.1837 152.345 34.0051 154.226C34.8264 156.108 34.8351 157.864 34.0311 159.496C33.227 161.128 31.9014 162.347 30.0541 163.155C28.5655 163.806 27.0987 164.042 25.6536 163.862C24.2007 163.666 22.9466 163.019 21.8913 161.923L23.8858 159.226C25.1311 160.709 26.7491 161.015 28.7399 160.145C29.7981 159.682 30.5237 159.045 30.9167 158.233C31.3199 157.395 31.3181 156.51 30.9113 155.579C30.5045 154.647 29.8699 154.05 29.0075 153.787C28.1451 153.524 27.1938 153.619 26.1536 154.074L20.6655 156.473L16.98 146.051L27.4719 141.464L28.7392 144.366L21.0989 147.706L22.6065 152.04L24.9739 151.005Z" fill="#A30F20"/>
<path d="M365.617 149.391C365.1 151.73 363.676 153.408 361.345 154.428C359.013 155.447 356.805 155.356 354.722 154.155C352.656 152.945 350.978 150.862 349.687 147.906C348.396 144.95 348.009 142.302 348.526 139.964C349.061 137.618 350.494 135.935 352.826 134.916C355.157 133.896 357.356 133.991 359.422 135.201C361.505 136.402 363.193 138.481 364.483 141.437C365.774 144.394 366.152 147.045 365.617 149.391ZM360.03 151.418C361.429 150.806 362.242 149.757 362.469 148.271C362.696 146.785 362.336 144.958 361.39 142.79C360.443 140.622 359.348 139.116 358.104 138.273C356.86 137.43 355.539 137.314 354.14 137.926C352.759 138.53 351.946 139.578 351.701 141.072C351.475 142.559 351.834 144.386 352.781 146.554C353.727 148.722 354.823 150.227 356.066 151.07C357.328 151.906 358.649 152.021 360.03 151.418Z" fill="#A30F20"/>
<path d="M348.67 156.8C348.153 159.138 346.729 160.817 344.397 161.836C342.066 162.855 339.858 162.764 337.775 161.563C335.709 160.354 334.031 158.271 332.74 155.315C331.449 152.358 331.062 149.711 331.579 147.372C332.114 145.026 333.547 143.344 335.879 142.324C338.21 141.305 340.409 141.4 342.475 142.609C344.558 143.811 346.245 145.889 347.536 148.846C348.827 151.802 349.205 154.453 348.67 156.8ZM343.083 158.826C344.482 158.214 345.295 157.166 345.522 155.68C345.749 154.193 345.389 152.366 344.442 150.198C343.496 148.03 342.401 146.525 341.157 145.682C339.913 144.839 338.592 144.723 337.193 145.334C335.812 145.938 334.999 146.987 334.754 148.481C334.527 149.967 334.887 151.794 335.834 153.962C336.78 156.13 337.875 157.636 339.119 158.479C340.381 159.314 341.702 159.43 343.083 158.826Z" fill="#A30F20"/>
<path d="M323.814 156.465C325.607 155.681 327.357 155.556 329.064 156.09C330.763 156.606 332.024 157.804 332.845 159.686C333.666 161.567 333.675 163.324 332.871 164.955C332.067 166.587 330.741 167.807 328.894 168.614C327.405 169.265 325.939 169.501 324.493 169.322C323.041 169.125 321.786 168.478 320.731 167.382L322.726 164.686C323.971 166.168 325.589 166.475 327.58 165.604C328.638 165.142 329.364 164.504 329.757 163.692C330.16 162.855 330.158 161.97 329.751 161.038C329.344 160.107 328.71 159.509 327.847 159.246C326.985 158.983 326.034 159.079 324.993 159.534L319.505 161.933L315.82 151.51L326.312 146.923L327.579 149.826L319.939 153.166L321.446 157.5L323.814 156.465Z" fill="#A30F20"/>
<path d="M248.054 176.701L251.59 175.155L260.978 196.657L257.442 198.203L253.378 188.896L244.155 192.928L248.218 202.235L244.682 203.781L235.295 182.279L238.831 180.734L242.68 189.549L251.903 185.517L248.054 176.701Z" fill="#A30F20"/>
<path d="M234.336 208.78C232.266 209.685 230.298 209.985 228.431 209.679C226.585 209.364 225.017 208.513 223.728 207.126L225.994 204.014C227.91 206.054 230.221 206.482 232.927 205.299C234.259 204.717 235.141 204.026 235.574 203.228C236.018 202.399 236.056 201.566 235.69 200.726C235.305 199.845 234.656 199.337 233.742 199.2C232.819 199.043 231.325 199.086 229.259 199.331C228.1 199.472 227.145 199.548 226.393 199.56C225.641 199.571 224.804 199.498 223.881 199.341C222.97 199.154 222.183 198.779 221.522 198.214C220.86 197.65 220.32 196.886 219.899 195.924C219.068 194.019 219.087 192.219 219.957 190.521C220.818 188.804 222.202 187.528 224.108 186.695C225.83 185.942 227.52 185.703 229.178 185.978C230.836 186.253 232.335 186.976 233.675 188.145L231.444 191.169C229.666 189.557 227.721 189.212 225.61 190.135C224.585 190.583 223.873 191.187 223.472 191.948C223.063 192.687 223.037 193.467 223.395 194.286C223.744 195.085 224.328 195.585 225.149 195.787C225.981 195.96 227.329 195.944 229.192 195.739C230.128 195.647 230.812 195.591 231.243 195.573C231.686 195.526 232.309 195.498 233.11 195.489C233.932 195.471 234.58 195.529 235.054 195.663C235.527 195.798 236.053 195.995 236.63 196.255C237.228 196.505 237.729 196.871 238.135 197.353C238.54 197.834 238.895 198.423 239.199 199.119C240.048 201.064 240.016 202.919 239.102 204.685C238.2 206.42 236.611 207.785 234.336 208.78Z" fill="#A30F20"/>
<path d="M221.412 213.955L218.014 210.282L208.852 214.288L209.237 219.278L205.393 220.958L203.815 196.042L208.058 194.187L225.224 212.288L221.412 213.955ZM208.572 210.46L215.398 207.476L207.747 199.261L208.572 210.46Z" fill="#A30F20"/>
<path d="M195.524 225.748C192.286 227.164 189.136 227.273 186.074 226.075C183.004 224.857 180.78 222.671 179.403 219.518C178.026 216.364 177.939 213.256 179.141 210.195C180.334 207.113 182.55 204.864 185.788 203.448C187.735 202.596 189.73 202.273 191.772 202.478C193.835 202.673 195.671 203.358 197.282 204.532L194.985 207.657C193.947 206.843 192.74 206.371 191.365 206.241C190.001 206.081 188.643 206.297 187.29 206.888C184.994 207.892 183.447 209.434 182.647 211.515C181.867 213.588 181.964 215.74 182.939 217.972C183.913 220.204 185.425 221.738 187.474 222.573C189.544 223.4 191.727 223.312 194.022 222.308C195.375 221.716 196.471 220.872 197.309 219.773C198.139 218.655 198.598 217.442 198.687 216.135L202.526 216.542C202.312 218.513 201.581 220.332 200.332 222C199.095 223.639 197.492 224.888 195.524 225.748Z" fill="#A30F20"/>
<path d="M96.2915 274.847C97.1181 276.603 97.2524 278.294 96.6943 279.92C96.1462 281.516 95.059 282.835 93.4327 283.878L94.731 286.637L92.8107 287.541L91.5269 284.813C89.8435 285.479 88.2262 285.672 86.6751 285.393C85.124 285.113 83.7569 284.381 82.5737 283.196L84.6671 280.052C86.2123 281.547 87.9494 281.966 89.8784 281.31L86.844 274.863C85.7924 274.929 84.9276 274.957 84.2496 274.948C83.562 274.918 82.7863 274.804 81.9226 274.604C81.0786 274.396 80.3337 274.014 79.6879 273.46C79.0521 272.876 78.5105 272.108 78.0631 271.158C77.2462 269.422 77.1363 267.757 77.7336 266.163C78.3308 264.57 79.408 263.306 80.9649 262.371L79.6812 259.643L81.6015 258.739L82.8999 261.498C85.7142 260.628 88.2122 261.181 90.3937 263.159L88.3449 266.243C87.2006 265.141 85.94 264.737 84.563 265.032L87.4515 271.169C88.1984 271.121 88.7635 271.095 89.1468 271.091C89.5497 271.078 90.0851 271.091 90.7531 271.13C91.4407 271.16 92.0003 271.25 92.4319 271.4C92.8635 271.55 93.3342 271.758 93.8438 272.023C94.3732 272.279 94.8381 272.653 95.2385 273.146C95.6293 273.619 95.9802 274.185 96.2915 274.847ZM81.4607 269.559C81.7622 270.199 82.1875 270.643 82.7365 270.889C83.3052 271.127 84.1103 271.252 85.1518 271.267L82.6134 265.874C81.943 266.341 81.4981 266.903 81.2788 267.562C81.0791 268.211 81.1398 268.877 81.4607 269.559ZM91.7842 280.376C92.4942 279.84 92.9394 279.226 93.1196 278.536C93.2998 277.845 93.2294 277.159 92.9085 276.477C92.5875 275.795 92.1328 275.34 91.5444 275.112C90.9462 274.863 90.1411 274.737 89.1291 274.734L91.7842 280.376Z" fill="#A30F20"/>
<defs>
<linearGradient id="paint0_linear_195_12462" x1="99.3249" y1="217.044" x2="107.912" y2="216.487" gradientUnits="userSpaceOnUse">
<stop stop-color="#C6933B"/>
<stop offset="1"/>
</linearGradient>
<linearGradient id="paint1_linear_195_12462" x1="99.5089" y1="234.978" x2="112.882" y2="226.146" gradientUnits="userSpaceOnUse">
<stop stop-color="#C6933B"/>
<stop offset="1"/>
</linearGradient>
<linearGradient id="paint2_linear_195_12462" x1="109.142" y1="227.213" x2="96.1198" y2="219.655" gradientUnits="userSpaceOnUse">
<stop stop-color="#CB0033"/>
<stop offset="1"/>
</linearGradient>
<linearGradient id="paint3_linear_195_12462" x1="269.325" y1="162.863" x2="270.759" y2="185.019" gradientUnits="userSpaceOnUse">
<stop stop-color="#C6933B"/>
<stop offset="1"/>
</linearGradient>
<linearGradient id="paint4_linear_195_12462" x1="222.959" y1="163.349" x2="245.728" y2="197.886" gradientUnits="userSpaceOnUse">
<stop stop-color="#C6933B"/>
<stop offset="1"/>
</linearGradient>
<linearGradient id="paint5_linear_195_12462" x1="243.028" y1="188.21" x2="262.51" y2="154.567" gradientUnits="userSpaceOnUse">
<stop stop-color="#CB0033"/>
<stop offset="1"/>
</linearGradient>
<linearGradient id="paint6_linear_195_12462" x1="81.8957" y1="225.992" x2="90.2248" y2="223.826" gradientUnits="userSpaceOnUse">
<stop stop-color="#C6933B"/>
<stop offset="1"/>
</linearGradient>
<linearGradient id="paint7_linear_195_12462" x1="85.4557" y1="243.569" x2="96.9248" y2="232.373" gradientUnits="userSpaceOnUse">
<stop stop-color="#C6933B"/>
<stop offset="1"/>
</linearGradient>
<linearGradient id="paint8_linear_195_12462" x1="93.4521" y1="234.126" x2="79.2404" y2="229.158" gradientUnits="userSpaceOnUse">
<stop stop-color="#CB0033"/>
<stop offset="1"/>
</linearGradient>
<linearGradient id="paint9_linear_195_12462" x1="238.636" y1="140.702" x2="244.225" y2="162.188" gradientUnits="userSpaceOnUse">
<stop stop-color="#C6933B"/>
<stop offset="1"/>
</linearGradient>
<linearGradient id="paint10_linear_195_12462" x1="193.193" y1="149.928" x2="222.063" y2="179.547" gradientUnits="userSpaceOnUse">
<stop stop-color="#C6933B"/>
<stop offset="1"/>
</linearGradient>
<linearGradient id="paint11_linear_195_12462" x1="217.587" y1="170.556" x2="230.374" y2="133.838" gradientUnits="userSpaceOnUse">
<stop stop-color="#CB0033"/>
<stop offset="1"/>
</linearGradient>
<linearGradient id="paint12_linear_195_12462" x1="63.7154" y1="236.331" x2="70.4575" y2="233.381" gradientUnits="userSpaceOnUse">
<stop stop-color="#C6933B"/>
<stop offset="1"/>
</linearGradient>
<linearGradient id="paint13_linear_195_12462" x1="70.3853" y1="253.466" x2="79.6584" y2="242.777" gradientUnits="userSpaceOnUse">
<stop stop-color="#C6933B"/>
<stop offset="1"/>
</linearGradient>
<linearGradient id="paint14_linear_195_12462" x1="61.1313" y1="246.087" x2="76.9068" y2="239.185" gradientUnits="userSpaceOnUse">
<stop stop-color="#CB0033"/>
<stop offset="1"/>
</linearGradient>
<linearGradient id="paint15_linear_195_12462" x1="209.695" y1="129.664" x2="218.442" y2="150.067" gradientUnits="userSpaceOnUse">
<stop stop-color="#C6933B"/>
<stop offset="1"/>
</linearGradient>
<linearGradient id="paint16_linear_195_12462" x1="166.148" y1="145.601" x2="199.128" y2="170.556" gradientUnits="userSpaceOnUse">
<stop stop-color="#C6933B"/>
<stop offset="1"/>
</linearGradient>
<linearGradient id="paint17_linear_195_12462" x1="193.355" y1="162.337" x2="200.49" y2="124.116" gradientUnits="userSpaceOnUse">
<stop stop-color="#CB0033"/>
<stop offset="1"/>
</linearGradient>
</defs>
</svg>
