<svg width="36" height="37" viewBox="0 0 36 37" fill="none" xmlns="http://www.w3.org/2000/svg">
<path d="M13.9821 33.0119C21.7044 35.1323 29.6635 30.3539 31.7592 22.3391C33.8549 14.3243 29.2937 6.10809 21.5714 3.98771C13.849 1.86734 5.88995 6.64572 3.79423 14.6605C1.69851 22.6753 6.25977 30.8915 13.9821 33.0119Z" fill="#F89D30"/>
<path d="M17.2573 9.02525L16.4984 11.9277C16.1507 11.8477 15.5238 11.6601 15.1945 11.5697L13.0028 10.9678L12.6233 12.4191C12.6233 12.4191 13.8308 12.7273 13.8055 12.7437C14.4514 12.9101 14.5302 13.4513 14.512 13.7931L12.6337 20.9766C12.5557 21.1745 12.4442 21.6867 11.9909 21.5778C12.0069 21.6024 10.3465 21.1263 10.3465 21.1263L9.96708 22.5775L12.242 23.2022C12.6303 23.2932 13.0908 23.4352 13.4627 23.5373L12.7038 26.4398L14.109 26.7968L14.861 23.9213L16.2375 24.2992L15.5219 27.2136L16.9202 27.5975L17.6358 24.6832C21.8522 25.8409 22.4214 23.6641 22.7064 22.5742C22.9906 21.4873 22.9264 19.9158 21.2727 19.4602C22.2273 19.7239 23.0992 18.2064 23.4299 16.9417C23.8581 15.304 22.7905 13.6553 20.6932 13.0794L21.4521 10.177L20.0538 9.7931L19.2949 12.6955C18.8775 12.5809 18.3245 12.412 17.8967 12.3116L18.6556 9.40918L17.2573 9.02525ZM17.5172 13.7628C18.9154 14.1467 21.0128 14.7226 20.5385 16.5366C20.0642 18.3506 17.9668 17.7748 16.5685 17.3908L17.5172 13.7628ZM16.1891 18.842C18.9856 19.6099 20.3838 19.9938 19.9095 21.8078C19.4352 23.6218 18.0369 23.2379 15.2404 22.4701L16.1891 18.842Z" fill="white"/>
</svg>
