<svg width="38" height="37" viewBox="0 0 38 37" fill="none" xmlns="http://www.w3.org/2000/svg">
<path d="M19.0537 37C29.271 37 37.5537 28.7173 37.5537 18.5C37.5537 8.28273 29.271 0 19.0537 0C8.83644 0 0.553711 8.28273 0.553711 18.5C0.553711 28.7173 8.83644 37 19.0537 37Z" fill="#3E73C4"/>
<path d="M23.7028 20.9557C23.7028 18.4998 22.2228 17.6581 19.2628 17.3066C17.1492 17.0256 16.7271 16.4648 16.7271 15.482C16.7271 14.4992 17.4325 13.8679 18.8408 13.8679C20.1092 13.8679 20.8145 14.2887 21.166 15.3421C21.2026 15.4439 21.2696 15.5321 21.3578 15.5948C21.4461 15.6574 21.5515 15.6915 21.6597 15.6924H22.787C22.8522 15.6942 22.9169 15.6827 22.9775 15.6586C23.038 15.6346 23.093 15.5985 23.1392 15.5525C23.1854 15.5066 23.2217 15.4517 23.2461 15.3913C23.2704 15.3309 23.2822 15.2661 23.2808 15.201V15.1316C23.143 14.3696 22.7574 13.6743 22.1839 13.1539C21.6104 12.6335 20.881 12.317 20.1092 12.2537V10.5702C20.1092 10.2893 19.8976 10.0788 19.5461 10.0083H18.4881C18.2071 10.0083 17.9955 10.2187 17.925 10.5702V12.1844C15.8102 12.4642 14.4725 13.8679 14.4725 15.6231C14.4725 17.9379 15.8808 18.8501 18.8408 19.2016C20.8145 19.552 21.4481 19.974 21.4481 21.0967C21.4481 22.2183 20.4618 22.9907 19.1229 22.9907C17.2902 22.9907 16.6566 22.2195 16.445 21.1661C16.3756 20.8863 16.1629 20.7452 15.9513 20.7452H14.7534C14.6884 20.7437 14.6237 20.7553 14.5633 20.7794C14.5029 20.8035 14.4481 20.8396 14.402 20.8856C14.356 20.9315 14.3197 20.9863 14.2955 21.0466C14.2712 21.107 14.2594 21.1716 14.2609 21.2366V21.306C14.5418 23.0612 15.6703 24.3238 17.9955 24.6753V26.36C17.9955 26.6398 18.2071 26.8514 18.5586 26.9208H19.6166C19.8976 26.9208 20.1092 26.7103 20.1797 26.36V24.6742C22.2945 24.3238 23.7028 22.8496 23.7028 20.9545V20.9557Z" fill="white"/>
<path d="M15.4593 28.3247C9.96248 26.359 7.14354 20.254 9.18779 14.8509C10.2446 11.9024 12.5698 9.65816 15.4593 8.60481C15.7414 8.46491 15.8813 8.25447 15.8813 7.90297V6.92016C15.8813 6.64034 15.7414 6.42991 15.4593 6.35938C15.3888 6.35938 15.2477 6.35937 15.1772 6.42875C13.5913 6.924 12.119 7.72806 10.8452 8.79464C9.57133 9.86121 8.52104 11.1692 7.75478 12.6434C6.98853 14.1175 6.52144 15.7287 6.38042 17.3841C6.2394 19.0395 6.42723 20.7065 6.9331 22.289C8.20035 26.2203 11.2309 29.2381 15.1772 30.5007C15.4593 30.6406 15.7414 30.5007 15.8108 30.2197C15.8813 30.1504 15.8813 30.0787 15.8813 29.9388V28.956C15.8813 28.7455 15.6709 28.4657 15.4593 28.3247ZM22.9287 6.42991C22.6465 6.28884 22.3644 6.42991 22.295 6.70972C22.2245 6.78025 22.2245 6.85078 22.2245 6.99069V7.9735C22.2245 8.25447 22.4349 8.53428 22.6465 8.67534C28.1433 10.641 30.9623 16.746 28.918 22.1491C27.8612 25.0976 25.536 27.3418 22.6465 28.3952C22.3644 28.5351 22.2245 28.7455 22.2245 29.097V30.0798C22.2245 30.3597 22.3644 30.5701 22.6465 30.6406C22.7171 30.6406 22.8581 30.6406 22.9287 30.5713C24.5145 30.076 25.9868 29.2719 27.2606 28.2054C28.5345 27.1388 29.5848 25.8308 30.351 24.3566C31.1173 22.8825 31.5844 21.2713 31.7254 19.6159C31.8664 17.9605 31.6786 16.2935 31.1727 14.711C29.9055 10.7103 26.8044 7.69253 22.9287 6.42991Z" fill="white"/>
</svg>
