<svg width="35" height="35" viewBox="0 0 35 35" fill="none" xmlns="http://www.w3.org/2000/svg">
<path d="M17.5537 35C26.9426 35 34.5537 27.165 34.5537 17.5C34.5537 7.83502 26.9426 0 17.5537 0C8.16487 0 0.553711 7.83502 0.553711 17.5C0.553711 27.165 8.16487 35 17.5537 35Z" fill="black"/>
<path d="M25.3115 7.69824H28.4838L21.8804 14.7462C19.4896 17.2979 15.6134 17.2979 13.2278 14.7462L6.62441 7.69824H9.79671L14.8113 13.0521C16.3276 14.6663 18.7806 14.6663 20.2917 13.0521L25.3115 7.69824ZM9.75531 27.3025H6.58301L13.2278 20.2066C15.6186 17.6549 19.4947 17.6549 21.8856 20.2066L28.5303 27.3025H25.358L20.302 21.9007C18.7857 20.2865 16.3328 20.2865 14.8217 21.9007L9.75531 27.3025Z" fill="white"/>
</svg>
